<svg width="15" height="15" viewBox="0 0 15 15" fill="none" xmlns="http://www.w3.org/2000/svg">
<path d="M15 9.44428V14.7748C15 14.8968 14.9016 15 14.7743 15H11.8555C11.7286 15 11.6248 14.8968 11.6248 14.7748V10.0501C11.6248 9.5057 11.5967 8.89029 11.3893 8.43035C11.2008 8.00299 10.8431 7.69746 10.1794 7.69746C9.49263 7.69746 9.10196 7.96064 8.88471 8.35065C8.6544 8.7776 8.59781 9.36458 8.59781 9.96585V14.7748C8.59781 14.8968 8.49399 15 8.37166 15H5.53343C5.41109 15 5.30769 14.8968 5.30769 14.7748V5.07179C5.30769 4.94974 5.41109 4.84617 5.53343 4.84617H8.24974C8.37208 4.84617 8.4759 4.94974 8.4759 5.07179V5.75755C8.69206 5.54148 8.96045 5.35862 9.27588 5.2127C9.77957 4.97795 10.4104 4.84615 11.1496 4.84615C12.4533 4.84615 13.3342 5.15625 13.9225 5.71066C14.5156 6.26922 14.8024 7.05854 14.9246 8.02576C14.9531 8.23727 14.9721 8.46745 14.9816 8.71131C14.9954 8.9554 15 9.20019 15 9.44428Z" fill="white"/>
<path d="M3.92308 5.07178V14.7748C3.92308 14.8968 3.81799 15 3.68858 15H0.234498C0.105302 15 0 14.8968 0 14.7748V5.07178C0 4.94973 0.105302 4.84615 0.234498 4.84615H3.68858C3.81799 4.84615 3.92308 4.94973 3.92308 5.07178Z" fill="white"/>
<path d="M3.92308 1.96178C3.92308 2.49296 3.70785 2.98079 3.36345 3.33499L3.34886 3.34937C2.99473 3.70314 2.50232 3.92308 1.96152 3.92308C1.42114 3.92308 0.928317 3.70295 0.57419 3.34937C0.220064 2.99517 0 2.50228 0 1.96154C0 1.42104 0.220085 0.928124 0.57419 0.57371C0.928317 0.220152 1.42094 0 1.96152 0C2.50233 0 2.99473 0.22013 3.34886 0.57371C3.7032 0.92833 3.92308 1.42125 3.92308 1.96178Z" fill="white"/>
</svg>
