<svg width="570" height="591" viewBox="0 0 570 591" fill="none" xmlns="http://www.w3.org/2000/svg">
<path d="M421.721 0H323.776V197.01H421.721V0Z" fill="#312DD7"/>
<path d="M422.266 197.01C449.444 197.01 471.511 219.076 471.511 246.255V445.976H373.021V246.255C373.021 219.076 395.087 197.01 422.266 197.01Z" fill="#9B51E0"/>
<path d="M225.289 394.685C252.468 394.685 274.534 416.751 274.534 443.93V541.764H176.044V443.93C176.044 416.751 198.11 394.685 225.289 394.685Z" fill="#EB5757"/>
<path d="M176.044 98.473L77.5543 98.473V98.3753C77.5543 44.0823 121.634 3.05176e-05 175.93 3.05176e-05H176.044V98.473Z" fill="#3A71D5"/>
<path d="M471.511 246.177C471.511 273.369 493.557 295.413 520.755 295.413C547.954 295.413 570 273.369 570 246.177H471.511Z" fill="#219653"/>
<path d="M471.511 0C471.527 27.1786 493.568 49.203 520.755 49.203C547.942 49.203 569.981 27.1786 569.998 0H471.511Z" fill="#F2994A"/>
<path d="M373.021 146.54C373.004 119.361 350.963 97.3366 323.776 97.3366C296.589 97.3366 274.551 119.364 274.531 146.54V245.013C274.531 272.205 296.578 294.249 323.776 294.249C350.974 294.249 373.021 272.205 373.021 245.013V146.54Z" fill="#12A44A"/>
<path d="M274.481 443.436C274.481 470.634 296.525 492.681 323.717 492.681H372.92L422.707 492.552V394.062L372.92 394.191H323.717C296.525 394.191 274.481 416.237 274.481 443.436Z" fill="#312DD7"/>
<path d="M323.776 294.297C350.973 294.297 373.021 272.253 373.021 245.06C373.021 217.867 350.973 195.824 323.776 195.824C296.579 195.824 274.531 217.867 274.531 245.06C274.531 272.253 296.579 294.297 323.776 294.297Z" fill="#F97165"/>
<path d="M323.776 249.927C326.464 249.927 328.643 247.748 328.643 245.06C328.643 242.372 326.464 240.193 323.776 240.193C321.088 240.193 318.909 242.372 318.909 245.06C318.909 247.748 321.088 249.927 323.776 249.927Z" fill="#2F37A4"/>
<path d="M520.755 100.492C533.418 100.492 545.321 105.423 554.272 114.374C563.224 123.326 568.155 135.226 568.155 147.885C568.155 160.545 563.224 172.445 554.272 181.397C545.321 190.348 533.415 195.279 520.755 195.279C508.096 195.279 496.19 190.348 487.239 181.397C478.287 172.445 473.356 160.545 473.356 147.885C473.356 135.226 478.287 123.326 487.239 114.374C496.19 105.423 508.096 100.492 520.755 100.492ZM520.755 98.649C493.557 98.649 471.511 120.693 471.511 147.885C471.511 175.078 493.557 197.122 520.755 197.122C547.954 197.122 570 175.078 570 147.885C570 120.693 547.954 98.649 520.755 98.649Z" fill="#EB5757"/>
<path d="M520.755 163.114C529.167 163.114 535.987 156.296 535.987 147.886C535.987 139.475 529.167 132.657 520.755 132.657C512.344 132.657 505.524 139.475 505.524 147.886C505.524 156.296 512.344 163.114 520.755 163.114Z" fill="#6FCF97"/>
<path d="M323.776 78.0206C339.676 78.0206 352.566 65.1336 352.566 49.2365C352.566 33.3395 339.676 20.4524 323.776 20.4524C307.876 20.4524 294.986 33.3395 294.986 49.2365C294.986 65.1336 307.876 78.0206 323.776 78.0206Z" fill="#F2C94C"/>
<path d="M336.246 49.2585C336.257 42.3825 330.69 36.7997 323.813 36.7889C316.935 36.7781 311.351 42.3434 311.34 49.2194C311.329 56.0954 316.896 61.6783 323.774 61.6891C330.651 61.6999 336.235 56.1345 336.246 49.2585Z" fill="#56CCF2"/>
<path d="M469.947 589.4C457.421 589.202 445.273 586.647 433.808 581.797C422.269 576.917 411.904 569.931 403.003 561.032C394.101 552.134 387.113 541.769 382.232 530.232C377.382 518.77 374.827 506.622 374.629 494.099H469.944V589.4H469.947ZM471.527 590.992V492.519H373.038C373.038 546.901 417.137 590.992 471.527 590.992Z" fill="#56CCF2"/>
<path d="M471.511 591C525.904 591 570 546.912 570 492.527H471.511V591Z" fill="#56CCF2"/>
<path d="M77.5627 492.502C131.948 492.502 176.036 448.406 176.036 394.012H77.5627V492.502Z" fill="#F2C94C"/>
<path d="M77.5627 462.693C115.488 462.693 146.232 431.943 146.232 394.012H77.5627V462.693Z" fill="white"/>
<path d="M570 492.463V295.517C515.607 295.517 471.511 339.605 471.511 393.99C471.511 448.375 515.607 492.463 570 492.463Z" fill="#BB6BD9"/>
<path d="M570 459.303V330.298C534.37 330.298 505.488 359.178 505.488 394.8C505.488 430.422 534.373 459.301 570 459.301V459.303Z" fill="#F9F5F1"/>
<path d="M323.502 450.259C327.678 450.247 331.054 446.853 331.042 442.677C331.03 438.501 327.636 435.125 323.46 435.137C319.284 435.149 315.908 438.543 315.92 442.719C315.931 446.895 319.326 450.271 323.502 450.259Z" fill="#F9F5F1"/>
<path d="M28.3094 207.333C33.483 207.333 37.677 203.139 37.677 197.965C37.677 192.792 33.483 188.597 28.3094 188.597C23.1358 188.597 18.9418 192.792 18.9418 197.965C18.9418 203.139 23.1358 207.333 28.3094 207.333Z" fill="#A036CF"/>
<path d="M306.733 128.636L305.616 129.754L311.945 136.084L313.063 134.966L306.733 128.636Z" fill="#F9F5F1"/>
<path d="M342.1 129.894L335.771 136.224L336.888 137.341L343.218 131.011L342.1 129.894Z" fill="#F9F5F1"/>
<path d="M335.629 160.052L334.512 161.169L340.842 167.499L341.959 166.381L335.629 160.052Z" fill="#F9F5F1"/>
<path d="M310.685 158.786L304.355 165.116L305.472 166.234L311.802 159.904L310.685 158.786Z" fill="#F9F5F1"/>
<path d="M323.776 187.844C301.824 187.844 283.966 169.988 283.966 148.039C283.966 126.09 301.824 108.234 323.776 108.234C345.728 108.234 363.586 126.09 363.586 148.039C363.586 169.988 345.728 187.844 323.776 187.844ZM323.776 109.815C302.695 109.815 285.546 126.961 285.546 148.039C285.546 169.117 302.695 186.263 323.776 186.263C344.857 186.263 362.006 169.117 362.006 148.039C362.006 126.961 344.857 109.815 323.776 109.815Z" fill="#F9F5F1"/>
<path d="M422.266 198.624C434.998 198.624 446.968 203.58 455.97 212.582C464.971 221.584 469.93 233.551 469.93 246.28V344.753C469.93 357.482 464.971 369.45 455.97 378.451C446.968 387.453 434.998 392.409 422.266 392.409C409.534 392.409 397.564 387.453 388.562 378.451C379.56 369.45 374.601 357.482 374.601 344.753V246.28C374.601 233.551 379.56 221.584 388.562 212.582C397.564 203.58 409.534 198.624 422.266 198.624ZM422.266 197.044C395.068 197.044 373.021 219.087 373.021 246.28V344.753C373.021 371.946 395.068 393.99 422.266 393.99C449.464 393.99 471.511 371.946 471.511 344.753V246.28C471.511 219.087 449.464 197.044 422.266 197.044Z" fill="#F9F5F1"/>
<path d="M386.881 183.708C377.575 174.402 372.448 162.033 372.448 148.871C372.448 135.709 377.575 123.34 386.881 114.036C396.187 104.73 408.562 99.6065 421.724 99.6065C434.886 99.6065 447.258 104.73 456.567 114.036C465.873 123.342 471 135.714 471 148.871C471 162.027 465.873 174.402 456.567 183.708C447.261 193.015 434.886 198.138 421.724 198.138C408.562 198.138 396.19 193.015 386.881 183.708Z" fill="#56CCF2"/>
<path d="M423.268 314.691H421.688V333.702H423.268V314.691Z" fill="#F9F5F1"/>
<path d="M440.993 322.206L427.55 335.65L428.668 336.767L442.111 323.324L440.993 322.206Z" fill="#F9F5F1"/>
<path d="M449.333 341.174H430.318V342.754H449.333V341.174Z" fill="#F9F5F1"/>
<path d="M428.373 347.082L427.256 348.2L440.699 361.643L441.817 360.525L428.373 347.082Z" fill="#F9F5F1"/>
<path d="M422.844 349.804H421.263V368.816H422.844V349.804Z" fill="#F9F5F1"/>
<path d="M415.866 346.734L402.421 360.179L403.538 361.297L416.984 347.852L415.866 346.734Z" fill="#F9F5F1"/>
<path d="M414.213 340.749H395.199V342.33H414.213V340.749Z" fill="#F9F5F1"/>
<path d="M403.841 321.945L402.723 323.063L416.167 336.506L417.284 335.389L403.841 321.945Z" fill="#F9F5F1"/>
<path d="M188.243 442.645C188.243 432.418 192.389 423.156 199.093 416.455C205.797 409.751 215.059 405.608 225.289 405.608C235.519 405.608 244.781 409.754 251.485 416.455C258.189 423.159 262.335 432.418 262.335 442.645C262.335 452.873 258.189 462.135 251.485 468.836C244.781 475.54 235.519 479.683 225.289 479.683C215.059 479.683 205.797 475.537 199.093 468.836C192.389 462.132 188.243 452.873 188.243 442.645ZM220.258 447.677C221.545 448.964 223.326 449.76 225.289 449.76C227.255 449.76 229.033 448.964 230.32 447.677C231.608 446.39 232.406 444.611 232.406 442.645C232.406 440.68 231.61 438.901 230.32 437.614C229.033 436.327 227.252 435.531 225.289 435.531C223.323 435.531 221.545 436.327 220.258 437.614C218.97 438.901 218.172 440.68 218.172 442.645C218.172 444.611 218.968 446.39 220.258 447.677Z" fill="#F2C94C"/>
<path d="M176.044 198.021H175.93C162.519 198.021 149.508 195.394 137.259 190.214C125.428 185.211 114.804 178.046 105.679 168.921C96.5548 159.797 89.393 149.173 84.3894 137.342C79.2072 125.093 76.5826 112.082 76.5826 98.6712V98.5735H78.5371V98.6712C78.5371 152.375 122.228 196.069 175.935 196.069H176.05V198.024L176.044 198.021Z" fill="#9B51E0"/>
<path d="M176.15 99.4112H176.052V97.5684H176.15C229.885 97.5684 273.601 53.8519 273.601 0.114478V0H275.444V0.114478C275.444 13.5195 272.819 26.5225 267.64 38.766C262.639 50.5907 255.48 61.2092 246.361 70.3283C237.242 79.4474 226.624 86.6064 214.799 91.6072C202.555 96.7866 189.552 99.4112 176.147 99.4112H176.15Z" fill="#EB5757"/>
<path d="M225.295 197.044H176.041V98.6208C176.041 98.5929 176.064 98.5706 176.092 98.5706L225.295 98.5706C252.468 98.5706 274.531 120.634 274.531 147.807C274.531 174.98 252.47 197.044 225.295 197.044Z" fill="#9B51E0"/>
<path d="M274.559 295.059H274.674C329.371 295.059 373.778 339.468 373.778 394.163V394.263H274.556V295.059H274.559Z" fill="#3A71D5"/>
<path d="M274.559 329.567H274.634C310.307 329.567 339.267 358.527 339.267 394.199V394.263H274.559V329.567Z" fill="#F2994A"/>
<path d="M177.141 392.044C230.831 392.044 274.355 348.527 274.355 294.847C274.355 241.166 230.831 197.65 177.141 197.65C123.452 197.65 79.9276 241.166 79.9276 294.847C79.9276 348.527 123.452 392.044 177.141 392.044Z" fill="#56CCF2"/>
<path d="M28.3095 70.8727C42.9039 70.8727 54.7761 82.7421 54.7761 97.3338C54.7761 111.926 42.9039 123.795 28.3095 123.795C13.715 123.795 1.84281 111.926 1.84281 97.3338C1.84281 82.7421 13.715 70.8727 28.3095 70.8727ZM28.3095 69.0299C12.6735 69.0299 0 81.7034 0 97.3338C0 112.964 12.6735 125.638 28.3095 125.638C43.9454 125.638 56.6189 112.964 56.6189 97.3338C56.6189 81.7034 43.9454 69.0299 28.3095 69.0299Z" fill="#EB5757"/>
<path d="M38.3807 97.3339L22.943 88.4214V106.249L38.3807 97.3339Z" fill="#EB5757"/>
<path d="M77.5627 417.053V394.188H100.425V394.216C100.425 406.822 90.1915 417.056 77.585 417.056H77.5627V417.053Z" fill="#56CCF2"/>
<path d="M422.028 492.678C408.866 492.678 396.492 487.551 387.183 478.245C377.874 468.939 372.75 456.567 372.75 443.405C372.75 430.243 377.876 417.871 387.183 408.565C396.489 399.259 408.866 394.132 422.028 394.132C435.191 394.132 447.565 399.259 456.874 408.565C466.18 417.871 471.307 430.243 471.307 443.405C471.307 456.567 466.18 468.939 456.874 478.245C447.565 487.551 435.191 492.678 422.028 492.678Z" fill="#56CCF2"/>
</svg>
