<?xml version="1.0" encoding="UTF-8"?>
<svg id="Layer_1" data-name="Layer 1" xmlns="http://www.w3.org/2000/svg" xmlns:xlink="http://www.w3.org/1999/xlink" viewBox="0 0 906.86 511.1">
  <defs>
    <style>
      .cls-1 {
        fill: url(#linear-gradient);
      }

      .cls-2 {
        fill: #fff;
      }

      .cls-3 {
        fill: #ff0a6c;
      }

      .cls-4 {
        fill: #231f20;
      }

      .cls-5 {
        fill: url(#linear-gradient-4);
      }

      .cls-6 {
        fill: url(#linear-gradient-2);
      }

      .cls-7 {
        fill: url(#linear-gradient-3);
        opacity: .7;
      }
    </style>
    <linearGradient id="linear-gradient" x1="472.29" y1="132.97" x2="472.29" y2="327.76" gradientUnits="userSpaceOnUse">
      <stop offset="0" stop-color="#2d27ff"/>
      <stop offset="1" stop-color="#ff0a6c"/>
    </linearGradient>
    <linearGradient id="linear-gradient-2" x1="501.6" y1="126.02" x2="601.51" y2="225.93" gradientUnits="userSpaceOnUse">
      <stop offset="0" stop-color="#ff0a6c"/>
      <stop offset="1" stop-color="#2d27ff"/>
    </linearGradient>
    <linearGradient id="linear-gradient-3" x1="573.54" y1="284.25" x2="668.18" y2="350.51" gradientUnits="userSpaceOnUse">
      <stop offset="0" stop-color="#00c7ff"/>
      <stop offset="1" stop-color="#1b29ff"/>
    </linearGradient>
    <linearGradient id="linear-gradient-4" x1="573.9" y1="284.35" x2="668.25" y2="350.41" xlink:href="#linear-gradient"/>
  </defs>
  <g>
    <rect class="cls-2" x=".5" y=".5" width="905.86" height="510.1"/>
    <path class="cls-4" d="M905.86,1V510.1H1V1H905.86M906.86,0H0V511.1H906.86V0h0Z"/>
  </g>
  <g>
    <path class="cls-4" d="M145.04,382.81c-.22,0-.42-.07-.59-.22s-.25-.34-.25-.56c0-.24,.08-.44,.25-.59s.36-.22,.59-.22h13.3c.24,0,.45,.07,.62,.22s.25,.35,.25,.59-.08,.43-.25,.57-.37,.21-.62,.21h-13.3Zm6.66,18c-.26,0-.48-.08-.64-.25-.17-.17-.25-.36-.25-.59v-17.84h1.76v17.84c0,.22-.08,.42-.25,.59s-.37,.25-.62,.25Z"/>
    <path class="cls-4" d="M171.41,386.4c1.18,0,2.13,.25,2.86,.76,.73,.5,1.26,1.19,1.61,2.04,.34,.86,.52,1.81,.52,2.86v7.92c0,.22-.08,.42-.25,.59s-.36,.25-.59,.25c-.26,0-.47-.08-.63-.25-.16-.17-.24-.36-.24-.59v-7.92c0-.77-.12-1.45-.35-2.06-.23-.61-.61-1.1-1.12-1.47-.51-.37-1.21-.56-2.09-.56-.78,0-1.53,.19-2.23,.56-.7,.37-1.27,.86-1.69,1.47-.43,.61-.64,1.29-.64,2.06v7.92c0,.22-.08,.42-.25,.59s-.36,.25-.59,.25c-.26,0-.47-.08-.63-.25s-.24-.36-.24-.59v-19.04c0-.22,.08-.42,.25-.59s.37-.25,.62-.25,.44,.08,.6,.25c.16,.17,.24,.36,.24,.59v9.07l-.64,.98c.04-.58,.22-1.14,.55-1.69,.33-.55,.75-1.04,1.27-1.48,.52-.44,1.1-.78,1.74-1.04s1.28-.38,1.93-.38Z"/>
    <path class="cls-4" d="M189.78,401.1c-1.44,0-2.71-.31-3.81-.92-1.1-.62-1.96-1.47-2.58-2.58s-.92-2.39-.92-3.86c0-1.59,.31-2.94,.94-4.06,.63-1.12,1.44-1.98,2.44-2.59,1-.61,2.06-.91,3.18-.91,.82,0,1.62,.14,2.39,.43,.77,.29,1.46,.72,2.07,1.29s1.09,1.26,1.46,2.09c.36,.82,.56,1.77,.6,2.86-.02,.22-.11,.42-.28,.57-.17,.16-.36,.24-.59,.24h-11.23l-.34-1.51h11.03l-.36,.34v-.56c-.09-.88-.38-1.62-.87-2.23-.49-.61-1.07-1.07-1.75-1.4-.68-.33-1.4-.49-2.14-.49-.56,0-1.13,.11-1.72,.34-.59,.22-1.12,.57-1.6,1.05-.48,.48-.86,1.08-1.16,1.82-.3,.74-.45,1.61-.45,2.62,0,1.1,.22,2.1,.67,3,.45,.9,1.1,1.61,1.95,2.13,.85,.52,1.86,.78,3.04,.78,.65,0,1.24-.09,1.75-.28,.51-.19,.97-.43,1.37-.74,.4-.31,.73-.63,.99-.97,.21-.17,.4-.25,.59-.25,.21,0,.38,.08,.52,.22s.21,.32,.21,.5c0,.22-.09,.42-.28,.59-.56,.67-1.29,1.26-2.18,1.75-.9,.49-1.88,.74-2.94,.74Z"/>
    <path class="cls-4" d="M229.71,391.02c0,1.47-.23,2.82-.69,4.05-.46,1.22-1.11,2.29-1.95,3.19s-1.83,1.61-2.98,2.1c-1.15,.49-2.4,.74-3.77,.74s-2.64-.25-3.78-.74c-1.14-.49-2.13-1.19-2.97-2.1-.84-.91-1.49-1.97-1.96-3.19s-.7-2.57-.7-4.05,.23-2.82,.7-4.05,1.12-2.29,1.96-3.19c.84-.91,1.83-1.61,2.97-2.1,1.14-.5,2.4-.74,3.78-.74s2.62,.25,3.77,.74c1.15,.49,2.14,1.19,2.98,2.1s1.49,1.97,1.95,3.19c.46,1.22,.69,2.57,.69,4.05Zm-1.79,0c0-1.66-.33-3.12-.98-4.38-.65-1.26-1.54-2.25-2.67-2.95-1.13-.71-2.44-1.06-3.93-1.06s-2.79,.36-3.93,1.06-2.04,1.69-2.69,2.95c-.64,1.26-.97,2.72-.97,4.38s.32,3.12,.97,4.38c.64,1.26,1.54,2.25,2.69,2.95,1.15,.71,2.46,1.06,3.93,1.06s2.8-.35,3.93-1.06c1.13-.71,2.02-1.69,2.67-2.95s.98-2.72,.98-4.38Z"/>
    <path class="cls-4" d="M246.48,386.59c.24,0,.44,.08,.6,.25s.24,.36,.24,.59v7.9c0,1.85-.52,3.26-1.57,4.23-1.04,.97-2.45,1.46-4.23,1.46s-3.18-.49-4.21-1.46-1.55-2.38-1.55-4.23v-7.9c0-.22,.08-.42,.25-.59s.37-.25,.62-.25,.44,.08,.6,.25c.16,.17,.24,.36,.24,.59v7.9c0,1.34,.36,2.37,1.08,3.07s1.71,1.05,2.98,1.05,2.29-.35,3.01-1.05,1.08-1.72,1.08-3.07v-7.9c0-.22,.08-.42,.24-.59,.16-.17,.37-.25,.63-.25Z"/>
    <path class="cls-4" d="M253.31,386.56h6.52c.22,0,.41,.08,.56,.24,.15,.16,.22,.35,.22,.57s-.07,.41-.22,.56-.34,.22-.56,.22h-6.52c-.22,0-.42-.08-.57-.24-.16-.16-.24-.35-.24-.57s.08-.41,.24-.56c.16-.15,.35-.22,.57-.22Zm2.88-3.95c.24,0,.44,.08,.6,.25,.16,.17,.24,.36,.24,.59v14.06c0,.52,.07,.91,.21,1.18,.14,.26,.32,.43,.55,.52,.22,.08,.45,.13,.67,.13,.15,0,.28-.02,.41-.07s.26-.07,.41-.07c.17,0,.31,.07,.43,.2,.12,.13,.18,.3,.18,.5,0,.26-.15,.48-.45,.66s-.65,.27-1.06,.27c-.17,0-.42-.01-.76-.04s-.68-.13-1.04-.31-.65-.49-.9-.94c-.24-.45-.36-1.09-.36-1.93v-14.14c0-.22,.08-.42,.25-.59s.37-.25,.62-.25Z"/>
    <path class="cls-4" d="M265.99,398.55c-.15-.22-.22-.44-.21-.66,0-.21,.13-.39,.35-.52,.15-.13,.32-.19,.52-.17,.2,.02,.38,.11,.55,.28,.5,.65,1.12,1.18,1.83,1.58,.72,.4,1.57,.6,2.56,.6,.52,0,1.04-.09,1.55-.27,.51-.18,.94-.45,1.27-.81,.34-.36,.5-.83,.5-1.39s-.17-1.04-.5-1.39c-.34-.34-.77-.62-1.3-.84-.53-.21-1.11-.4-1.72-.55-.63-.17-1.25-.36-1.83-.57s-1.12-.49-1.58-.81c-.47-.33-.83-.72-1.11-1.19-.27-.47-.41-1.04-.41-1.71,0-.78,.21-1.47,.63-2.07,.42-.6,1-1.06,1.75-1.4,.75-.34,1.58-.5,2.49-.5,.49,0,1,.06,1.54,.18,.54,.12,1.07,.32,1.6,.6,.52,.28,.99,.66,1.4,1.15,.17,.17,.25,.36,.25,.57s-.09,.42-.28,.6c-.15,.11-.32,.16-.52,.15-.2,0-.36-.09-.49-.24-.45-.5-.98-.88-1.6-1.13-.62-.25-1.28-.38-1.99-.38-.54,0-1.05,.08-1.53,.25-.48,.17-.87,.43-1.19,.78s-.48,.82-.48,1.4c.04,.54,.23,.98,.57,1.32s.8,.62,1.37,.84,1.21,.43,1.92,.62c.6,.15,1.17,.33,1.72,.53,.55,.21,1.04,.46,1.46,.77s.76,.7,1.01,1.16c.25,.47,.38,1.05,.38,1.76,0,.82-.23,1.53-.69,2.13-.46,.6-1.07,1.05-1.83,1.37s-1.61,.48-2.55,.48c-1.01,0-1.98-.2-2.93-.59-.94-.39-1.78-1.05-2.51-1.96Z"/>
    <path class="cls-4" d="M281.53,386.56h6.52c.22,0,.41,.08,.56,.24,.15,.16,.22,.35,.22,.57s-.07,.41-.22,.56-.34,.22-.56,.22h-6.52c-.22,0-.42-.08-.57-.24-.16-.16-.24-.35-.24-.57s.08-.41,.24-.56c.16-.15,.35-.22,.57-.22Zm2.88-3.95c.24,0,.44,.08,.6,.25,.16,.17,.24,.36,.24,.59v14.06c0,.52,.07,.91,.21,1.18,.14,.26,.32,.43,.55,.52,.22,.08,.45,.13,.67,.13,.15,0,.28-.02,.41-.07s.26-.07,.41-.07c.17,0,.31,.07,.43,.2,.12,.13,.18,.3,.18,.5,0,.26-.15,.48-.45,.66s-.65,.27-1.06,.27c-.17,0-.42-.01-.76-.04s-.68-.13-1.04-.31-.65-.49-.9-.94c-.24-.45-.36-1.09-.36-1.93v-14.14c0-.22,.08-.42,.25-.59s.37-.25,.62-.25Z"/>
    <path class="cls-4" d="M306.2,386.51c.24,0,.44,.08,.6,.25,.16,.17,.24,.37,.24,.62v12.6c0,.22-.08,.42-.25,.59s-.36,.25-.59,.25c-.26,0-.47-.08-.62-.25s-.22-.36-.22-.59v-3.33l.48-.2c0,.5-.14,1.03-.43,1.58-.29,.55-.69,1.05-1.19,1.51-.5,.46-1.1,.83-1.78,1.12s-1.41,.43-2.2,.43c-1.27,0-2.4-.33-3.4-.98-1-.65-1.78-1.55-2.35-2.69s-.85-2.42-.85-3.84,.29-2.74,.87-3.85c.58-1.11,1.36-1.98,2.35-2.62,.99-.63,2.1-.95,3.33-.95,.8,0,1.55,.14,2.25,.42,.7,.28,1.31,.66,1.83,1.15s.93,1.04,1.23,1.67c.3,.63,.45,1.27,.45,1.95l-.59-.42v-3.56c0-.24,.08-.45,.22-.62s.35-.25,.62-.25Zm-5.82,13.02c.99,0,1.87-.26,2.63-.77s1.37-1.22,1.81-2.13,.66-1.92,.66-3.04-.22-2.07-.66-2.95-1.04-1.59-1.81-2.1c-.77-.51-1.64-.77-2.63-.77s-1.84,.25-2.62,.74c-.77,.49-1.38,1.18-1.82,2.06-.44,.88-.66,1.89-.66,3.02s.22,2.13,.66,3.04,1.04,1.61,1.81,2.13c.76,.51,1.64,.77,2.63,.77Z"/>
    <path class="cls-4" d="M320.7,386.17c1.23,0,2.22,.25,2.95,.74,.74,.5,1.27,1.17,1.6,2.02s.49,1.79,.49,2.81v8.23c0,.22-.08,.42-.25,.59s-.36,.25-.59,.25c-.26,0-.47-.08-.63-.25-.16-.17-.24-.36-.24-.59v-8.15c0-.75-.12-1.43-.36-2.04s-.63-1.11-1.18-1.47c-.54-.36-1.26-.55-2.16-.55-.8,0-1.56,.18-2.28,.55-.72,.36-1.3,.85-1.75,1.47-.45,.62-.67,1.3-.67,2.04v8.15c0,.22-.08,.42-.25,.59s-.36,.25-.59,.25c-.26,0-.47-.08-.63-.25s-.24-.36-.24-.59v-12.54c0-.22,.08-.42,.25-.59s.37-.25,.62-.25,.44,.08,.6,.25c.16,.17,.24,.36,.24,.59v2.35l-.64,1.01c.04-.6,.23-1.17,.57-1.72,.34-.55,.79-1.04,1.33-1.48,.54-.44,1.14-.78,1.81-1.04,.66-.25,1.33-.38,2-.38Z"/>
    <path class="cls-4" d="M344.39,380.1c.24,0,.44,.08,.6,.25,.16,.17,.24,.36,.24,.59v19.04c0,.22-.08,.42-.25,.59s-.36,.25-.59,.25c-.26,0-.47-.08-.62-.25s-.22-.36-.22-.59v-3.33l.48-.39c0,.54-.14,1.1-.42,1.67-.28,.57-.68,1.09-1.19,1.57-.51,.48-1.11,.86-1.79,1.16s-1.41,.45-2.2,.45c-1.25,0-2.38-.33-3.37-.98-1-.65-1.79-1.54-2.37-2.66-.58-1.12-.87-2.4-.87-3.84s.29-2.69,.87-3.82c.58-1.13,1.36-2.02,2.35-2.66,.99-.64,2.1-.97,3.33-.97,.78,0,1.52,.14,2.21,.42,.69,.28,1.3,.66,1.83,1.15,.53,.49,.95,1.04,1.26,1.67,.31,.63,.46,1.27,.46,1.95l-.59-.42v-10c0-.22,.08-.42,.22-.59s.35-.25,.62-.25Zm-5.82,19.43c1.01,0,1.89-.26,2.65-.77,.76-.51,1.35-1.21,1.79-2.1,.44-.89,.66-1.9,.66-3.04s-.22-2.12-.66-3.01-1.04-1.58-1.81-2.09-1.64-.76-2.63-.76-1.84,.25-2.62,.76-1.38,1.2-1.82,2.09-.66,1.89-.66,3.01,.22,2.13,.66,3.02c.44,.9,1.05,1.6,1.82,2.11s1.65,.77,2.62,.77Z"/>
    <path class="cls-4" d="M352.93,384.38c-.39,0-.69-.09-.88-.27-.2-.18-.29-.43-.29-.77v-.28c0-.34,.11-.59,.32-.77,.21-.18,.51-.27,.88-.27,.35,0,.63,.09,.83,.27,.2,.18,.29,.43,.29,.77v.28c0,.34-.1,.59-.29,.77-.2,.18-.48,.27-.85,.27Zm.84,15.6c0,.22-.08,.42-.25,.59s-.36,.25-.59,.25c-.26,0-.47-.08-.62-.25s-.22-.36-.22-.59v-12.88c0-.22,.08-.42,.24-.59,.16-.17,.36-.25,.6-.25s.44,.08,.6,.25c.16,.17,.24,.36,.24,.59v12.88Z"/>
    <path class="cls-4" d="M367.41,386.17c1.23,0,2.22,.25,2.95,.74,.74,.5,1.27,1.17,1.6,2.02s.49,1.79,.49,2.81v8.23c0,.22-.08,.42-.25,.59s-.36,.25-.59,.25c-.26,0-.47-.08-.63-.25-.16-.17-.24-.36-.24-.59v-8.15c0-.75-.12-1.43-.36-2.04s-.63-1.11-1.18-1.47c-.54-.36-1.26-.55-2.16-.55-.8,0-1.56,.18-2.28,.55-.72,.36-1.3,.85-1.75,1.47-.45,.62-.67,1.3-.67,2.04v8.15c0,.22-.08,.42-.25,.59s-.36,.25-.59,.25c-.26,0-.47-.08-.63-.25s-.24-.36-.24-.59v-12.54c0-.22,.08-.42,.25-.59s.37-.25,.62-.25,.44,.08,.6,.25c.16,.17,.24,.36,.24,.59v2.35l-.64,1.01c.04-.6,.23-1.17,.57-1.72,.34-.55,.79-1.04,1.33-1.48,.54-.44,1.14-.78,1.81-1.04,.66-.25,1.33-.38,2-.38Z"/>
    <path class="cls-4" d="M385.33,386.17c.82,0,1.59,.14,2.3,.43,.71,.29,1.33,.66,1.86,1.12s.95,.94,1.25,1.46c.3,.51,.45,1,.45,1.47l-.45-.67v-2.6c0-.24,.08-.45,.24-.62,.16-.17,.36-.25,.6-.25,.26,0,.47,.08,.62,.25s.22,.37,.22,.62v12.15c0,1.47-.31,2.73-.92,3.75s-1.45,1.81-2.51,2.34-2.25,.8-3.6,.8c-.65,0-1.34-.08-2.06-.25s-1.33-.38-1.85-.64c-.51-.26-.8-.53-.85-.81-.15-.17-.22-.33-.21-.49,0-.16,.09-.29,.24-.41,.17-.13,.36-.14,.57-.04,.21,.1,.53,.24,.94,.41,.17,.06,.42,.14,.74,.25,.33,.11,.71,.21,1.15,.29,.44,.08,.9,.13,1.39,.13,1.66,0,2.96-.48,3.89-1.44,.93-.96,1.4-2.22,1.4-3.77v-2.69l.31,.08c-.17,.65-.45,1.23-.84,1.74-.39,.5-.84,.93-1.36,1.27-.51,.34-1.07,.61-1.68,.78-.61,.18-1.21,.27-1.81,.27-1.29,0-2.45-.33-3.49-.98-1.04-.65-1.85-1.54-2.45-2.66s-.9-2.4-.9-3.84,.3-2.69,.9-3.82c.6-1.13,1.41-2.02,2.44-2.66,1.03-.64,2.18-.97,3.47-.97Zm.2,1.6c-1.03,0-1.95,.25-2.76,.76-.81,.5-1.45,1.2-1.9,2.09-.46,.89-.69,1.89-.69,3.01s.23,2.13,.69,3.02c.46,.9,1.09,1.6,1.9,2.11,.81,.51,1.73,.77,2.76,.77s1.91-.25,2.72-.76,1.44-1.2,1.9-2.09c.47-.89,.7-1.91,.7-3.07s-.23-2.17-.7-3.05c-.47-.88-1.1-1.56-1.9-2.06-.8-.5-1.71-.74-2.72-.74Z"/>
    <path class="cls-4" d="M418.2,381.22c1.57,0,2.8,.42,3.68,1.27,.89,.85,1.33,2.03,1.33,3.54,0,.8-.17,1.55-.5,2.25s-.84,1.27-1.5,1.71c-.66,.44-1.47,.69-2.42,.74l-.14-.56c.69,0,1.37,.1,2.03,.29,.66,.2,1.26,.51,1.79,.94,.53,.43,.96,.97,1.27,1.61,.32,.64,.48,1.42,.48,2.34,0,.97-.16,1.81-.49,2.51-.33,.7-.77,1.27-1.33,1.71-.56,.44-1.19,.76-1.89,.95s-1.43,.29-2.2,.29h-7.53c-.24,0-.44-.08-.6-.25-.16-.17-.24-.36-.24-.59v-17.92c0-.22,.08-.42,.24-.59,.16-.17,.36-.25,.6-.25h7.42Zm-.25,1.68h-6.55l.34-.53v7.92l-.31-.42h6.55c.97-.02,1.79-.34,2.45-.95,.66-.62,.99-1.53,.99-2.74,0-1.01-.3-1.81-.91-2.39-.61-.59-1.46-.88-2.56-.88Zm.22,8.68h-6.58l.14-.2v8.04l-.17-.25h6.64c1.21,0,2.22-.3,3.02-.91s1.2-1.57,1.2-2.9c0-.93-.2-1.68-.59-2.24-.39-.56-.92-.96-1.57-1.19s-1.35-.35-2.1-.35Z"/>
    <path class="cls-4" d="M432.03,399.98c0,.22-.08,.42-.25,.59s-.36,.25-.59,.25c-.24,0-.44-.08-.6-.25-.16-.17-.24-.36-.24-.59v-19.04c0-.22,.08-.42,.25-.59s.36-.25,.59-.25c.24,0,.44,.08,.6,.25,.16,.17,.24,.36,.24,.59v19.04Z"/>
    <path class="cls-4" d="M450.87,386.51c.24,0,.44,.08,.6,.25,.16,.17,.24,.37,.24,.62v12.6c0,.22-.08,.42-.25,.59s-.36,.25-.59,.25c-.26,0-.47-.08-.62-.25s-.22-.36-.22-.59v-3.33l.48-.2c0,.5-.14,1.03-.43,1.58-.29,.55-.69,1.05-1.19,1.51-.5,.46-1.1,.83-1.78,1.12s-1.41,.43-2.2,.43c-1.27,0-2.4-.33-3.4-.98-1-.65-1.78-1.55-2.35-2.69s-.85-2.42-.85-3.84,.29-2.74,.87-3.85c.58-1.11,1.36-1.98,2.35-2.62,.99-.63,2.1-.95,3.33-.95,.8,0,1.55,.14,2.25,.42,.7,.28,1.31,.66,1.83,1.15s.93,1.04,1.23,1.67c.3,.63,.45,1.27,.45,1.95l-.59-.42v-3.56c0-.24,.08-.45,.22-.62s.35-.25,.62-.25Zm-5.82,13.02c.99,0,1.87-.26,2.63-.77s1.37-1.22,1.81-2.13,.66-1.92,.66-3.04-.22-2.07-.66-2.95-1.04-1.59-1.81-2.1c-.77-.51-1.64-.77-2.63-.77s-1.84,.25-2.62,.74c-.77,.49-1.38,1.18-1.82,2.06-.44,.88-.66,1.89-.66,3.02s.22,2.13,.66,3.04,1.04,1.61,1.81,2.13c.76,.51,1.64,.77,2.63,.77Z"/>
    <path class="cls-4" d="M467.59,399.25c.22,0,.42,.08,.57,.24,.16,.16,.24,.34,.24,.55,0,.22-.08,.41-.24,.56-.16,.15-.35,.22-.57,.22h-9.1c-.26,0-.46-.09-.6-.28-.14-.19-.21-.36-.21-.53,0-.11,.02-.22,.06-.32,.04-.1,.09-.21,.17-.32l8.51-11.73,.08,.28h-7.31c-.22,0-.42-.08-.57-.24-.16-.16-.24-.35-.24-.57,0-.21,.08-.39,.24-.55,.16-.16,.35-.24,.57-.24h8.57c.22,0,.42,.08,.57,.25,.16,.17,.24,.37,.24,.62,0,.09-.02,.19-.06,.28-.04,.09-.09,.2-.17,.31l-8.43,11.62-.34-.14h8.01Z"/>
    <path class="cls-4" d="M475.35,384.38c-.39,0-.69-.09-.88-.27-.2-.18-.29-.43-.29-.77v-.28c0-.34,.11-.59,.32-.77,.21-.18,.51-.27,.88-.27,.35,0,.63,.09,.83,.27,.2,.18,.29,.43,.29,.77v.28c0,.34-.1,.59-.29,.77-.2,.18-.48,.27-.85,.27Zm.84,15.6c0,.22-.08,.42-.25,.59s-.36,.25-.59,.25c-.26,0-.47-.08-.62-.25s-.22-.36-.22-.59v-12.88c0-.22,.08-.42,.24-.59,.16-.17,.36-.25,.6-.25s.44,.08,.6,.25c.16,.17,.24,.36,.24,.59v12.88Z"/>
    <path class="cls-4" d="M489.82,386.17c1.23,0,2.22,.25,2.95,.74,.74,.5,1.27,1.17,1.6,2.02s.49,1.79,.49,2.81v8.23c0,.22-.08,.42-.25,.59s-.36,.25-.59,.25c-.26,0-.47-.08-.63-.25-.16-.17-.24-.36-.24-.59v-8.15c0-.75-.12-1.43-.36-2.04s-.63-1.11-1.18-1.47c-.54-.36-1.26-.55-2.16-.55-.8,0-1.56,.18-2.28,.55-.72,.36-1.3,.85-1.75,1.47-.45,.62-.67,1.3-.67,2.04v8.15c0,.22-.08,.42-.25,.59s-.36,.25-.59,.25c-.26,0-.47-.08-.63-.25s-.24-.36-.24-.59v-12.54c0-.22,.08-.42,.25-.59s.37-.25,.62-.25,.44,.08,.6,.25c.16,.17,.24,.36,.24,.59v2.35l-.64,1.01c.04-.6,.23-1.17,.57-1.72,.34-.55,.79-1.04,1.33-1.48,.54-.44,1.14-.78,1.81-1.04,.66-.25,1.33-.38,2-.38Z"/>
    <path class="cls-4" d="M507.74,386.17c.82,0,1.59,.14,2.3,.43,.71,.29,1.33,.66,1.86,1.12s.95,.94,1.25,1.46c.3,.51,.45,1,.45,1.47l-.45-.67v-2.6c0-.24,.08-.45,.24-.62,.16-.17,.36-.25,.6-.25,.26,0,.47,.08,.62,.25s.22,.37,.22,.62v12.15c0,1.47-.31,2.73-.92,3.75s-1.45,1.81-2.51,2.34-2.25,.8-3.6,.8c-.65,0-1.34-.08-2.06-.25s-1.33-.38-1.85-.64c-.51-.26-.8-.53-.85-.81-.15-.17-.22-.33-.21-.49,0-.16,.09-.29,.24-.41,.17-.13,.36-.14,.57-.04,.21,.1,.53,.24,.94,.41,.17,.06,.42,.14,.74,.25,.33,.11,.71,.21,1.15,.29,.44,.08,.9,.13,1.39,.13,1.66,0,2.96-.48,3.89-1.44,.93-.96,1.4-2.22,1.4-3.77v-2.69l.31,.08c-.17,.65-.45,1.23-.84,1.74-.39,.5-.84,.93-1.36,1.27-.51,.34-1.07,.61-1.68,.78-.61,.18-1.21,.27-1.81,.27-1.29,0-2.45-.33-3.49-.98-1.04-.65-1.85-1.54-2.45-2.66s-.9-2.4-.9-3.84,.3-2.69,.9-3.82c.6-1.13,1.41-2.02,2.44-2.66,1.03-.64,2.18-.97,3.47-.97Zm.2,1.6c-1.03,0-1.95,.25-2.76,.76-.81,.5-1.45,1.2-1.9,2.09-.46,.89-.69,1.89-.69,3.01s.23,2.13,.69,3.02c.46,.9,1.09,1.6,1.9,2.11,.81,.51,1.73,.77,2.76,.77s1.91-.25,2.72-.76,1.44-1.2,1.9-2.09c.47-.89,.7-1.91,.7-3.07s-.23-2.17-.7-3.05c-.47-.88-1.1-1.56-1.9-2.06-.8-.5-1.71-.74-2.72-.74Z"/>
    <path class="cls-4" d="M534.12,399.95c-.02,.24-.12,.45-.29,.62-.18,.17-.38,.25-.6,.25-.28,0-.5-.08-.64-.25-.15-.17-.22-.37-.22-.62v-17.86c0-.24,.08-.45,.25-.62s.38-.25,.64-.25c.22,0,.42,.08,.6,.25s.27,.37,.27,.62v17.86Z"/>
    <path class="cls-4" d="M548.2,386.17c1.23,0,2.22,.25,2.95,.74,.74,.5,1.27,1.17,1.6,2.02s.49,1.79,.49,2.81v8.23c0,.22-.08,.42-.25,.59s-.36,.25-.59,.25c-.26,0-.47-.08-.63-.25-.16-.17-.24-.36-.24-.59v-8.15c0-.75-.12-1.43-.36-2.04s-.63-1.11-1.18-1.47c-.54-.36-1.26-.55-2.16-.55-.8,0-1.56,.18-2.28,.55-.72,.36-1.3,.85-1.75,1.47-.45,.62-.67,1.3-.67,2.04v8.15c0,.22-.08,.42-.25,.59s-.36,.25-.59,.25c-.26,0-.47-.08-.63-.25s-.24-.36-.24-.59v-12.54c0-.22,.08-.42,.25-.59s.37-.25,.62-.25,.44,.08,.6,.25c.16,.17,.24,.36,.24,.59v2.35l-.64,1.01c.04-.6,.23-1.17,.57-1.72,.34-.55,.79-1.04,1.33-1.48,.54-.44,1.14-.78,1.81-1.04,.66-.25,1.33-.38,2-.38Z"/>
    <path class="cls-4" d="M566.9,386.17c1.23,0,2.22,.25,2.95,.74,.74,.5,1.27,1.17,1.6,2.02s.49,1.79,.49,2.81v8.23c0,.22-.08,.42-.25,.59s-.36,.25-.59,.25c-.26,0-.47-.08-.63-.25-.16-.17-.24-.36-.24-.59v-8.15c0-.75-.12-1.43-.36-2.04s-.63-1.11-1.18-1.47c-.54-.36-1.26-.55-2.16-.55-.8,0-1.56,.18-2.28,.55-.72,.36-1.3,.85-1.75,1.47-.45,.62-.67,1.3-.67,2.04v8.15c0,.22-.08,.42-.25,.59s-.36,.25-.59,.25c-.26,0-.47-.08-.63-.25s-.24-.36-.24-.59v-12.54c0-.22,.08-.42,.25-.59s.37-.25,.62-.25,.44,.08,.6,.25c.16,.17,.24,.36,.24,.59v2.35l-.64,1.01c.04-.6,.23-1.17,.57-1.72,.34-.55,.79-1.04,1.33-1.48,.54-.44,1.14-.78,1.81-1.04,.66-.25,1.33-.38,2-.38Z"/>
    <path class="cls-4" d="M592.19,393.65c0,1.42-.31,2.69-.92,3.82-.62,1.13-1.46,2.02-2.52,2.66-1.06,.64-2.28,.97-3.64,.97s-2.52-.32-3.6-.97c-1.07-.64-1.92-1.53-2.55-2.66-.62-1.13-.94-2.4-.94-3.82s.31-2.72,.94-3.84c.63-1.12,1.47-2.01,2.55-2.66,1.07-.65,2.27-.98,3.6-.98s2.58,.33,3.64,.98c1.06,.65,1.9,1.54,2.52,2.66s.92,2.4,.92,3.84Zm-1.68,0c0-1.14-.23-2.15-.7-3.04-.47-.89-1.11-1.58-1.92-2.09-.81-.5-1.74-.76-2.79-.76s-1.92,.25-2.74,.76-1.47,1.2-1.95,2.09c-.48,.89-.71,1.9-.71,3.04s.24,2.15,.71,3.02c.48,.88,1.12,1.57,1.95,2.09s1.74,.77,2.74,.77,1.97-.26,2.79-.77c.81-.51,1.45-1.21,1.92-2.09,.47-.88,.7-1.89,.7-3.02Z"/>
    <path class="cls-4" d="M597.82,386.2c.15,0,.3,.05,.45,.14,.15,.09,.26,.23,.34,.42l4.9,11.65-.36,.22,5.01-11.87c.15-.37,.42-.55,.81-.53,.19,0,.36,.07,.53,.2s.25,.3,.25,.5c0,.11-.01,.21-.04,.28-.03,.08-.05,.14-.07,.2l-5.49,12.88c-.15,.34-.4,.51-.76,.53-.17,.02-.34-.02-.5-.13s-.28-.24-.34-.41l-5.52-12.85c-.02-.06-.04-.12-.06-.2-.02-.07-.03-.15-.03-.22,0-.21,.07-.39,.22-.56,.15-.17,.36-.25,.64-.25Z"/>
    <path class="cls-4" d="M627.16,386.51c.24,0,.44,.08,.6,.25,.16,.17,.24,.37,.24,.62v12.6c0,.22-.08,.42-.25,.59s-.36,.25-.59,.25c-.26,0-.47-.08-.62-.25s-.22-.36-.22-.59v-3.33l.48-.2c0,.5-.14,1.03-.43,1.58-.29,.55-.69,1.05-1.19,1.51-.5,.46-1.1,.83-1.78,1.12s-1.41,.43-2.2,.43c-1.27,0-2.4-.33-3.4-.98-1-.65-1.78-1.55-2.35-2.69s-.85-2.42-.85-3.84,.29-2.74,.87-3.85c.58-1.11,1.36-1.98,2.35-2.62,.99-.63,2.1-.95,3.33-.95,.8,0,1.55,.14,2.25,.42,.7,.28,1.31,.66,1.83,1.15s.93,1.04,1.23,1.67c.3,.63,.45,1.27,.45,1.95l-.59-.42v-3.56c0-.24,.08-.45,.22-.62s.35-.25,.62-.25Zm-5.82,13.02c.99,0,1.87-.26,2.63-.77s1.37-1.22,1.81-2.13,.66-1.92,.66-3.04-.22-2.07-.66-2.95-1.04-1.59-1.81-2.1c-.77-.51-1.64-.77-2.63-.77s-1.84,.25-2.62,.74c-.77,.49-1.38,1.18-1.82,2.06-.44,.88-.66,1.89-.66,3.02s.22,2.13,.66,3.04,1.04,1.61,1.81,2.13c.76,.51,1.64,.77,2.63,.77Z"/>
    <path class="cls-4" d="M633.99,386.56h6.52c.22,0,.41,.08,.56,.24,.15,.16,.22,.35,.22,.57s-.07,.41-.22,.56-.34,.22-.56,.22h-6.52c-.22,0-.42-.08-.57-.24-.16-.16-.24-.35-.24-.57s.08-.41,.24-.56c.16-.15,.35-.22,.57-.22Zm2.88-3.95c.24,0,.44,.08,.6,.25,.16,.17,.24,.36,.24,.59v14.06c0,.52,.07,.91,.21,1.18,.14,.26,.32,.43,.55,.52,.22,.08,.45,.13,.67,.13,.15,0,.28-.02,.41-.07s.26-.07,.41-.07c.17,0,.31,.07,.43,.2,.12,.13,.18,.3,.18,.5,0,.26-.15,.48-.45,.66s-.65,.27-1.06,.27c-.17,0-.42-.01-.76-.04s-.68-.13-1.04-.31-.65-.49-.9-.94c-.24-.45-.36-1.09-.36-1.93v-14.14c0-.22,.08-.42,.25-.59s.37-.25,.62-.25Z"/>
    <path class="cls-4" d="M647.71,384.38c-.39,0-.69-.09-.88-.27-.2-.18-.29-.43-.29-.77v-.28c0-.34,.11-.59,.32-.77,.21-.18,.51-.27,.88-.27,.35,0,.63,.09,.83,.27,.2,.18,.29,.43,.29,.77v.28c0,.34-.1,.59-.29,.77-.2,.18-.48,.27-.85,.27Zm.84,15.6c0,.22-.08,.42-.25,.59s-.36,.25-.59,.25c-.26,0-.47-.08-.62-.25s-.22-.36-.22-.59v-12.88c0-.22,.08-.42,.24-.59,.16-.17,.36-.25,.6-.25s.44,.08,.6,.25c.16,.17,.24,.36,.24,.59v12.88Z"/>
    <path class="cls-4" d="M668.77,393.65c0,1.42-.31,2.69-.92,3.82-.62,1.13-1.46,2.02-2.52,2.66-1.06,.64-2.28,.97-3.64,.97s-2.52-.32-3.6-.97c-1.07-.64-1.92-1.53-2.55-2.66-.62-1.13-.94-2.4-.94-3.82s.31-2.72,.94-3.84c.63-1.12,1.47-2.01,2.55-2.66,1.07-.65,2.27-.98,3.6-.98s2.58,.33,3.64,.98c1.06,.65,1.9,1.54,2.52,2.66s.92,2.4,.92,3.84Zm-1.68,0c0-1.14-.23-2.15-.7-3.04-.47-.89-1.11-1.58-1.92-2.09-.81-.5-1.74-.76-2.79-.76s-1.92,.25-2.74,.76-1.47,1.2-1.95,2.09c-.48,.89-.71,1.9-.71,3.04s.24,2.15,.71,3.02c.48,.88,1.12,1.57,1.95,2.09s1.74,.77,2.74,.77,1.97-.26,2.79-.77c.81-.51,1.45-1.21,1.92-2.09,.47-.88,.7-1.89,.7-3.02Z"/>
    <path class="cls-4" d="M681.62,386.17c1.23,0,2.22,.25,2.95,.74,.74,.5,1.27,1.17,1.6,2.02s.49,1.79,.49,2.81v8.23c0,.22-.08,.42-.25,.59s-.36,.25-.59,.25c-.26,0-.47-.08-.63-.25-.16-.17-.24-.36-.24-.59v-8.15c0-.75-.12-1.43-.36-2.04s-.63-1.11-1.18-1.47c-.54-.36-1.26-.55-2.16-.55-.8,0-1.56,.18-2.28,.55-.72,.36-1.3,.85-1.75,1.47-.45,.62-.67,1.3-.67,2.04v8.15c0,.22-.08,.42-.25,.59s-.36,.25-.59,.25c-.26,0-.47-.08-.63-.25s-.24-.36-.24-.59v-12.54c0-.22,.08-.42,.25-.59s.37-.25,.62-.25,.44,.08,.6,.25c.16,.17,.24,.36,.24,.59v2.35l-.64,1.01c.04-.6,.23-1.17,.57-1.72,.34-.55,.79-1.04,1.33-1.48,.54-.44,1.14-.78,1.81-1.04,.66-.25,1.33-.38,2-.38Z"/>
    <path class="cls-4" d="M718.47,382.67c.22,.15,.35,.34,.39,.57,.04,.23-.03,.46-.2,.69-.13,.19-.29,.28-.49,.29-.2,0-.4-.03-.6-.13-.69-.47-1.45-.83-2.27-1.09-.82-.26-1.69-.39-2.6-.39-1.14,0-2.2,.21-3.18,.62-.98,.41-1.83,.99-2.56,1.74-.73,.75-1.29,1.63-1.69,2.66-.4,1.03-.6,2.16-.6,3.39s.21,2.42,.62,3.46c.41,1.04,.98,1.93,1.72,2.67,.74,.75,1.59,1.32,2.56,1.71s2.02,.59,3.14,.59c.91,0,1.78-.13,2.59-.39,.81-.26,1.57-.62,2.28-1.06,.19-.11,.38-.15,.59-.13s.38,.14,.53,.32c.15,.21,.21,.43,.17,.67-.04,.24-.16,.42-.36,.53-.47,.3-1.02,.58-1.65,.85-.63,.27-1.31,.48-2.02,.63-.71,.15-1.42,.22-2.13,.22-1.34,0-2.61-.24-3.79-.73s-2.23-1.17-3.14-2.06c-.91-.89-1.62-1.95-2.14-3.18-.52-1.23-.78-2.6-.78-4.12s.26-2.79,.77-4c.51-1.21,1.22-2.27,2.11-3.18,.9-.9,1.94-1.61,3.14-2.11s2.47-.76,3.84-.76c1.06,0,2.09,.15,3.08,.45,.99,.3,1.88,.72,2.69,1.26Z"/>
    <path class="cls-4" d="M725.8,381.22c.13,0,.27,.03,.41,.1s.26,.15,.35,.27l7.73,11.59-.76-.03,7.76-11.56c.21-.28,.46-.4,.76-.36,.22,0,.42,.08,.57,.24,.16,.16,.24,.36,.24,.6v17.92c0,.22-.09,.42-.27,.59s-.39,.25-.63,.25-.45-.08-.62-.25-.25-.36-.25-.59v-16.21l.5,.06-7.08,10.72c-.06,.11-.14,.2-.27,.27-.12,.07-.25,.1-.38,.1s-.26-.03-.38-.1c-.12-.07-.22-.15-.29-.27l-7.11-10.84,.53-.36v16.63c0,.22-.08,.42-.24,.59-.16,.17-.36,.25-.6,.25s-.44-.08-.59-.25c-.15-.17-.22-.36-.22-.59v-17.92c0-.21,.08-.4,.24-.57,.16-.18,.36-.27,.6-.27Z"/>
    <path class="cls-4" d="M756.01,401.1c-1.42,.02-2.65-.2-3.7-.66-1.05-.46-2.04-1.15-3-2.09-.09-.09-.17-.2-.24-.31-.07-.11-.1-.24-.1-.39,0-.22,.09-.43,.27-.62,.18-.19,.38-.28,.6-.28s.43,.09,.62,.28c.73,.78,1.55,1.38,2.48,1.79,.92,.41,1.92,.62,2.98,.62,.9,0,1.69-.14,2.39-.42,.7-.28,1.26-.68,1.67-1.2,.41-.52,.62-1.13,.62-1.82-.02-.86-.26-1.55-.71-2.07-.46-.52-1.07-.96-1.83-1.32-.77-.35-1.62-.66-2.55-.92-.77-.24-1.5-.51-2.2-.8s-1.32-.64-1.85-1.06c-.53-.42-.95-.94-1.25-1.55-.3-.62-.45-1.35-.45-2.21,0-.99,.26-1.87,.78-2.65,.52-.77,1.26-1.38,2.23-1.82,.96-.44,2.08-.66,3.35-.66,1.1,0,2.16,.19,3.18,.56,1.02,.37,1.82,.92,2.42,1.65,.28,.3,.42,.57,.42,.81,0,.21-.09,.4-.28,.57-.19,.18-.39,.27-.62,.27-.19,0-.35-.07-.48-.2-.32-.39-.72-.74-1.2-1.05-.49-.31-1.02-.55-1.61-.71-.59-.17-1.2-.25-1.83-.25-.88,0-1.67,.13-2.37,.41-.7,.27-1.25,.66-1.65,1.16s-.6,1.12-.6,1.85c0,.78,.22,1.42,.67,1.92,.45,.49,1.04,.91,1.76,1.23,.73,.33,1.5,.63,2.32,.91,.8,.22,1.57,.48,2.31,.77,.74,.29,1.39,.65,1.96,1.08,.57,.43,1.02,.97,1.34,1.62,.33,.65,.49,1.47,.49,2.46s-.27,1.81-.81,2.58c-.54,.77-1.28,1.37-2.23,1.82s-2.05,.68-3.32,.7Z"/>
  </g>
  <path class="cls-4" d="M210.19,104.1h15.05c16.56,0,30,13.44,30,30v222.29h-15.05c-16.56,0-30-13.44-30-30V104.1h0Z"/>
  <path class="cls-4" d="M213.5,38.45h8.43c16.56,0,30,13.44,30,30V208.17h-8.43c-16.56,0-30-13.44-30-30V38.45h0Z" transform="translate(109.4 356.03) rotate(-90)"/>
  <path class="cls-3" d="M413.4,104.1l-112,112c-7.81,7.81-7.81,20.47,0,28.28l112,112,112-112c7.81-7.81,7.81-20.47,0-28.28l-112-112Zm-54.26,112l54.26-54.26,54.26,54.26c7.81,7.81,7.81,20.47,0,28.28l-54.26,54.26-54.26-54.26c-7.81-7.81-7.81-20.47,0-28.28Z"/>
  <path class="cls-1" d="M442.27,132.97l-28.87,28.87,54.12,54.68c7.75,7.83,7.71,20.45-.09,28.23l-54.03,53.9,28.87,29.12,83.06-83.27c7.79-7.81,7.79-20.44,0-28.25l-83.06-83.27Z"/>
  <path class="cls-3" d="M650.45,230.53c15.93-17.06,42.87-37.11,42.23-64.88,.47-12.38-3.39-24.55-10.25-34.72-2.06-3.12-4.42-6.06-7.08-8.75-10.98-11.51-25.91-17.97-41.83-17.55,0,0-110.52,0-110.52,0v49.47c0,5.3,2.11,10.39,5.86,14.14l48.15,48.15c7.81,7.81,7.81,20.47,0,28.28l-48.15,48.15c-3.75,3.75-5.86,8.84-5.86,14.14v49.47s110.52,0,110.52,0c15.92,.42,30.85-6.04,41.83-17.55,2.66-2.68,5.02-5.62,7.08-8.75,6.86-10.16,10.71-22.33,10.25-34.72,.65-27.77-26.3-47.83-42.23-64.88Zm-19.25-88.02c5.1-.04,9.76,.82,13.68,3.26,1.93,1.3,3.64,2.88,5.08,4.68,.11,.15,.23,.28,.34,.44,0,0,0,.01,.01,.02,3.77,4.98,5.43,11.51,3.49,18.19-3.8,10.47-22.5,26.1-30.9,35.43l-44.84-44.84c-6.29-6.29-1.85-17.05,7.05-17.07l46.1-.11Zm19.11,167.64s0,.01-.01,.02c-.11,.15-.22,.29-.34,.44-1.44,1.8-3.16,3.39-5.08,4.68-3.92,2.44-8.58,3.3-13.68,3.26l-46.1-.11c-8.9-.02-13.34-10.78-7.05-17.07l44.84-44.84c8.4,9.33,27.11,24.96,30.9,35.43,1.94,6.68,.28,13.21-3.49,18.19Z"/>
  <path class="cls-6" d="M528.86,168.24l48.15,48.15c7.73,7.73,7.8,20.22,.22,28.04l45.68-39.9-40.68-40.68-4.16-4.16h0s-55.06-55.06-55.06-55.06v49.47c0,5.3,2.11,10.39,5.86,14.14Z"/>
  <path class="cls-7" d="M675.35,338.87c2.66-2.68,5.02-5.62,7.08-8.75,6.86-10.16,10.71-22.33,10.25-34.72,.65-27.77-26.3-47.83-42.23-64.88l-27.55,26c8.4,9.33,27.11,24.96,30.9,35.43,1.94,6.68,.28,13.21-3.49,18.19,0,0,0,.01-.01,.02-.11,.15-.22,.29-.34,.44-1.44,1.8-3.16,3.39-5.08,4.68-3.92,2.44-8.58,3.3-13.68,3.26l-70.16-.17-38.05,38.05s110.52,0,110.52,0c15.92,.42,30.85-6.04,41.83-17.55Z"/>
  <path class="cls-4" d="M720.27,104.38h8.43c16.56,0,30,13.44,30,30v222.29h-8.43c-16.56,0-30-13.44-30-30V104.38h0Z"/>
  <g>
    <path class="cls-2" d="M729.62,280.1c.29-.57,.73-.9,1.35-1s1.17,.06,1.68,.48c.39,.29,.61,.65,.66,1.1,.04,.45-.04,.9-.26,1.37-.24,.53-.43,1.08-.56,1.66-.13,.58-.2,1.19-.2,1.83,0,1.18,.19,2.24,.56,3.18,.37,.93,.91,1.73,1.6,2.38,.69,.66,1.51,1.16,2.45,1.5,.94,.34,1.99,.51,3.13,.51,1.34,0,2.5-.19,3.49-.58,.99-.38,1.81-.92,2.47-1.6s1.15-1.48,1.46-2.4c.32-.92,.48-1.92,.48-2.99,0-.59-.05-1.18-.17-1.78-.11-.59-.31-1.16-.59-1.71-.22-.46-.3-.92-.23-1.37,.07-.45,.3-.83,.69-1.13,.55-.44,1.11-.6,1.69-.48,.58,.12,1,.46,1.27,1,.29,.57,.52,1.16,.71,1.76,.19,.6,.33,1.21,.43,1.83s.15,1.24,.15,1.88c0,1.58-.25,3.08-.76,4.49-.5,1.42-1.25,2.68-2.24,3.78s-2.22,1.98-3.7,2.62c-1.48,.64-3.2,.95-5.15,.95-1.69,0-3.25-.29-4.67-.87s-2.66-1.4-3.7-2.47c-1.04-1.06-1.85-2.32-2.44-3.77-.58-1.45-.87-3.03-.87-4.74,0-.96,.11-1.91,.33-2.83,.22-.92,.54-1.79,.95-2.6Z"/>
    <path class="cls-2" d="M728.47,237c0-.31,.08-.63,.25-.97,.17-.34,.38-.6,.64-.77l12.31-8-.07,1.65-12.24-8.19c-.59-.42-.89-.95-.89-1.61,0-.53,.19-1,.56-1.41s.86-.62,1.45-.62h19.05c.57,0,1.05,.19,1.43,.56,.38,.37,.58,.87,.58,1.48s-.19,1.11-.58,1.5c-.38,.38-.86,.58-1.43,.58h-15.5l.3-1.28,10.23,6.71c.24,.2,.45,.44,.63,.74s.25,.6,.23,.91c.02,.29-.05,.58-.23,.87-.18,.3-.38,.54-.63,.74l-9.94,6.28-1.74-.86h16.65c.57,0,1.05,.18,1.43,.53,.38,.35,.58,.81,.58,1.38s-.19,1-.58,1.35c-.38,.35-.86,.53-1.43,.53h-19.05c-.55,0-1.02-.2-1.42-.61-.39-.41-.59-.89-.59-1.46Z"/>
    <path class="cls-2" d="M751.86,168.2c0,1.54-.19,2.92-.58,4.15-.38,1.23-1.06,2.4-2.02,3.52-.24,.29-.51,.5-.82,.66-.31,.15-.61,.23-.92,.23-.5,0-.95-.18-1.33-.54-.38-.36-.58-.82-.58-1.37,0-.42,.13-.79,.39-1.12,.68-.83,1.2-1.66,1.55-2.48,.35-.82,.53-1.84,.53-3.04,0-.81-.13-1.56-.38-2.24s-.59-1.23-1.02-1.65c-.43-.42-.92-.62-1.46-.62-.66,0-1.22,.2-1.68,.59-.46,.4-.85,1-1.17,1.81-.32,.81-.56,1.84-.74,3.09-.18,1.18-.44,2.23-.81,3.13-.36,.9-.82,1.65-1.38,2.25-.56,.6-1.22,1.06-1.97,1.37-.76,.31-1.61,.46-2.55,.46-1.43,0-2.64-.37-3.65-1.1-1.01-.73-1.78-1.73-2.3-2.98s-.79-2.63-.79-4.15c0-1.43,.21-2.75,.64-3.96,.43-1.22,.97-2.21,1.63-2.98,.5-.64,1.09-.95,1.74-.95,.48,0,.92,.19,1.32,.56s.59,.81,.59,1.32c0,.33-.1,.63-.3,.89-.31,.35-.6,.82-.87,1.42-.27,.59-.5,1.22-.69,1.88s-.28,1.27-.28,1.84c0,.94,.12,1.74,.36,2.39,.24,.65,.57,1.13,.99,1.46,.42,.33,.9,.49,1.45,.49,.66,0,1.2-.19,1.63-.58s.77-.94,1.02-1.66,.48-1.59,.67-2.6c.24-1.32,.53-2.47,.86-3.47s.75-1.83,1.27-2.48c.52-.66,1.16-1.15,1.94-1.48,.78-.33,1.73-.49,2.85-.49,1.43,0,2.65,.39,3.69,1.18,1.03,.79,1.82,1.83,2.37,3.11,.55,1.28,.82,2.67,.82,4.16Z"/>
  </g>
  <path class="cls-5" d="M692.68,295.41c.65-27.77-26.3-47.83-42.23-64.88l-27.55,26c8.46,9.35,27.13,25.02,30.9,35.43,1.94,6.68,.28,13.21-3.49,18.19,0,0,0,.01-.01,.02-.11,.15-.22,.29-.34,.44-1.44,1.8-3.16,3.39-5.08,4.68-3.92,2.44-8.58,3.3-13.68,3.26l-46.1-.11c-8.33-.02-12.76-9.46-8.11-15.83l-53.57,53.82c7.36,0,110.09,0,110.09,0,15.92,.42,30.85-6.04,41.83-17.55,2.66-2.68,5.02-5.62,7.08-8.75,6.86-10.16,10.71-22.33,10.25-34.72Z"/>
</svg>