<svg width="65" height="32" viewBox="0 0 65 32" fill="none" xmlns="http://www.w3.org/2000/svg">
<path d="M0.0883277 29.5009C0.0651942 29.5009 0.044164 29.4935 0.0262881 29.4776C0.0084122 29.4618 0 29.4416 0 29.4184C0 29.393 0.0084122 29.3718 0.0262881 29.3559C0.044164 29.34 0.0641426 29.3326 0.0883277 29.3326H1.48686C1.51209 29.3326 1.53418 29.34 1.55205 29.3559C1.56993 29.3718 1.57834 29.393 1.57834 29.4184C1.57834 29.4438 1.56993 29.4639 1.55205 29.4787C1.53418 29.4935 1.51314 29.5009 1.48686 29.5009H0.0883277ZM0.788644 31.4062C0.761304 31.4062 0.738171 31.3977 0.721346 31.3797C0.70347 31.3617 0.695058 31.3416 0.695058 31.3173V29.4289H0.880127V31.3173C0.880127 31.3406 0.871715 31.3617 0.853839 31.3797C0.835963 31.3977 0.814932 31.4062 0.788644 31.4062Z" fill="#231F20"/>
<path d="M2.8612 29.8809C2.98528 29.8809 3.08517 29.9074 3.16194 29.9614C3.2387 30.0143 3.29443 30.0873 3.33123 30.1773C3.36698 30.2683 3.38591 30.3689 3.38591 30.48V31.3183C3.38591 31.3416 3.3775 31.3628 3.35962 31.3808C3.34175 31.3988 3.32177 31.4072 3.29758 31.4072C3.27024 31.4072 3.24816 31.3988 3.23134 31.3808C3.21451 31.3628 3.2061 31.3427 3.2061 31.3183V30.48C3.2061 30.3985 3.19348 30.3265 3.1693 30.262C3.14511 30.1974 3.10515 30.1455 3.05153 30.1064C2.9979 30.0672 2.92429 30.0471 2.83176 30.0471C2.74974 30.0471 2.67087 30.0672 2.59727 30.1064C2.52366 30.1455 2.46372 30.1974 2.41956 30.262C2.37434 30.3265 2.35226 30.3985 2.35226 30.48V31.3183C2.35226 31.3416 2.34385 31.3628 2.32597 31.3808C2.3081 31.3988 2.28812 31.4072 2.26393 31.4072C2.23659 31.4072 2.21451 31.3988 2.19769 31.3808C2.18086 31.3628 2.17245 31.3427 2.17245 31.3183V29.303C2.17245 29.2797 2.18086 29.2585 2.19874 29.2405C2.21661 29.2225 2.23764 29.2141 2.26393 29.2141C2.29022 29.2141 2.3102 29.2225 2.32702 29.2405C2.34385 29.2585 2.35226 29.2786 2.35226 29.303V30.263L2.28496 30.3668C2.28917 30.3054 2.3081 30.2461 2.3428 30.1879C2.3775 30.1297 2.42166 30.0778 2.47634 30.0312C2.53102 29.9846 2.59201 29.9487 2.65931 29.9211C2.7266 29.8936 2.7939 29.8809 2.86225 29.8809H2.8612Z" fill="#231F20"/>
<path d="M4.79285 31.4369C4.64143 31.4369 4.50789 31.4041 4.39222 31.3395C4.27655 31.2739 4.18612 31.1839 4.12093 31.0664C4.05573 30.9489 4.02419 30.8134 4.02419 30.6578C4.02419 30.4895 4.05678 30.3466 4.12303 30.2281C4.18928 30.1095 4.27445 30.0185 4.3796 29.954C4.48475 29.8894 4.59622 29.8576 4.71399 29.8576C4.80021 29.8576 4.88433 29.8724 4.9653 29.9031C5.04627 29.9338 5.11882 29.9794 5.18297 30.0397C5.24711 30.1 5.29758 30.1731 5.33649 30.2609C5.37434 30.3477 5.39537 30.4483 5.39958 30.5636C5.39748 30.5869 5.38801 30.6081 5.37014 30.624C5.35226 30.6409 5.33228 30.6494 5.3081 30.6494H4.12723L4.09148 30.4895H5.25132L5.21346 30.5255V30.4663C5.204 30.3731 5.1735 30.2948 5.12198 30.2302C5.07045 30.1656 5.00946 30.117 4.93796 30.082C4.86646 30.0471 4.79075 30.0302 4.71293 30.0302C4.65405 30.0302 4.59411 30.0418 4.53207 30.0661C4.47003 30.0894 4.4143 30.1265 4.36383 30.1773C4.31335 30.2281 4.2734 30.2916 4.24185 30.3699C4.2103 30.4483 4.19453 30.5404 4.19453 30.6473C4.19453 30.7637 4.21767 30.8695 4.26498 30.9648C4.3123 31.0601 4.38065 31.1352 4.47003 31.1903C4.55941 31.2453 4.66562 31.2728 4.7897 31.2728C4.85805 31.2728 4.92008 31.2633 4.97371 31.2432C5.02734 31.2231 5.07571 31.1977 5.11777 31.1649C5.15983 31.132 5.19453 31.0982 5.22187 31.0622C5.24395 31.0442 5.26393 31.0357 5.28391 31.0357C5.30599 31.0357 5.32387 31.0442 5.33859 31.059C5.35331 31.0738 5.36067 31.0929 5.36067 31.1119C5.36067 31.1352 5.35121 31.1564 5.33123 31.1744C5.27235 31.2453 5.19558 31.3077 5.102 31.3596C5.00736 31.4115 4.90431 31.4379 4.79285 31.4379V31.4369Z" fill="#231F20"/>
<path d="M8.99159 30.3699C8.99159 30.5255 8.9674 30.6684 8.91903 30.7986C8.87066 30.9278 8.80231 31.041 8.71399 31.1363C8.62566 31.2315 8.52156 31.3067 8.40063 31.3586C8.27971 31.4104 8.14827 31.4369 8.00421 31.4369C7.86015 31.4369 7.7266 31.4104 7.60673 31.3586C7.48686 31.3067 7.38276 31.2326 7.29443 31.1363C7.2061 31.04 7.13775 30.9278 7.08833 30.7986C7.03891 30.6695 7.01472 30.5266 7.01472 30.3699C7.01472 30.2133 7.03891 30.0714 7.08833 29.9412C7.13775 29.8111 7.2061 29.6989 7.29443 29.6036C7.38276 29.5073 7.48686 29.4332 7.60673 29.3813C7.7266 29.3284 7.8591 29.303 8.00421 29.303C8.14932 29.303 8.27971 29.3294 8.40063 29.3813C8.52156 29.4332 8.62566 29.5073 8.71399 29.6036C8.80231 29.6999 8.87066 29.8121 8.91903 29.9412C8.9674 30.0704 8.99159 30.2133 8.99159 30.3699ZM8.80337 30.3699C8.80337 30.1942 8.76867 30.0397 8.70032 29.9063C8.63197 29.773 8.53838 29.6682 8.41956 29.5941C8.30074 29.5189 8.16299 29.4819 8.00631 29.4819C7.84963 29.4819 7.71293 29.52 7.59306 29.5941C7.47319 29.6682 7.37855 29.773 7.3102 29.9063C7.2429 30.0397 7.2082 30.1942 7.2082 30.3699C7.2082 30.5456 7.24185 30.7002 7.3102 30.8335C7.3775 30.9669 7.47214 31.0717 7.59306 31.1458C7.71399 31.221 7.85174 31.258 8.00631 31.258C8.16088 31.258 8.30074 31.221 8.41956 31.1458C8.53838 31.0706 8.63197 30.9669 8.70032 30.8335C8.76867 30.7002 8.80337 30.5456 8.80337 30.3699Z" fill="#231F20"/>
<path d="M10.755 29.901C10.7802 29.901 10.8013 29.9095 10.8181 29.9275C10.8349 29.9455 10.8433 29.9656 10.8433 29.9899V30.8261C10.8433 31.022 10.7886 31.1712 10.6782 31.2739C10.5689 31.3765 10.4206 31.4284 10.2334 31.4284C10.0463 31.4284 9.89905 31.3765 9.79075 31.2739C9.68244 31.1712 9.62776 31.022 9.62776 30.8261V29.9899C9.62776 29.9667 9.63617 29.9455 9.65405 29.9275C9.67192 29.9095 9.69296 29.901 9.71924 29.901C9.74553 29.901 9.76551 29.9095 9.78234 29.9275C9.79916 29.9455 9.80757 29.9656 9.80757 29.9899V30.8261C9.80757 30.968 9.84543 31.077 9.92114 31.1511C9.99685 31.2252 10.1009 31.2622 10.2345 31.2622C10.368 31.2622 10.4753 31.2252 10.551 31.1511C10.6267 31.077 10.6646 30.969 10.6646 30.8261V29.9899C10.6646 29.9667 10.673 29.9455 10.6898 29.9275C10.7066 29.9095 10.7287 29.901 10.756 29.901H10.755Z" fill="#231F20"/>
<path d="M11.4732 29.8979H12.1588C12.1819 29.8979 12.2019 29.9063 12.2177 29.9233C12.2334 29.9402 12.2408 29.9603 12.2408 29.9836C12.2408 30.0069 12.2334 30.027 12.2177 30.0429C12.2019 30.0587 12.1819 30.0661 12.1588 30.0661H11.4732C11.4501 30.0661 11.429 30.0577 11.4133 30.0407C11.3964 30.0238 11.388 30.0037 11.388 29.9804C11.388 29.9571 11.3964 29.937 11.4133 29.9211C11.4301 29.9053 11.4501 29.8979 11.4732 29.8979ZM11.776 29.4797C11.8013 29.4797 11.8223 29.4882 11.8391 29.5062C11.8559 29.5242 11.8644 29.5443 11.8644 29.5687V31.0569C11.8644 31.1119 11.8717 31.1532 11.8864 31.1818C11.9012 31.2093 11.9201 31.2273 11.9443 31.2368C11.9674 31.2453 11.9916 31.2506 12.0147 31.2506C12.0305 31.2506 12.0442 31.2485 12.0578 31.2432C12.0715 31.2379 12.0852 31.2358 12.1009 31.2358C12.1188 31.2358 12.1335 31.2432 12.1462 31.2569C12.1588 31.2707 12.1651 31.2887 12.1651 31.3099C12.1651 31.3374 12.1493 31.3607 12.1178 31.3797C12.0862 31.3988 12.0494 31.4083 12.0063 31.4083C11.9884 31.4083 11.9621 31.4072 11.9264 31.4041C11.8906 31.4009 11.8549 31.3903 11.817 31.3713C11.7792 31.3522 11.7487 31.3194 11.7224 31.2718C11.6972 31.2241 11.6845 31.1564 11.6845 31.0675V29.5708C11.6845 29.5475 11.693 29.5263 11.7108 29.5083C11.7287 29.4903 11.7497 29.4819 11.776 29.4819V29.4797Z" fill="#231F20"/>
<path d="M12.8065 31.167C12.7907 31.1437 12.7834 31.1204 12.7844 31.0971C12.7844 31.0749 12.7981 31.0558 12.8212 31.0421C12.837 31.0283 12.8549 31.022 12.8759 31.0241C12.897 31.0262 12.9159 31.0357 12.9338 31.0537C12.9863 31.1225 13.0515 31.1786 13.1262 31.221C13.2019 31.2633 13.2913 31.2845 13.3954 31.2845C13.4501 31.2845 13.5047 31.2749 13.5584 31.2559C13.612 31.2368 13.6572 31.2082 13.6919 31.1701C13.7277 31.132 13.7445 31.0823 13.7445 31.023C13.7445 30.9637 13.7266 30.9129 13.6919 30.8759C13.6562 30.8399 13.6109 30.8103 13.5552 30.787C13.4995 30.7647 13.4385 30.7446 13.3743 30.7288C13.3081 30.7108 13.2429 30.6907 13.1819 30.6684C13.1209 30.6462 13.0641 30.6166 13.0158 30.5827C12.9664 30.5478 12.9285 30.5065 12.8991 30.4567C12.8707 30.407 12.8559 30.3466 12.8559 30.2757C12.8559 30.1932 12.878 30.1201 12.9222 30.0566C12.9664 29.9931 13.0273 29.9444 13.1062 29.9084C13.1851 29.8724 13.2723 29.8555 13.368 29.8555C13.4196 29.8555 13.4732 29.8619 13.53 29.8746C13.5868 29.8873 13.6425 29.9084 13.6982 29.9381C13.7529 29.9677 13.8023 30.0079 13.8454 30.0598C13.8633 30.0778 13.8717 30.0979 13.8717 30.1201C13.8717 30.1424 13.8622 30.1646 13.8423 30.1836C13.8265 30.1953 13.8086 30.2006 13.7876 30.1995C13.7666 30.1995 13.7497 30.19 13.7361 30.1741C13.6887 30.1212 13.633 30.081 13.5678 30.0545C13.5026 30.028 13.4332 30.0143 13.3586 30.0143C13.3018 30.0143 13.2482 30.0228 13.1977 30.0407C13.1472 30.0587 13.1062 30.0863 13.0726 30.1233C13.0389 30.1604 13.0221 30.2101 13.0221 30.2715C13.0263 30.3287 13.0463 30.3752 13.082 30.4112C13.1178 30.4472 13.1661 30.4768 13.2261 30.5001C13.286 30.5234 13.3533 30.5456 13.428 30.5658C13.4911 30.5816 13.551 30.6007 13.6088 30.6219C13.6667 30.6441 13.7182 30.6705 13.7624 30.7034C13.8065 30.7362 13.8423 30.7774 13.8686 30.8261C13.8948 30.8759 13.9085 30.9373 13.9085 31.0124C13.9085 31.0992 13.8843 31.1744 13.836 31.2379C13.7876 31.3014 13.7235 31.349 13.6435 31.3829C13.5636 31.4168 13.4742 31.4337 13.3754 31.4337C13.2692 31.4337 13.1672 31.4125 13.0673 31.3713C12.9685 31.33 12.8801 31.2601 12.8034 31.1638L12.8065 31.167Z" fill="#231F20"/>
<path d="M14.4406 29.8979H15.1262C15.1493 29.8979 15.1693 29.9063 15.1851 29.9233C15.2008 29.9402 15.2082 29.9603 15.2082 29.9836C15.2082 30.0069 15.2008 30.027 15.1851 30.0429C15.1693 30.0587 15.1493 30.0661 15.1262 30.0661H14.4406C14.4175 30.0661 14.3964 30.0577 14.3807 30.0407C14.3638 30.0238 14.3554 30.0037 14.3554 29.9804C14.3554 29.9571 14.3638 29.937 14.3807 29.9211C14.3975 29.9053 14.4175 29.8979 14.4406 29.8979ZM14.7434 29.4797C14.7687 29.4797 14.7897 29.4882 14.8065 29.5062C14.8233 29.5242 14.8318 29.5443 14.8318 29.5687V31.0569C14.8318 31.1119 14.8391 31.1532 14.8538 31.1818C14.8686 31.2093 14.8875 31.2273 14.9117 31.2368C14.9348 31.2453 14.959 31.2506 14.9821 31.2506C14.9979 31.2506 15.0116 31.2485 15.0252 31.2432C15.0389 31.2379 15.0526 31.2358 15.0684 31.2358C15.0862 31.2358 15.1009 31.2432 15.1136 31.2569C15.1262 31.2707 15.1325 31.2887 15.1325 31.3099C15.1325 31.3374 15.1167 31.3607 15.0852 31.3797C15.0536 31.3988 15.0168 31.4083 14.9737 31.4083C14.9558 31.4083 14.9295 31.4072 14.8938 31.4041C14.858 31.4009 14.8223 31.3903 14.7844 31.3713C14.7466 31.3522 14.7161 31.3194 14.6898 31.2718C14.6646 31.2241 14.6519 31.1564 14.6519 31.0675V29.5708C14.6519 29.5475 14.6604 29.5263 14.6782 29.5083C14.6961 29.4903 14.7171 29.4819 14.7434 29.4819V29.4797Z" fill="#231F20"/>
<path d="M17.0347 29.8926C17.0599 29.8926 17.081 29.901 17.0978 29.919C17.1146 29.937 17.123 29.9582 17.123 29.9846V31.3183C17.123 31.3416 17.1146 31.3628 17.0967 31.3808C17.0789 31.3988 17.0589 31.4072 17.0347 31.4072C17.0074 31.4072 16.9853 31.3988 16.9695 31.3808C16.9537 31.3628 16.9464 31.3427 16.9464 31.3183V30.9659L16.9968 30.9447C16.9968 30.9976 16.9821 31.0537 16.9516 31.1119C16.9211 31.1701 16.8791 31.2231 16.8265 31.2718C16.7739 31.3205 16.7108 31.3596 16.6393 31.3903C16.5678 31.421 16.4911 31.4358 16.408 31.4358C16.2744 31.4358 16.1556 31.4009 16.0505 31.3321C15.9453 31.2633 15.8633 31.168 15.8034 31.0474C15.7434 30.9267 15.714 30.7912 15.714 30.6409C15.714 30.4906 15.7445 30.3509 15.8055 30.2334C15.8665 30.1159 15.9485 30.0238 16.0526 29.9561C16.1567 29.8894 16.2734 29.8555 16.4027 29.8555C16.4869 29.8555 16.5657 29.8703 16.6393 29.9C16.7129 29.9296 16.7771 29.9698 16.8318 30.0217C16.8864 30.0736 16.9296 30.1318 16.9611 30.1985C16.9926 30.2651 17.0084 30.3329 17.0084 30.4049L16.9464 30.3604V29.9836C16.9464 29.9582 16.9548 29.936 16.9695 29.918C16.9842 29.9 17.0063 29.8915 17.0347 29.8915V29.8926ZM16.4227 31.2707C16.5268 31.2707 16.6194 31.2432 16.6993 31.1892C16.7792 31.1352 16.8433 31.0601 16.8896 30.9637C16.9359 30.8674 16.959 30.7605 16.959 30.642C16.959 30.5234 16.9359 30.4229 16.8896 30.3297C16.8433 30.2366 16.7802 30.1614 16.6993 30.1074C16.6183 30.0534 16.5268 30.0259 16.4227 30.0259C16.3186 30.0259 16.2292 30.0524 16.1472 30.1043C16.0662 30.1561 16.0021 30.2292 15.9558 30.3223C15.9096 30.4154 15.8864 30.5224 15.8864 30.642C15.8864 30.7616 15.9096 30.8674 15.9558 30.9637C16.0021 31.0601 16.0652 31.1342 16.1462 31.1892C16.2261 31.2432 16.3186 31.2707 16.4227 31.2707Z" fill="#231F20"/>
<path d="M18.5594 29.8566C18.6888 29.8566 18.7929 29.883 18.8696 29.9349C18.9474 29.9878 19.0032 30.0587 19.0379 30.1487C19.0726 30.2387 19.0894 30.3382 19.0894 30.4461V31.3173C19.0894 31.3406 19.081 31.3617 19.0631 31.3797C19.0452 31.3977 19.0252 31.4062 19.0011 31.4062C18.9737 31.4062 18.9516 31.3977 18.9348 31.3797C18.918 31.3617 18.9096 31.3416 18.9096 31.3173V30.4546C18.9096 30.3752 18.897 30.3032 18.8717 30.2387C18.8465 30.1741 18.8055 30.1212 18.7476 30.0831C18.6909 30.045 18.6151 30.0249 18.5205 30.0249C18.4364 30.0249 18.3565 30.0439 18.2808 30.0831C18.205 30.1212 18.1441 30.1731 18.0967 30.2387C18.0494 30.3043 18.0263 30.3763 18.0263 30.4546V31.3173C18.0263 31.3406 18.0179 31.3617 18 31.3797C17.9821 31.3977 17.9621 31.4062 17.938 31.4062C17.9106 31.4062 17.8885 31.3977 17.8717 31.3797C17.8549 31.3617 17.8465 31.3416 17.8465 31.3173V29.9899C17.8465 29.9667 17.8549 29.9455 17.8728 29.9275C17.8906 29.9095 17.9117 29.901 17.938 29.901C17.9643 29.901 17.9842 29.9095 18.0011 29.9275C18.0179 29.9455 18.0263 29.9656 18.0263 29.9899V30.2387L17.959 30.3456C17.9632 30.2821 17.9832 30.2217 18.0189 30.1635C18.0547 30.1053 18.102 30.0534 18.1588 30.0069C18.2156 29.9603 18.2787 29.9243 18.3491 29.8968C18.4185 29.8703 18.489 29.8566 18.5594 29.8566Z" fill="#231F20"/>
<path d="M21.0505 29.2141C21.0757 29.2141 21.0967 29.2225 21.1136 29.2405C21.1304 29.2585 21.1388 29.2786 21.1388 29.303V31.3183C21.1388 31.3416 21.1304 31.3628 21.1125 31.3808C21.0946 31.3988 21.0747 31.4072 21.0505 31.4072C21.0231 31.4072 21.0011 31.3988 20.9853 31.3808C20.9695 31.3628 20.9621 31.3427 20.9621 31.3183V30.9659L21.0126 30.9246C21.0126 30.9817 20.9979 31.041 20.9685 31.1013C20.939 31.1617 20.897 31.2167 20.8433 31.2675C20.7897 31.3183 20.7266 31.3586 20.6551 31.3903C20.5836 31.4221 20.5068 31.4379 20.4238 31.4379C20.2923 31.4379 20.1735 31.403 20.0694 31.3342C19.9643 31.2654 19.8812 31.1712 19.8202 31.0527C19.7592 30.9341 19.7287 30.7986 19.7287 30.6462C19.7287 30.4938 19.7592 30.3615 19.8202 30.2419C19.8812 30.1222 19.9632 30.028 20.0673 29.9603C20.1714 29.8926 20.2881 29.8576 20.4175 29.8576C20.4995 29.8576 20.5773 29.8724 20.6498 29.9021C20.7224 29.9317 20.7865 29.9719 20.8423 30.0238C20.898 30.0757 20.9422 30.1339 20.9748 30.2006C21.0074 30.2673 21.0231 30.335 21.0231 30.407L20.9611 30.3625V29.304C20.9611 29.2808 20.9695 29.2596 20.9842 29.2416C20.999 29.2236 21.021 29.2151 21.0494 29.2151L21.0505 29.2141ZM20.4385 31.2707C20.5447 31.2707 20.6372 31.2432 20.7171 31.1892C20.7971 31.1352 20.8591 31.0611 20.9054 30.9669C20.9516 30.8727 20.9748 30.7658 20.9748 30.6451C20.9748 30.5245 20.9516 30.4207 20.9054 30.3265C20.8591 30.2323 20.796 30.1593 20.715 30.1053C20.6341 30.0513 20.5426 30.0249 20.4385 30.0249C20.3344 30.0249 20.245 30.0513 20.163 30.1053C20.081 30.1593 20.0179 30.2323 19.9716 30.3265C19.9253 30.4207 19.9022 30.5266 19.9022 30.6451C19.9022 30.7637 19.9253 30.8706 19.9716 30.9648C20.0179 31.0601 20.082 31.1342 20.163 31.1881C20.244 31.2421 20.3365 31.2696 20.4385 31.2696V31.2707Z" fill="#231F20"/>
<path d="M21.9485 29.6671C21.9075 29.6671 21.8759 29.6576 21.8559 29.6385C21.8349 29.6195 21.8255 29.593 21.8255 29.557V29.5274C21.8255 29.4914 21.837 29.4649 21.8591 29.4459C21.8812 29.4268 21.9127 29.4173 21.9516 29.4173C21.9884 29.4173 22.0179 29.4268 22.0389 29.4459C22.0599 29.4649 22.0694 29.4914 22.0694 29.5274V29.557C22.0694 29.593 22.0589 29.6195 22.0389 29.6385C22.0179 29.6576 21.9884 29.6671 21.9495 29.6671H21.9485ZM22.0368 31.3183C22.0368 31.3416 22.0284 31.3628 22.0105 31.3808C21.9926 31.3988 21.9727 31.4072 21.9485 31.4072C21.9211 31.4072 21.8991 31.3988 21.8833 31.3808C21.8675 31.3628 21.8601 31.3427 21.8601 31.3183V29.955C21.8601 29.9317 21.8686 29.9106 21.8854 29.8926C21.9022 29.8746 21.9232 29.8661 21.9485 29.8661C21.9737 29.8661 21.9947 29.8746 22.0116 29.8926C22.0284 29.9106 22.0368 29.9307 22.0368 29.955V31.3183Z" fill="#231F20"/>
<path d="M23.4711 29.8566C23.6004 29.8566 23.7045 29.883 23.7813 29.9349C23.8591 29.9878 23.9148 30.0587 23.9495 30.1487C23.9842 30.2387 24.0011 30.3382 24.0011 30.4461V31.3173C24.0011 31.3406 23.9926 31.3617 23.9748 31.3797C23.9569 31.3977 23.9369 31.4062 23.9127 31.4062C23.8854 31.4062 23.8633 31.3977 23.8465 31.3797C23.8297 31.3617 23.8212 31.3416 23.8212 31.3173V30.4546C23.8212 30.3752 23.8086 30.3032 23.7834 30.2387C23.7582 30.1741 23.7171 30.1212 23.6593 30.0831C23.6025 30.045 23.5268 30.0249 23.4322 30.0249C23.3481 30.0249 23.2681 30.0439 23.1924 30.0831C23.1167 30.1212 23.0557 30.1731 23.0084 30.2387C22.9611 30.3043 22.938 30.3763 22.938 30.4546V31.3173C22.938 31.3406 22.9296 31.3617 22.9117 31.3797C22.8938 31.3977 22.8738 31.4062 22.8496 31.4062C22.8223 31.4062 22.8002 31.3977 22.7834 31.3797C22.7666 31.3617 22.7582 31.3416 22.7582 31.3173V29.9899C22.7582 29.9667 22.7666 29.9455 22.7844 29.9275C22.8023 29.9095 22.8233 29.901 22.8496 29.901C22.8759 29.901 22.8959 29.9095 22.9127 29.9275C22.9296 29.9455 22.938 29.9656 22.938 29.9899V30.2387L22.8707 30.3456C22.8749 30.2821 22.8948 30.2217 22.9306 30.1635C22.9664 30.1053 23.0137 30.0534 23.0705 30.0069C23.1272 29.9603 23.1903 29.9243 23.2608 29.8968C23.3302 29.8703 23.4006 29.8566 23.4711 29.8566Z" fill="#231F20"/>
<path d="M25.3554 29.8566C25.4416 29.8566 25.5226 29.8714 25.5973 29.9021C25.6719 29.9328 25.7371 29.9719 25.7929 30.0206C25.8486 30.0693 25.8927 30.1201 25.9243 30.1752C25.9558 30.2292 25.9716 30.281 25.9716 30.3308L25.9243 30.2599V29.9846C25.9243 29.9592 25.9327 29.937 25.9495 29.919C25.9664 29.901 25.9874 29.8926 26.0126 29.8926C26.04 29.8926 26.062 29.901 26.0778 29.919C26.0936 29.937 26.101 29.9582 26.101 29.9846V31.2707C26.101 31.4263 26.0684 31.5597 26.0042 31.6676C25.9401 31.7756 25.8517 31.8592 25.7403 31.9153C25.6288 31.9714 25.5037 32 25.3617 32C25.2934 32 25.2208 31.9915 25.1451 31.9735C25.0694 31.9555 25.0053 31.9333 24.9506 31.9058C24.897 31.8783 24.8665 31.8497 24.8612 31.8201C24.8454 31.8021 24.8381 31.7851 24.8391 31.7682C24.8391 31.7513 24.8486 31.7375 24.8644 31.7248C24.8822 31.711 24.9022 31.71 24.9243 31.7206C24.9464 31.7311 24.98 31.746 25.0231 31.764C25.041 31.7703 25.0673 31.7788 25.1009 31.7904C25.1356 31.8021 25.1756 31.8126 25.2219 31.8211C25.2681 31.8296 25.3165 31.8349 25.368 31.8349C25.5426 31.8349 25.6793 31.7841 25.7771 31.6825C25.8749 31.5808 25.9243 31.4475 25.9243 31.2834V30.9987L25.9569 31.0071C25.939 31.0759 25.9096 31.1373 25.8686 31.1913C25.8276 31.2442 25.7802 31.2898 25.7256 31.3257C25.6719 31.3617 25.613 31.3903 25.5489 31.4083C25.4848 31.4274 25.4217 31.4369 25.3586 31.4369C25.2229 31.4369 25.1009 31.402 24.9916 31.3332C24.8822 31.2643 24.7971 31.1701 24.734 31.0516C24.6709 30.933 24.6393 30.7976 24.6393 30.6451C24.6393 30.4927 24.6709 30.3604 24.734 30.2408C24.7971 30.1212 24.8822 30.027 24.9905 29.9592C25.0988 29.8915 25.2198 29.8566 25.3554 29.8566ZM25.3764 30.0259C25.2681 30.0259 25.1714 30.0524 25.0862 30.1064C25.0011 30.1593 24.9338 30.2334 24.8864 30.3276C24.8381 30.4218 24.8139 30.5276 24.8139 30.6462C24.8139 30.7647 24.8381 30.8717 24.8864 30.9659C24.9348 31.0611 25.0011 31.1352 25.0862 31.1892C25.1714 31.2432 25.2681 31.2707 25.3764 31.2707C25.4848 31.2707 25.5773 31.2442 25.6625 31.1903C25.7476 31.1363 25.8139 31.0632 25.8623 30.969C25.9117 30.8748 25.9359 30.7669 25.9359 30.6441C25.9359 30.5213 25.9117 30.4144 25.8623 30.3212C25.8128 30.2281 25.7466 30.1561 25.6625 30.1032C25.5783 30.0503 25.4827 30.0249 25.3764 30.0249V30.0259Z" fill="#231F20"/>
<path d="M28.8118 29.3326C28.9769 29.3326 29.1062 29.3771 29.1987 29.467C29.2923 29.557 29.3386 29.6819 29.3386 29.8418C29.3386 29.9264 29.3207 30.0058 29.286 30.0799C29.2513 30.154 29.1977 30.2143 29.1283 30.2609C29.0589 30.3075 28.9737 30.3339 28.8738 30.3392L28.8591 30.28C28.9317 30.28 29.0032 30.2905 29.0726 30.3107C29.142 30.3318 29.205 30.3646 29.2608 30.4102C29.3165 30.4557 29.3617 30.5128 29.3943 30.5806C29.428 30.6483 29.4448 30.7309 29.4448 30.8283C29.4448 30.9309 29.428 31.0198 29.3933 31.0939C29.3586 31.168 29.3123 31.2284 29.2534 31.2749C29.1945 31.3215 29.1283 31.3554 29.0547 31.3755C28.9811 31.3956 28.9043 31.4062 28.8233 31.4062H28.0315C28.0063 31.4062 27.9853 31.3977 27.9685 31.3797C27.9516 31.3617 27.9432 31.3416 27.9432 31.3173V29.4205C27.9432 29.3972 27.9516 29.376 27.9685 29.358C27.9853 29.34 28.0063 29.3316 28.0315 29.3316H28.8118V29.3326ZM28.7855 29.5104H28.0967L28.1325 29.4543V30.2927L28.0999 30.2482H28.7886C28.8906 30.2461 28.9769 30.2122 29.0463 30.1477C29.1157 30.082 29.1504 29.9857 29.1504 29.8576C29.1504 29.7507 29.1188 29.666 29.0547 29.6047C28.9905 29.5422 28.9012 29.5115 28.7855 29.5115V29.5104ZM28.8086 30.4292H28.1167L28.1314 30.408V31.2591L28.1136 31.2326H28.8118C28.939 31.2326 29.0452 31.2008 29.1293 31.1363C29.2135 31.0717 29.2555 30.9701 29.2555 30.8293C29.2555 30.7309 29.2345 30.6515 29.1935 30.5922C29.1525 30.5329 29.0967 30.4906 29.0284 30.4663C28.96 30.4419 28.8864 30.4292 28.8076 30.4292H28.8086Z" fill="#231F20"/>
<path d="M30.266 31.3183C30.266 31.3416 30.2576 31.3628 30.2398 31.3808C30.2219 31.3988 30.2019 31.4072 30.1777 31.4072C30.1525 31.4072 30.1314 31.3988 30.1146 31.3808C30.0978 31.3628 30.0894 31.3427 30.0894 31.3183V29.303C30.0894 29.2797 30.0978 29.2585 30.1157 29.2405C30.1335 29.2225 30.1535 29.2141 30.1777 29.2141C30.2029 29.2141 30.224 29.2225 30.2408 29.2405C30.2576 29.2585 30.266 29.2786 30.266 29.303V31.3183Z" fill="#231F20"/>
<path d="M32.2471 29.8926C32.2723 29.8926 32.2934 29.901 32.3102 29.919C32.327 29.937 32.3354 29.9582 32.3354 29.9846V31.3183C32.3354 31.3416 32.327 31.3628 32.3092 31.3808C32.2913 31.3988 32.2713 31.4072 32.2471 31.4072C32.2198 31.4072 32.1977 31.3988 32.1819 31.3808C32.1661 31.3628 32.1588 31.3427 32.1588 31.3183V30.9659L32.2093 30.9447C32.2093 30.9976 32.1945 31.0537 32.164 31.1119C32.1335 31.1701 32.0915 31.2231 32.0389 31.2718C31.9863 31.3205 31.9232 31.3596 31.8517 31.3903C31.7802 31.421 31.7035 31.4358 31.6204 31.4358C31.4869 31.4358 31.368 31.4009 31.2629 31.3321C31.1577 31.2633 31.0757 31.168 31.0158 31.0474C30.9558 30.9267 30.9264 30.7912 30.9264 30.6409C30.9264 30.4906 30.9569 30.3509 31.0179 30.2334C31.0789 30.1159 31.1609 30.0238 31.265 29.9561C31.3691 29.8894 31.4858 29.8555 31.6151 29.8555C31.6993 29.8555 31.7781 29.8703 31.8517 29.9C31.9253 29.9296 31.9895 29.9698 32.0442 30.0217C32.0988 30.0736 32.142 30.1318 32.1735 30.1985C32.2051 30.2651 32.2208 30.3329 32.2208 30.4049L32.1588 30.3604V29.9836C32.1588 29.9582 32.1672 29.936 32.1819 29.918C32.1966 29.9 32.2187 29.8915 32.2471 29.8915V29.8926ZM31.6351 31.2707C31.7392 31.2707 31.8318 31.2432 31.9117 31.1892C31.9916 31.1352 32.0557 31.0601 32.102 30.9637C32.1483 30.8674 32.1714 30.7605 32.1714 30.642C32.1714 30.5234 32.1483 30.4229 32.102 30.3297C32.0557 30.2366 31.9926 30.1614 31.9117 30.1074C31.8307 30.0534 31.7392 30.0259 31.6351 30.0259C31.531 30.0259 31.4416 30.0524 31.3596 30.1043C31.2787 30.1561 31.2145 30.2292 31.1682 30.3223C31.122 30.4154 31.0988 30.5224 31.0988 30.642C31.0988 30.7616 31.122 30.8674 31.1682 30.9637C31.2145 31.0601 31.2776 31.1342 31.3586 31.1892C31.4385 31.2432 31.531 31.2707 31.6351 31.2707Z" fill="#231F20"/>
<path d="M34.0053 31.2411C34.0284 31.2411 34.0494 31.2495 34.0652 31.2665C34.082 31.2834 34.0904 31.3025 34.0904 31.3247C34.0904 31.348 34.082 31.3681 34.0652 31.384C34.0484 31.3998 34.0284 31.4072 34.0053 31.4072H33.0484C33.021 31.4072 33 31.3977 32.9853 31.3776C32.9706 31.3575 32.9632 31.3395 32.9632 31.3215C32.9632 31.3099 32.9653 31.2982 32.9695 31.2876C32.9737 31.2771 32.979 31.2654 32.9874 31.2538L33.8822 30.0122L33.8906 30.0418H33.122C33.0988 30.0418 33.0778 30.0333 33.062 30.0164C33.0452 29.9995 33.0368 29.9794 33.0368 29.9561C33.0368 29.9338 33.0452 29.9148 33.062 29.8979C33.0789 29.8809 33.0988 29.8724 33.122 29.8724H34.0231C34.0463 29.8724 34.0673 29.8809 34.0831 29.8989C34.0999 29.9169 34.1083 29.9381 34.1083 29.9645C34.1083 29.9741 34.1062 29.9846 34.102 29.9942C34.0978 30.0037 34.0925 30.0153 34.0841 30.027L33.1977 31.2569L33.1619 31.2421H34.0042L34.0053 31.2411Z" fill="#231F20"/>
<path d="M34.8212 29.6671C34.7802 29.6671 34.7487 29.6576 34.7287 29.6385C34.7077 29.6195 34.6982 29.593 34.6982 29.557V29.5274C34.6982 29.4914 34.7098 29.4649 34.7319 29.4459C34.7539 29.4268 34.7855 29.4173 34.8244 29.4173C34.8612 29.4173 34.8906 29.4268 34.9117 29.4459C34.9327 29.4649 34.9422 29.4914 34.9422 29.5274V29.557C34.9422 29.593 34.9317 29.6195 34.9117 29.6385C34.8906 29.6576 34.8612 29.6671 34.8223 29.6671H34.8212ZM34.9096 31.3183C34.9096 31.3416 34.9012 31.3628 34.8833 31.3808C34.8654 31.3988 34.8454 31.4072 34.8212 31.4072C34.7939 31.4072 34.7718 31.3988 34.7561 31.3808C34.7403 31.3628 34.7329 31.3427 34.7329 31.3183V29.955C34.7329 29.9317 34.7413 29.9106 34.7582 29.8926C34.775 29.8746 34.796 29.8661 34.8212 29.8661C34.8465 29.8661 34.8675 29.8746 34.8843 29.8926C34.9012 29.9106 34.9096 29.9307 34.9096 29.955V31.3183Z" fill="#231F20"/>
<path d="M36.3428 29.8566C36.4721 29.8566 36.5762 29.883 36.653 29.9349C36.7308 29.9878 36.7865 30.0587 36.8212 30.1487C36.8559 30.2387 36.8728 30.3382 36.8728 30.4461V31.3173C36.8728 31.3406 36.8644 31.3617 36.8465 31.3797C36.8286 31.3977 36.8086 31.4062 36.7844 31.4062C36.7571 31.4062 36.735 31.3977 36.7182 31.3797C36.7014 31.3617 36.693 31.3416 36.693 31.3173V30.4546C36.693 30.3752 36.6803 30.3032 36.6551 30.2387C36.6299 30.1741 36.5889 30.1212 36.531 30.0831C36.4742 30.045 36.3985 30.0249 36.3039 30.0249C36.2198 30.0249 36.1399 30.0439 36.0641 30.0831C35.9884 30.1212 35.9275 30.1731 35.8801 30.2387C35.8328 30.3043 35.8097 30.3763 35.8097 30.4546V31.3173C35.8097 31.3406 35.8013 31.3617 35.7834 31.3797C35.7655 31.3977 35.7455 31.4062 35.7214 31.4062C35.694 31.4062 35.6719 31.3977 35.6551 31.3797C35.6383 31.3617 35.6299 31.3416 35.6299 31.3173V29.9899C35.6299 29.9667 35.6383 29.9455 35.6562 29.9275C35.674 29.9095 35.6951 29.901 35.7214 29.901C35.7476 29.901 35.7676 29.9095 35.7844 29.9275C35.8013 29.9455 35.8097 29.9656 35.8097 29.9899V30.2387L35.7424 30.3456C35.7466 30.2821 35.7666 30.2217 35.8023 30.1635C35.8381 30.1053 35.8854 30.0534 35.9422 30.0069C35.999 29.9603 36.062 29.9243 36.1325 29.8968C36.2019 29.8703 36.2724 29.8566 36.3428 29.8566Z" fill="#231F20"/>
<path d="M38.2271 29.8566C38.3134 29.8566 38.3943 29.8714 38.469 29.9021C38.5436 29.9328 38.6088 29.9719 38.6646 30.0206C38.7203 30.0693 38.7645 30.1201 38.796 30.1752C38.8276 30.2292 38.8433 30.281 38.8433 30.3308L38.796 30.2599V29.9846C38.796 29.9592 38.8044 29.937 38.8212 29.919C38.8381 29.901 38.8591 29.8926 38.8843 29.8926C38.9117 29.8926 38.9338 29.901 38.9495 29.919C38.9653 29.937 38.9727 29.9582 38.9727 29.9846V31.2707C38.9727 31.4263 38.9401 31.5597 38.8759 31.6676C38.8118 31.7756 38.7234 31.8592 38.612 31.9153C38.5005 31.9714 38.3754 32 38.2334 32C38.1651 32 38.0925 31.9915 38.0168 31.9735C37.9411 31.9555 37.877 31.9333 37.8223 31.9058C37.7687 31.8783 37.7382 31.8497 37.7329 31.8201C37.7171 31.8021 37.7098 31.7851 37.7108 31.7682C37.7108 31.7513 37.7203 31.7375 37.7361 31.7248C37.7539 31.711 37.7739 31.71 37.796 31.7206C37.8181 31.7311 37.8517 31.746 37.8948 31.764C37.9127 31.7703 37.939 31.7788 37.9727 31.7904C38.0074 31.8021 38.0473 31.8126 38.0936 31.8211C38.1399 31.8296 38.1882 31.8349 38.2397 31.8349C38.4143 31.8349 38.551 31.7841 38.6488 31.6825C38.7466 31.5808 38.796 31.4475 38.796 31.2834V30.9987L38.8286 31.0071C38.8107 31.0759 38.7813 31.1373 38.7403 31.1913C38.6993 31.2442 38.6519 31.2898 38.5973 31.3257C38.5436 31.3617 38.4848 31.3903 38.4206 31.4083C38.3565 31.4274 38.2934 31.4369 38.2303 31.4369C38.0946 31.4369 37.9727 31.402 37.8633 31.3332C37.7539 31.2643 37.6688 31.1701 37.6057 31.0516C37.5426 30.933 37.511 30.7976 37.511 30.6451C37.511 30.4927 37.5426 30.3604 37.6057 30.2408C37.6688 30.1212 37.7539 30.027 37.8623 29.9592C37.9706 29.8915 38.0915 29.8566 38.2271 29.8566ZM38.2482 30.0259C38.1399 30.0259 38.0431 30.0524 37.9579 30.1064C37.8728 30.1593 37.8055 30.2334 37.7582 30.3276C37.7098 30.4218 37.6856 30.5276 37.6856 30.6462C37.6856 30.7647 37.7098 30.8717 37.7582 30.9659C37.8065 31.0611 37.8728 31.1352 37.9579 31.1892C38.0431 31.2432 38.1399 31.2707 38.2482 31.2707C38.3565 31.2707 38.449 31.2442 38.5342 31.1903C38.6194 31.1363 38.6856 31.0632 38.734 30.969C38.7834 30.8748 38.8076 30.7669 38.8076 30.6441C38.8076 30.5213 38.7834 30.4144 38.734 30.3212C38.6845 30.2281 38.6183 30.1561 38.5342 30.1032C38.4501 30.0503 38.3544 30.0249 38.2482 30.0249V30.0259Z" fill="#231F20"/>
<path d="M41.0011 31.3152C40.999 31.3406 40.9884 31.3628 40.9706 31.3808C40.9516 31.3988 40.9306 31.4072 40.9075 31.4072C40.878 31.4072 40.8549 31.3988 40.8402 31.3808C40.8244 31.3628 40.817 31.3416 40.817 31.3152V29.4247C40.817 29.3993 40.8254 29.3771 40.8433 29.3591C40.8612 29.3411 40.8833 29.3326 40.9106 29.3326C40.9338 29.3326 40.9548 29.3411 40.9737 29.3591C40.9926 29.3771 41.0021 29.3982 41.0021 29.4247V31.3152H41.0011Z" fill="#231F20"/>
<path d="M42.4816 29.8566C42.6109 29.8566 42.715 29.883 42.7918 29.9349C42.8696 29.9878 42.9253 30.0587 42.96 30.1487C42.9947 30.2387 43.0116 30.3382 43.0116 30.4461V31.3173C43.0116 31.3406 43.0032 31.3617 42.9853 31.3797C42.9674 31.3977 42.9474 31.4062 42.9232 31.4062C42.8959 31.4062 42.8738 31.3977 42.857 31.3797C42.8402 31.3617 42.8318 31.3416 42.8318 31.3173V30.4546C42.8318 30.3752 42.8191 30.3032 42.7939 30.2387C42.7687 30.1741 42.7277 30.1212 42.6698 30.0831C42.613 30.045 42.5373 30.0249 42.4427 30.0249C42.3586 30.0249 42.2787 30.0439 42.2029 30.0831C42.1272 30.1212 42.0662 30.1731 42.0189 30.2387C41.9716 30.3043 41.9485 30.3763 41.9485 30.4546V31.3173C41.9485 31.3406 41.9401 31.3617 41.9222 31.3797C41.9043 31.3977 41.8843 31.4062 41.8601 31.4062C41.8328 31.4062 41.8107 31.3977 41.7939 31.3797C41.7771 31.3617 41.7687 31.3416 41.7687 31.3173V29.9899C41.7687 29.9667 41.7771 29.9455 41.795 29.9275C41.8128 29.9095 41.8339 29.901 41.8601 29.901C41.8864 29.901 41.9064 29.9095 41.9232 29.9275C41.9401 29.9455 41.9485 29.9656 41.9485 29.9899V30.2387L41.8812 30.3456C41.8854 30.2821 41.9054 30.2217 41.9411 30.1635C41.9769 30.1053 42.0242 30.0534 42.081 30.0069C42.1378 29.9603 42.2008 29.9243 42.2713 29.8968C42.3407 29.8703 42.4111 29.8566 42.4816 29.8566Z" fill="#231F20"/>
<path d="M44.448 29.8566C44.5773 29.8566 44.6814 29.883 44.7581 29.9349C44.836 29.9878 44.8917 30.0587 44.9264 30.1487C44.9611 30.2387 44.9779 30.3382 44.9779 30.4461V31.3173C44.9779 31.3406 44.9695 31.3617 44.9516 31.3797C44.9338 31.3977 44.9138 31.4062 44.8896 31.4062C44.8623 31.4062 44.8402 31.3977 44.8233 31.3797C44.8065 31.3617 44.7981 31.3416 44.7981 31.3173V30.4546C44.7981 30.3752 44.7855 30.3032 44.7603 30.2387C44.735 30.1741 44.694 30.1212 44.6362 30.0831C44.5794 30.045 44.5037 30.0249 44.409 30.0249C44.3249 30.0249 44.245 30.0439 44.1693 30.0831C44.0936 30.1212 44.0326 30.1731 43.9853 30.2387C43.938 30.3043 43.9148 30.3763 43.9148 30.4546V31.3173C43.9148 31.3406 43.9064 31.3617 43.8885 31.3797C43.8707 31.3977 43.8507 31.4062 43.8265 31.4062C43.7992 31.4062 43.7771 31.3977 43.7603 31.3797C43.7434 31.3617 43.735 31.3416 43.735 31.3173V29.9899C43.735 29.9667 43.7434 29.9455 43.7613 29.9275C43.7792 29.9095 43.8002 29.901 43.8265 29.901C43.8528 29.901 43.8728 29.9095 43.8896 29.9275C43.9064 29.9455 43.9148 29.9656 43.9148 29.9899V30.2387L43.8475 30.3456C43.8517 30.2821 43.8717 30.2217 43.9075 30.1635C43.9432 30.1053 43.9905 30.0534 44.0473 30.0069C44.1041 29.9603 44.1672 29.9243 44.2376 29.8968C44.307 29.8703 44.3775 29.8566 44.448 29.8566Z" fill="#231F20"/>
<path d="M47.1073 30.6483C47.1073 30.7986 47.0747 30.933 47.0105 31.0527C46.9453 31.1723 46.857 31.2665 46.7455 31.3342C46.6341 31.402 46.5058 31.4369 46.3628 31.4369C46.2198 31.4369 46.0978 31.403 45.9842 31.3342C45.8717 31.2665 45.7823 31.1723 45.7161 31.0527C45.6509 30.933 45.6172 30.7986 45.6172 30.6483C45.6172 30.498 45.6498 30.3604 45.7161 30.2419C45.7823 30.1233 45.8707 30.0291 45.9842 29.9603C46.0967 29.8915 46.2229 29.8566 46.3628 29.8566C46.5026 29.8566 46.6341 29.8915 46.7455 29.9603C46.857 30.0291 46.9453 30.1233 47.0105 30.2419C47.0757 30.3604 47.1073 30.4959 47.1073 30.6483ZM46.9306 30.6483C46.9306 30.5276 46.9064 30.4207 46.857 30.3265C46.8076 30.2323 46.7403 30.1593 46.6551 30.1053C46.5699 30.0524 46.4721 30.0249 46.3617 30.0249C46.2513 30.0249 46.1598 30.0513 46.0736 30.1053C45.9874 30.1593 45.919 30.2323 45.8686 30.3265C45.8181 30.4207 45.7939 30.5276 45.7939 30.6483C45.7939 30.769 45.8191 30.8759 45.8686 30.968C45.919 31.0611 45.9863 31.1342 46.0736 31.1892C46.1609 31.2442 46.2566 31.2707 46.3617 31.2707C46.4669 31.2707 46.5689 31.2432 46.6551 31.1892C46.7403 31.1352 46.8076 31.0611 46.857 30.968C46.9064 30.8748 46.9306 30.7679 46.9306 30.6483Z" fill="#231F20"/>
<path d="M47.6993 29.8597C47.715 29.8597 47.7308 29.865 47.7466 29.8746C47.7624 29.8841 47.7739 29.8989 47.7823 29.919L48.2976 31.1522L48.2597 31.1754L48.7865 29.919C48.8023 29.8799 48.8307 29.8608 48.8717 29.8629C48.8917 29.8629 48.9096 29.8703 48.9274 29.8841C48.9453 29.8979 48.9537 29.9158 48.9537 29.937C48.9537 29.9487 48.9527 29.9592 48.9495 29.9667C48.9464 29.9751 48.9443 29.9815 48.9422 29.9878L48.3649 31.3511C48.3491 31.3871 48.3228 31.4051 48.285 31.4072C48.2671 31.4094 48.2492 31.4051 48.2324 31.3935C48.2156 31.3818 48.2029 31.3681 48.1966 31.3501L47.6162 29.9899C47.6141 29.9836 47.612 29.9772 47.6099 29.9688C47.6078 29.9614 47.6067 29.9529 47.6067 29.9455C47.6067 29.9233 47.6141 29.9042 47.6299 29.8862C47.6456 29.8682 47.6677 29.8597 47.6972 29.8597H47.6993Z" fill="#231F20"/>
<path d="M50.7844 29.8926C50.8097 29.8926 50.8307 29.901 50.8475 29.919C50.8644 29.937 50.8728 29.9582 50.8728 29.9846V31.3183C50.8728 31.3416 50.8644 31.3628 50.8465 31.3808C50.8286 31.3988 50.8086 31.4072 50.7844 31.4072C50.7571 31.4072 50.735 31.3988 50.7192 31.3808C50.7035 31.3628 50.6961 31.3427 50.6961 31.3183V30.9659L50.7466 30.9447C50.7466 30.9976 50.7319 31.0537 50.7014 31.1119C50.6709 31.1701 50.6288 31.2231 50.5762 31.2718C50.5237 31.3205 50.4606 31.3596 50.3891 31.3903C50.3176 31.421 50.2408 31.4358 50.1577 31.4358C50.0242 31.4358 49.9054 31.4009 49.8002 31.3321C49.6951 31.2633 49.613 31.168 49.5531 31.0474C49.4932 30.9267 49.4637 30.7912 49.4637 30.6409C49.4637 30.4906 49.4942 30.3509 49.5552 30.2334C49.6162 30.1159 49.6982 30.0238 49.8023 29.9561C49.9064 29.8894 50.0231 29.8555 50.1525 29.8555C50.2366 29.8555 50.3155 29.8703 50.3891 29.9C50.4627 29.9296 50.5268 29.9698 50.5815 30.0217C50.6362 30.0736 50.6793 30.1318 50.7108 30.1985C50.7424 30.2651 50.7581 30.3329 50.7581 30.4049L50.6961 30.3604V29.9836C50.6961 29.9582 50.7045 29.936 50.7192 29.918C50.734 29.9 50.756 29.8915 50.7844 29.8915V29.8926ZM50.1725 31.2707C50.2766 31.2707 50.3691 31.2432 50.449 31.1892C50.5289 31.1352 50.5931 31.0601 50.6393 30.9637C50.6856 30.8674 50.7087 30.7605 50.7087 30.642C50.7087 30.5234 50.6856 30.4229 50.6393 30.3297C50.5931 30.2366 50.53 30.1614 50.449 30.1074C50.368 30.0534 50.2766 30.0259 50.1725 30.0259C50.0684 30.0259 49.979 30.0524 49.8969 30.1043C49.816 30.1561 49.7518 30.2292 49.7056 30.3223C49.6593 30.4154 49.6362 30.5224 49.6362 30.642C49.6362 30.7616 49.6593 30.8674 49.7056 30.9637C49.7518 31.0601 49.8149 31.1342 49.8959 31.1892C49.9758 31.2432 50.0684 31.2707 50.1725 31.2707Z" fill="#231F20"/>
<path d="M51.5026 29.8979H52.1882C52.2114 29.8979 52.2313 29.9063 52.2471 29.9233C52.2629 29.9402 52.2702 29.9603 52.2702 29.9836C52.2702 30.0069 52.2629 30.027 52.2471 30.0429C52.2313 30.0587 52.2114 30.0661 52.1882 30.0661H51.5026C51.4795 30.0661 51.4585 30.0577 51.4427 30.0407C51.4259 30.0238 51.4175 30.0037 51.4175 29.9804C51.4175 29.9571 51.4259 29.937 51.4427 29.9211C51.4595 29.9053 51.4795 29.8979 51.5026 29.8979ZM51.8055 29.4797C51.8307 29.4797 51.8517 29.4882 51.8686 29.5062C51.8854 29.5242 51.8938 29.5443 51.8938 29.5687V31.0569C51.8938 31.1119 51.9012 31.1532 51.9159 31.1818C51.9306 31.2093 51.9495 31.2273 51.9737 31.2368C51.9968 31.2453 52.021 31.2506 52.0442 31.2506C52.0599 31.2506 52.0736 31.2485 52.0873 31.2432C52.1009 31.2379 52.1146 31.2358 52.1304 31.2358C52.1483 31.2358 52.163 31.2432 52.1756 31.2569C52.1882 31.2707 52.1945 31.2887 52.1945 31.3099C52.1945 31.3374 52.1788 31.3607 52.1472 31.3797C52.1157 31.3988 52.0789 31.4083 52.0358 31.4083C52.0179 31.4083 51.9916 31.4072 51.9558 31.4041C51.9201 31.4009 51.8843 31.3903 51.8465 31.3713C51.8086 31.3522 51.7781 31.3194 51.7518 31.2718C51.7266 31.2241 51.714 31.1564 51.714 31.0675V29.5708C51.714 29.5475 51.7224 29.5263 51.7403 29.5083C51.7582 29.4903 51.7792 29.4819 51.8055 29.4819V29.4797Z" fill="#231F20"/>
<path d="M52.9453 29.6671C52.9043 29.6671 52.8728 29.6576 52.8528 29.6385C52.8318 29.6195 52.8223 29.593 52.8223 29.557V29.5274C52.8223 29.4914 52.8339 29.4649 52.8559 29.4459C52.878 29.4268 52.9096 29.4173 52.9485 29.4173C52.9853 29.4173 53.0147 29.4268 53.0358 29.4459C53.0568 29.4649 53.0662 29.4914 53.0662 29.5274V29.557C53.0662 29.593 53.0557 29.6195 53.0358 29.6385C53.0147 29.6576 52.9853 29.6671 52.9464 29.6671H52.9453ZM53.0336 31.3183C53.0336 31.3416 53.0252 31.3628 53.0074 31.3808C52.9895 31.3988 52.9695 31.4072 52.9453 31.4072C52.918 31.4072 52.8959 31.3988 52.8801 31.3808C52.8644 31.3628 52.857 31.3427 52.857 31.3183V29.955C52.857 29.9317 52.8654 29.9106 52.8822 29.8926C52.8991 29.8746 52.9201 29.8661 52.9453 29.8661C52.9706 29.8661 52.9916 29.8746 53.0084 29.8926C53.0252 29.9106 53.0336 29.9307 53.0336 29.955V31.3183Z" fill="#231F20"/>
<path d="M55.1598 30.6483C55.1598 30.7986 55.1272 30.933 55.0631 31.0527C54.9979 31.1723 54.9096 31.2665 54.7981 31.3342C54.6866 31.402 54.5584 31.4369 54.4154 31.4369C54.2724 31.4369 54.1504 31.403 54.0368 31.3342C53.9243 31.2665 53.8349 31.1723 53.7687 31.0527C53.7035 30.933 53.6698 30.7986 53.6698 30.6483C53.6698 30.498 53.7024 30.3604 53.7687 30.2419C53.8349 30.1233 53.9232 30.0291 54.0368 29.9603C54.1493 29.8915 54.2755 29.8566 54.4154 29.8566C54.5552 29.8566 54.6866 29.8915 54.7981 29.9603C54.9096 30.0291 54.9979 30.1233 55.0631 30.2419C55.1283 30.3604 55.1598 30.4959 55.1598 30.6483ZM54.9832 30.6483C54.9832 30.5276 54.959 30.4207 54.9096 30.3265C54.8602 30.2323 54.7929 30.1593 54.7077 30.1053C54.6225 30.0524 54.5247 30.0249 54.4143 30.0249C54.3039 30.0249 54.2124 30.0513 54.1262 30.1053C54.04 30.1593 53.9716 30.2323 53.9211 30.3265C53.8707 30.4207 53.8465 30.5276 53.8465 30.6483C53.8465 30.769 53.8717 30.8759 53.9211 30.968C53.9716 31.0611 54.0389 31.1342 54.1262 31.1892C54.2135 31.2442 54.3092 31.2707 54.4143 31.2707C54.5195 31.2707 54.6215 31.2432 54.7077 31.1892C54.7929 31.1352 54.8602 31.0611 54.9096 30.968C54.959 30.8748 54.9832 30.7679 54.9832 30.6483Z" fill="#231F20"/>
<path d="M56.511 29.8566C56.6404 29.8566 56.7445 29.883 56.8212 29.9349C56.8991 29.9878 56.9548 30.0587 56.9895 30.1487C57.0242 30.2387 57.041 30.3382 57.041 30.4461V31.3173C57.041 31.3406 57.0326 31.3617 57.0147 31.3797C56.9968 31.3977 56.9769 31.4062 56.9527 31.4062C56.9253 31.4062 56.9033 31.3977 56.8864 31.3797C56.8696 31.3617 56.8612 31.3416 56.8612 31.3173V30.4546C56.8612 30.3752 56.8486 30.3032 56.8233 30.2387C56.7981 30.1741 56.7571 30.1212 56.6993 30.0831C56.6425 30.045 56.5668 30.0249 56.4721 30.0249C56.388 30.0249 56.3081 30.0439 56.2324 30.0831C56.1567 30.1212 56.0957 30.1731 56.0484 30.2387C56.0011 30.3043 55.9779 30.3763 55.9779 30.4546V31.3173C55.9779 31.3406 55.9695 31.3617 55.9516 31.3797C55.9338 31.3977 55.9138 31.4062 55.8896 31.4062C55.8623 31.4062 55.8402 31.3977 55.8233 31.3797C55.8065 31.3617 55.7981 31.3416 55.7981 31.3173V29.9899C55.7981 29.9667 55.8065 29.9455 55.8244 29.9275C55.8423 29.9095 55.8633 29.901 55.8896 29.901C55.9159 29.901 55.9359 29.9095 55.9527 29.9275C55.9695 29.9455 55.9779 29.9656 55.9779 29.9899V30.2387L55.9106 30.3456C55.9148 30.2821 55.9348 30.2217 55.9706 30.1635C56.0063 30.1053 56.0536 30.0534 56.1104 30.0069C56.1672 29.9603 56.2303 29.9243 56.3007 29.8968C56.3701 29.8703 56.4406 29.8566 56.511 29.8566Z" fill="#231F20"/>
<path d="M60.3859 29.4861C60.409 29.502 60.4227 29.5221 60.4269 29.5464C60.4311 29.5708 60.4238 29.5951 60.4059 29.6195C60.3922 29.6396 60.3754 29.6491 60.3544 29.6502C60.3333 29.6502 60.3123 29.647 60.2913 29.6364C60.2187 29.5867 60.1388 29.5486 60.0526 29.521C59.9664 29.4935 59.8749 29.4797 59.7792 29.4797C59.6593 29.4797 59.5479 29.502 59.4448 29.5454C59.3418 29.5888 59.2524 29.6502 59.1756 29.7296C59.0989 29.8089 59.04 29.9021 58.9979 30.0111C58.9558 30.1201 58.9348 30.2397 58.9348 30.3699C58.9348 30.5001 58.9569 30.6261 59 30.7362C59.0431 30.8463 59.1031 30.9405 59.1809 31.0188C59.2587 31.0982 59.3481 31.1585 59.4501 31.1998C59.5521 31.2411 59.6625 31.2622 59.7802 31.2622C59.8759 31.2622 59.9674 31.2485 60.0526 31.221C60.1378 31.1934 60.2177 31.1553 60.2923 31.1088C60.3123 31.0971 60.3323 31.0929 60.3544 31.095C60.3764 31.0971 60.3943 31.1098 60.4101 31.1289C60.4259 31.1511 60.4322 31.1744 60.428 31.1998C60.4238 31.2252 60.4112 31.2442 60.3901 31.2559C60.3407 31.2876 60.2829 31.3173 60.2166 31.3459C60.1504 31.3744 60.0789 31.3967 60.0042 31.4125C59.9296 31.4284 59.8549 31.4358 59.7802 31.4358C59.6393 31.4358 59.5058 31.4104 59.3817 31.3586C59.2576 31.3067 59.1472 31.2347 59.0515 31.1405C58.9558 31.0463 58.8812 30.9341 58.8265 30.8039C58.7718 30.6737 58.7445 30.5287 58.7445 30.3678C58.7445 30.2069 58.7718 30.0725 58.8255 29.9444C58.8791 29.8163 58.9537 29.7042 59.0473 29.6078C59.142 29.5126 59.2513 29.4374 59.3775 29.3845C59.5037 29.3316 59.6372 29.304 59.7813 29.304C59.8927 29.304 60.0011 29.3199 60.1052 29.3517C60.2093 29.3834 60.3028 29.4279 60.388 29.485L60.3859 29.4861Z" fill="#231F20"/>
<path d="M61.1567 29.3326C61.1703 29.3326 61.1851 29.3358 61.1998 29.3432C61.2145 29.3506 61.2271 29.3591 61.2366 29.3718L62.0494 30.5986L61.9695 30.5954L62.7855 29.3718C62.8076 29.3421 62.8339 29.3294 62.8654 29.3337C62.8885 29.3337 62.9096 29.3421 62.9253 29.3591C62.9422 29.376 62.9506 29.3972 62.9506 29.4226V31.3194C62.9506 31.3427 62.9411 31.3638 62.9222 31.3818C62.9033 31.3998 62.8812 31.4083 62.8559 31.4083C62.8307 31.4083 62.8086 31.3998 62.7908 31.3818C62.7729 31.3638 62.7645 31.3437 62.7645 31.3194V29.6036L62.817 29.6099L62.0726 30.7446C62.0662 30.7563 62.0578 30.7658 62.0442 30.7732C62.0315 30.7806 62.0179 30.7838 62.0042 30.7838C61.9905 30.7838 61.9769 30.7806 61.9642 30.7732C61.9516 30.7658 61.9411 30.7573 61.9338 30.7446L61.1861 29.5972L61.2419 29.5591V31.3194C61.2419 31.3427 61.2334 31.3638 61.2166 31.3818C61.1998 31.3998 61.1788 31.4083 61.1535 31.4083C61.1283 31.4083 61.1073 31.3998 61.0915 31.3818C61.0757 31.3638 61.0684 31.3437 61.0684 31.3194V29.4226C61.0684 29.4004 61.0768 29.3803 61.0936 29.3623C61.1104 29.3432 61.1314 29.3337 61.1567 29.3337V29.3326Z" fill="#231F20"/>
<path d="M64.3333 31.4369C64.184 31.439 64.0547 31.4157 63.9443 31.367C63.8339 31.3183 63.7298 31.2453 63.6288 31.1458C63.6194 31.1363 63.6109 31.1246 63.6036 31.113C63.5962 31.1013 63.5931 31.0876 63.5931 31.0717C63.5931 31.0484 63.6025 31.0262 63.6215 31.0061C63.6404 30.986 63.6614 30.9764 63.6846 30.9764C63.7077 30.9764 63.7298 30.986 63.7497 31.0061C63.8265 31.0886 63.9127 31.1522 64.0105 31.1955C64.1073 31.2389 64.2124 31.2612 64.3239 31.2612C64.4185 31.2612 64.5016 31.2464 64.5752 31.2167C64.6488 31.1871 64.7077 31.1447 64.7508 31.0897C64.7939 31.0347 64.816 30.9701 64.816 30.8971C64.8139 30.806 64.7887 30.733 64.7413 30.678C64.693 30.6229 64.6288 30.5763 64.5489 30.5382C64.4679 30.5012 64.3786 30.4684 64.2808 30.4409C64.1998 30.4154 64.123 30.3869 64.0494 30.3562C63.9758 30.3255 63.9106 30.2884 63.8549 30.244C63.7992 30.1995 63.755 30.1445 63.7235 30.0799C63.6919 30.0143 63.6761 29.937 63.6761 29.846C63.6761 29.7412 63.7035 29.6481 63.7582 29.5655C63.8128 29.484 63.8906 29.4194 63.9926 29.3728C64.0936 29.3263 64.2114 29.303 64.3449 29.303C64.4606 29.303 64.572 29.3231 64.6793 29.3623C64.7865 29.4014 64.8707 29.4596 64.9338 29.5369C64.9632 29.5687 64.9779 29.5972 64.9779 29.6226C64.9779 29.6449 64.9685 29.665 64.9485 29.683C64.9285 29.702 64.9075 29.7116 64.8833 29.7116C64.8633 29.7116 64.8465 29.7041 64.8328 29.6904C64.7992 29.6491 64.7571 29.6121 64.7066 29.5792C64.6551 29.5464 64.5994 29.521 64.5373 29.5041C64.4753 29.4861 64.4111 29.4776 64.3449 29.4776C64.2524 29.4776 64.1693 29.4914 64.0957 29.521C64.0221 29.5496 63.9642 29.5909 63.9222 29.6438C63.8801 29.6967 63.8591 29.7624 63.8591 29.8396C63.8591 29.9222 63.8822 29.9899 63.9296 30.0429C63.9769 30.0947 64.0389 30.1392 64.1146 30.1731C64.1914 30.208 64.2723 30.2397 64.3586 30.2694C64.4427 30.2927 64.5237 30.3202 64.6015 30.3509C64.6793 30.3816 64.7476 30.4197 64.8076 30.4652C64.8675 30.5107 64.9148 30.5679 64.9485 30.6367C64.9832 30.7055 65 30.7923 65 30.8971C65 31.0018 64.9716 31.0886 64.9148 31.1701C64.858 31.2516 64.7802 31.3152 64.6803 31.3628C64.5804 31.4104 64.4648 31.4348 64.3312 31.4369H64.3333Z" fill="#231F20"/>
<path d="M8.52154 0L3.53836 6.46046e-06C1.79704 6.46046e-06 0.383789 1.42261 0.383789 3.17545V4.06775H6.93899V23.529C6.93899 25.2818 8.35224 26.7044 10.0936 26.7044H11.6761V4.06775H15.0757C16.817 4.06775 18.2303 2.64515 18.2303 0.892305V6.46046e-06H8.52796C8.52582 2.42267e-06 8.52368 0 8.52154 0Z" fill="#231F20"/>
<path d="M28.3071 0L16.53 11.855C15.7088 12.6817 15.7088 14.0217 16.53 14.8484L28.3071 26.7034L40.0842 14.8484C40.9054 14.0217 40.9054 12.6817 40.0842 11.855L28.3071 0ZM22.6015 11.855L28.3071 6.11167L34.0126 11.855C34.8339 12.6817 34.8339 14.0217 34.0126 14.8484L28.3071 20.5917L22.6015 14.8484C21.7803 14.0217 21.7803 12.6817 22.6015 11.855Z" fill="#FF0A6C"/>
<path d="M53.2335 13.3824C54.9085 11.5766 57.7414 9.45435 57.6741 6.51495C57.7235 5.20455 57.3176 3.91638 56.5962 2.8399C56.3796 2.50966 56.1315 2.19847 55.8518 1.91373C54.6972 0.695422 53.1273 0.0116434 51.4532 0.0560996H39.8318V5.29241C39.8318 5.8534 40.0537 6.39217 40.448 6.7891L45.5111 11.8857C46.3323 12.7124 46.3323 14.0524 45.5111 14.8791L40.448 19.9757C40.0537 20.3726 39.8318 20.9114 39.8318 21.4723V26.7087H51.4532C53.1273 26.7531 54.6972 26.0693 55.8518 24.851C56.1315 24.5673 56.3796 24.2562 56.5962 23.9248C57.3176 22.8494 57.7224 21.5613 57.6741 20.2498C57.7424 17.3104 54.9085 15.1871 53.2335 13.3824ZM51.2093 4.06563C51.7456 4.06139 52.2356 4.15242 52.6478 4.41069C52.8507 4.54829 53.0305 4.71553 53.1819 4.90606C53.1935 4.92194 53.2061 4.9357 53.2177 4.95263C53.2177 4.95263 53.2177 4.95369 53.2187 4.95475C53.6152 5.48187 53.7897 6.17306 53.5857 6.88013C53.1861 7.98836 51.2198 9.64276 50.3365 10.6303L45.6215 5.8841C44.9601 5.21831 45.4269 4.07939 46.3628 4.07727L51.2103 4.06563H51.2093ZM53.2187 21.81C53.2187 21.81 53.2187 21.8111 53.2177 21.8121C53.2061 21.828 53.1946 21.8428 53.1819 21.8587C53.0305 22.0492 52.8497 22.2175 52.6478 22.3541C52.2356 22.6123 51.7456 22.7034 51.2093 22.6991L46.3617 22.6875C45.4259 22.6854 44.959 21.5464 45.6204 20.8807L50.3355 16.1344C51.2187 17.122 53.1861 18.7764 53.5847 19.8846C53.7887 20.5917 53.6141 21.2829 53.2177 21.81H53.2187Z" fill="#FF0A6C"/>
<path opacity="0.7" d="M55.8517 24.85C56.1314 24.5663 56.3796 24.2551 56.5962 23.9238C57.3175 22.8484 57.7224 21.5602 57.674 20.2487C57.7424 17.3093 54.9085 15.186 53.2334 13.3813L50.3365 16.1334C51.2198 17.1209 53.1872 18.7753 53.5857 19.8836C53.7897 20.5906 53.6151 21.2818 53.2187 21.809C53.2187 21.809 53.2187 21.81 53.2177 21.8111C53.2061 21.8269 53.1945 21.8418 53.1819 21.8576C53.0305 22.0482 52.8496 22.2165 52.6477 22.353C52.2355 22.6113 51.7455 22.7023 51.2092 22.6981L43.8317 22.6801L39.8307 26.7076H51.4521C53.1262 26.7521 54.6961 26.0683 55.8507 24.85H55.8517Z" fill="url(#paint0_linear_1329_4621)"/>
<path d="M60.5763 0.0296402H61.4627C63.2041 0.0296402 64.6173 1.45224 64.6173 3.20508V26.7341H63.7309C61.9895 26.7341 60.5763 25.3115 60.5763 23.5586V0.0296402Z" fill="#231F20"/>
<path d="M61.5584 18.6293C61.5889 18.5689 61.6352 18.534 61.7004 18.5234C61.7656 18.5128 61.8234 18.5298 61.877 18.5742C61.918 18.6049 61.9412 18.643 61.9464 18.6907C61.9506 18.7383 61.9422 18.7859 61.9191 18.8357C61.8938 18.8918 61.8739 18.95 61.8602 19.0114C61.8465 19.0728 61.8392 19.1373 61.8392 19.2051C61.8392 19.33 61.8591 19.4422 61.898 19.5417C61.9369 19.6401 61.9937 19.7248 62.0663 19.7936C62.1388 19.8635 62.2251 19.9164 62.3239 19.9524C62.4228 19.9884 62.5332 20.0064 62.653 20.0064C62.7939 20.0064 62.9159 19.9862 63.02 19.945C63.1241 19.9047 63.2103 19.8476 63.2797 19.7756C63.3491 19.7036 63.4007 19.6189 63.4333 19.5216C63.4669 19.4242 63.4837 19.3183 63.4837 19.2051C63.4837 19.1426 63.4785 19.0802 63.4659 19.0167C63.4543 18.9542 63.4333 18.8939 63.4038 18.8357C63.3807 18.787 63.3723 18.7383 63.3796 18.6907C63.387 18.643 63.4112 18.6028 63.4522 18.5711C63.51 18.5245 63.5689 18.5075 63.6299 18.5202C63.6909 18.5329 63.7351 18.5689 63.7635 18.6261C63.7939 18.6864 63.8181 18.7489 63.8381 18.8124C63.8581 18.8759 63.8728 18.9405 63.8833 19.0061C63.8938 19.0717 63.8991 19.1373 63.8991 19.2051C63.8991 19.3723 63.8728 19.5311 63.8192 19.6803C63.7666 19.8306 63.6877 19.964 63.5836 20.0804C63.4795 20.1969 63.3502 20.29 63.1946 20.3578C63.0389 20.4255 62.8581 20.4583 62.653 20.4583C62.4753 20.4583 62.3113 20.4276 62.162 20.3662C62.0127 20.3048 61.8823 20.2181 61.7729 20.1048C61.6636 19.9926 61.5784 19.8592 61.5163 19.7057C61.4554 19.5523 61.4249 19.385 61.4249 19.204C61.4249 19.1024 61.4364 19.0019 61.4596 18.9045C61.4827 18.8071 61.5163 18.715 61.5595 18.6293H61.5584Z" fill="white"/>
<path d="M61.4375 14.0672C61.4375 14.0344 61.4459 14.0005 61.4638 13.9645C61.4816 13.9286 61.5037 13.901 61.5311 13.883L62.8255 13.0363L62.8181 13.2109L61.5311 12.344C61.469 12.2996 61.4375 12.2435 61.4375 12.1736C61.4375 12.1175 61.4575 12.0677 61.4964 12.0243C61.5353 11.981 61.5868 11.9587 61.6488 11.9587H63.652C63.7119 11.9587 63.7624 11.9788 63.8024 12.018C63.8423 12.0572 63.8633 12.1101 63.8633 12.1747C63.8633 12.2392 63.8434 12.2921 63.8024 12.3334C63.7624 12.3736 63.7119 12.3948 63.652 12.3948H62.0221L62.0537 12.2593L63.1294 12.9696C63.1546 12.9907 63.1767 13.0161 63.1956 13.0479C63.2146 13.0797 63.2219 13.1114 63.2198 13.1442C63.2219 13.1749 63.2146 13.2056 63.1956 13.2363C63.1767 13.2681 63.1557 13.2935 63.1294 13.3146L62.0842 13.9794L61.9012 13.8883H63.652C63.7119 13.8883 63.7624 13.9074 63.8024 13.9444C63.8423 13.9815 63.8633 14.0302 63.8633 14.0905C63.8633 14.1508 63.8434 14.1964 63.8024 14.2334C63.7624 14.2704 63.7119 14.2895 63.652 14.2895H61.6488C61.591 14.2895 61.5416 14.2683 61.4995 14.2249C61.4585 14.1815 61.4375 14.1307 61.4375 14.0704V14.0672Z" fill="white"/>
<path d="M63.897 6.78487C63.897 6.94787 63.877 7.09394 63.836 7.22414C63.7961 7.35433 63.7245 7.47817 63.6236 7.59672C63.5984 7.62742 63.57 7.64965 63.5374 7.66658C63.5048 7.68246 63.4732 7.69093 63.4406 7.69093C63.3881 7.69093 63.3407 7.67187 63.3008 7.63377C63.2608 7.59566 63.2398 7.54697 63.2398 7.48876C63.2398 7.4443 63.2535 7.40514 63.2808 7.37021C63.3523 7.28235 63.407 7.1945 63.4438 7.1077C63.4806 7.02091 63.4995 6.91294 63.4995 6.78593C63.4995 6.70019 63.4858 6.6208 63.4596 6.54883C63.4333 6.47685 63.3975 6.41863 63.3523 6.37418C63.3071 6.32972 63.2556 6.30855 63.1988 6.30855C63.1294 6.30855 63.0705 6.32972 63.0221 6.371C62.9738 6.41334 62.9327 6.47685 62.8991 6.56259C62.8654 6.64832 62.8402 6.75735 62.8213 6.88966C62.8024 7.01456 62.775 7.1257 62.7361 7.22096C62.6983 7.31623 62.6499 7.39561 62.591 7.45912C62.5321 7.52263 62.4627 7.57132 62.3838 7.60413C62.3039 7.63695 62.2146 7.65282 62.1157 7.65282C61.9653 7.65282 61.8381 7.61366 61.7319 7.53639C61.6257 7.45912 61.5447 7.35327 61.4901 7.22096C61.4354 7.08865 61.407 6.94258 61.407 6.78169C61.407 6.63033 61.4291 6.49061 61.4743 6.36253C61.5195 6.2334 61.5763 6.12861 61.6457 6.04711C61.6983 5.97936 61.7603 5.94655 61.8286 5.94655C61.8791 5.94655 61.9254 5.96666 61.9674 6.00583C62.0095 6.04499 62.0295 6.09156 62.0295 6.14555C62.0295 6.18048 62.019 6.21223 61.9979 6.23975C61.9653 6.2768 61.9348 6.32655 61.9065 6.39005C61.8781 6.4525 61.8539 6.51919 61.8339 6.58905C61.8139 6.65891 61.8045 6.72348 61.8045 6.78381C61.8045 6.88331 61.8171 6.96799 61.8423 7.03679C61.8676 7.10559 61.9023 7.15639 61.9464 7.19132C61.9906 7.22625 62.0411 7.24319 62.0989 7.24319C62.1683 7.24319 62.2251 7.22308 62.2703 7.1818C62.3155 7.14052 62.3512 7.0823 62.3775 7.00609C62.4038 6.92988 62.428 6.83779 62.448 6.73089C62.4732 6.59117 62.5037 6.46944 62.5384 6.36359C62.5731 6.25774 62.6173 6.16989 62.672 6.10109C62.7266 6.03123 62.7939 5.97936 62.876 5.94443C62.958 5.9095 63.0579 5.89257 63.1756 5.89257C63.326 5.89257 63.4543 5.93385 63.5637 6.01747C63.672 6.10109 63.755 6.21117 63.8129 6.34666C63.8707 6.48214 63.8991 6.62927 63.8991 6.78698L63.897 6.78487Z" fill="white"/>
<path d="M31.3428 3.05583L28.307 6.11167L33.9979 11.8994C34.8128 12.7282 34.8086 14.064 33.9884 14.8875L28.307 20.5927L31.3428 23.675L40.0767 14.8611C40.8959 14.0344 40.8959 12.6975 40.0767 11.8709L31.3428 3.05689V3.05583Z" fill="url(#paint1_linear_1329_4621)"/>
<path d="M40.4479 6.7891L45.511 11.8857C46.3238 12.7039 46.3312 14.0259 45.5341 14.8537L50.3375 10.6303L46.0599 6.32443L45.6225 5.8841L39.8328 0.0561028V5.29241C39.8328 5.8534 40.0546 6.39217 40.449 6.7891H40.4479Z" fill="url(#paint2_linear_1329_4621)"/>
<path d="M57.6741 20.2498C57.7424 17.3104 54.9086 15.1871 53.2335 13.3824L50.3365 16.1344C51.2261 17.1241 53.1893 18.7828 53.5858 19.8846C53.7898 20.5917 53.6152 21.2829 53.2188 21.81C53.2188 21.81 53.2188 21.8111 53.2177 21.8121C53.2062 21.828 53.1946 21.8428 53.182 21.8587C53.0306 22.0492 52.8497 22.2175 52.6478 22.3541C52.2356 22.6123 51.7456 22.7034 51.2093 22.6991L46.3618 22.6875C45.4859 22.6854 45.02 21.6862 45.509 21.0119L39.876 26.7087C40.6499 26.7087 51.4522 26.7087 51.4522 26.7087C53.1262 26.7531 54.6962 26.0693 55.8507 24.851C56.1305 24.5674 56.3786 24.2562 56.5952 23.9249C57.3166 22.8494 57.7214 21.5613 57.673 20.2498H57.6741Z" fill="url(#paint3_linear_1329_4621)"/>
<defs>
<linearGradient id="paint0_linear_1329_4621" x1="45.1461" y1="19.0685" x2="55.1408" y2="26.0201" gradientUnits="userSpaceOnUse">
<stop stop-color="#00C7FF"/>
<stop offset="1" stop-color="#1B29FF"/>
</linearGradient>
<linearGradient id="paint1_linear_1329_4621" x1="34.4994" y1="3.05583" x2="34.4994" y2="23.674" gradientUnits="userSpaceOnUse">
<stop stop-color="#2D27FF"/>
<stop offset="1" stop-color="#FF0A6C"/>
</linearGradient>
<linearGradient id="paint2_linear_1329_4621" x1="37.5825" y1="2.32019" x2="48.1565" y2="12.8257" gradientUnits="userSpaceOnUse">
<stop stop-color="#FF0A6C"/>
<stop offset="1" stop-color="#2D27FF"/>
</linearGradient>
<linearGradient id="paint3_linear_1329_4621" x1="45.1841" y1="19.0791" x2="55.1482" y2="26.0097" gradientUnits="userSpaceOnUse">
<stop stop-color="#2D27FF"/>
<stop offset="1" stop-color="#FF0A6C"/>
</linearGradient>
</defs>
</svg>
