<svg width="614" height="301" viewBox="0 0 614 301" fill="none" xmlns="http://www.w3.org/2000/svg">
<path d="M1.0335 276.671C0.81519 276.671 0.616728 276.602 0.448033 276.453C0.279337 276.304 0.199951 276.115 0.199951 275.897C0.199951 275.659 0.279337 275.46 0.448033 275.312C0.616728 275.163 0.805266 275.093 1.0335 275.093H14.2314C14.4696 275.093 14.678 275.163 14.8467 275.312C15.0154 275.46 15.0948 275.659 15.0948 275.897C15.0948 276.135 15.0154 276.324 14.8467 276.463C14.678 276.602 14.4795 276.671 14.2314 276.671H1.0335ZM7.6424 294.533C7.38439 294.533 7.16608 294.454 7.00731 294.285C6.83861 294.116 6.75923 293.928 6.75923 293.699V275.996H8.50573V293.699C8.50573 293.918 8.42634 294.116 8.25765 294.285C8.08895 294.454 7.89048 294.533 7.6424 294.533Z" fill="#231F20"/>
<path d="M27.2011 280.234C28.3721 280.234 29.3148 280.482 30.0392 280.988C30.7636 281.484 31.2895 282.169 31.6368 283.012C31.9742 283.866 32.1528 284.808 32.1528 285.85V293.709C32.1528 293.928 32.0735 294.126 31.9048 294.295C31.7361 294.464 31.5475 294.543 31.3193 294.543C31.0613 294.543 30.8529 294.464 30.6941 294.295C30.5354 294.126 30.456 293.938 30.456 293.709V285.85C30.456 285.086 30.3369 284.411 30.1087 283.806C29.8804 283.201 29.5033 282.714 28.9973 282.347C28.4912 281.98 27.7965 281.792 26.9233 281.792C26.1493 281.792 25.405 281.98 24.7104 282.347C24.0158 282.714 23.4502 283.201 23.0334 283.806C22.6067 284.411 22.3983 285.086 22.3983 285.85V293.709C22.3983 293.928 22.3189 294.126 22.1502 294.295C21.9815 294.464 21.793 294.543 21.5647 294.543C21.3067 294.543 21.0983 294.464 20.9396 294.295C20.7808 294.126 20.7014 293.938 20.7014 293.709V274.815C20.7014 274.597 20.7808 274.399 20.9495 274.23C21.1182 274.061 21.3166 273.982 21.5647 273.982C21.8128 273.982 22.0014 274.061 22.1601 274.23C22.3189 274.399 22.3983 274.587 22.3983 274.815V283.816L21.7632 284.788C21.8029 284.213 21.9815 283.657 22.309 283.111C22.6364 282.566 23.0532 282.079 23.5692 281.643C24.0852 281.206 24.6608 280.869 25.2959 280.611C25.931 280.353 26.5661 280.234 27.2111 280.234H27.2011Z" fill="#231F20"/>
<path d="M45.4302 294.821C44.0012 294.821 42.741 294.513 41.6494 293.908C40.5579 293.293 39.7044 292.449 39.0892 291.348C38.474 290.246 38.1763 288.976 38.1763 287.517C38.1763 285.939 38.4839 284.6 39.1091 283.488C39.7342 282.377 40.538 281.524 41.5303 280.918C42.5227 280.313 43.5745 280.015 44.6859 280.015C45.4996 280.015 46.2935 280.154 47.0576 280.442C47.8217 280.73 48.5064 281.156 49.1117 281.722C49.717 282.288 50.1933 282.972 50.5605 283.796C50.9177 284.61 51.1162 285.552 51.1559 286.634C51.136 286.852 51.0467 287.051 50.878 287.2C50.7094 287.358 50.5208 287.438 50.2926 287.438H39.1487L38.8114 285.939H49.7567L49.3995 286.277V285.721C49.3102 284.848 49.0224 284.114 48.5362 283.508C48.0499 282.903 47.4744 282.446 46.7996 282.119C46.1248 281.792 45.4103 281.633 44.676 281.633C44.1203 281.633 43.5547 281.742 42.9692 281.97C42.3837 282.188 41.8578 282.536 41.3815 283.012C40.9052 283.488 40.5281 284.084 40.2304 284.818C39.9327 285.552 39.7838 286.416 39.7838 287.418C39.7838 288.51 40.0021 289.502 40.4487 290.395C40.8952 291.288 41.5403 291.993 42.3837 292.509C43.2272 293.025 44.2295 293.283 45.4004 293.283C46.0454 293.283 46.6309 293.193 47.137 293.005C47.6431 292.816 48.0995 292.578 48.4965 292.27C48.8934 291.963 49.2209 291.645 49.4789 291.308C49.6873 291.139 49.8758 291.06 50.0643 291.06C50.2727 291.06 50.4414 291.139 50.5803 291.278C50.7193 291.417 50.7887 291.596 50.7887 291.774C50.7887 291.993 50.6994 292.191 50.5109 292.36C49.9552 293.025 49.2308 293.61 48.3476 294.096C47.4545 294.583 46.482 294.831 45.4302 294.831V294.821Z" fill="#231F20"/>
<path d="M85.0538 284.818C85.0538 286.277 84.8255 287.616 84.369 288.837C83.9126 290.048 83.2676 291.109 82.434 292.003C81.6005 292.896 80.618 293.6 79.4769 294.086C78.3357 294.573 77.0953 294.821 75.7358 294.821C74.3763 294.821 73.1161 294.573 71.9848 294.086C70.8536 293.6 69.8712 292.906 69.0376 292.003C68.2041 291.1 67.559 290.048 67.0927 288.837C66.6263 287.626 66.398 286.287 66.398 284.818C66.398 283.349 66.6263 282.02 67.0927 280.799C67.559 279.579 68.2041 278.527 69.0376 277.634C69.8712 276.731 70.8536 276.036 71.9848 275.55C73.1161 275.054 74.3664 274.815 75.7358 274.815C77.1052 274.815 78.3357 275.064 79.4769 275.55C80.618 276.036 81.6005 276.731 82.434 277.634C83.2676 278.537 83.9126 279.589 84.369 280.799C84.8255 282.01 85.0538 283.349 85.0538 284.818ZM83.2775 284.818C83.2775 283.171 82.95 281.722 82.305 280.472C81.66 279.221 80.7768 278.239 79.6555 277.544C78.5342 276.84 77.2342 276.493 75.7556 276.493C74.2771 276.493 72.9871 276.85 71.8558 277.544C70.7246 278.239 69.8315 279.221 69.1865 280.472C68.5514 281.722 68.2239 283.171 68.2239 284.818C68.2239 286.465 68.5414 287.914 69.1865 289.165C69.8215 290.415 70.7146 291.397 71.8558 292.092C72.997 292.796 74.2969 293.144 75.7556 293.144C77.2144 293.144 78.5342 292.796 79.6555 292.092C80.7768 291.387 81.66 290.415 82.305 289.165C82.95 287.914 83.2775 286.465 83.2775 284.818Z" fill="#231F20"/>
<path d="M101.695 280.422C101.933 280.422 102.132 280.502 102.29 280.67C102.449 280.839 102.529 281.027 102.529 281.256V289.095C102.529 290.931 102.013 292.33 100.971 293.293C99.9386 294.255 98.5395 294.741 96.7731 294.741C95.0068 294.741 93.6175 294.255 92.5954 293.293C91.5733 292.33 91.0573 290.931 91.0573 289.095V281.256C91.0573 281.037 91.1367 280.839 91.3054 280.67C91.4741 280.502 91.6726 280.422 91.9206 280.422C92.1687 280.422 92.3573 280.502 92.516 280.67C92.6748 280.839 92.7542 281.027 92.7542 281.256V289.095C92.7542 290.425 93.1114 291.447 93.8259 292.141C94.5404 292.836 95.5228 293.183 96.783 293.183C98.0433 293.183 99.0555 292.836 99.7699 292.141C100.484 291.447 100.842 290.435 100.842 289.095V281.256C100.842 281.037 100.921 280.839 101.08 280.67C101.239 280.502 101.447 280.422 101.705 280.422H101.695Z" fill="#231F20"/>
<path d="M108.473 280.392H114.943C115.161 280.392 115.349 280.472 115.498 280.63C115.647 280.789 115.717 280.978 115.717 281.196C115.717 281.414 115.647 281.603 115.498 281.752C115.349 281.901 115.161 281.97 114.943 281.97H108.473C108.254 281.97 108.056 281.891 107.907 281.732C107.748 281.573 107.669 281.385 107.669 281.166C107.669 280.948 107.748 280.76 107.907 280.611C108.066 280.462 108.254 280.392 108.473 280.392ZM111.331 276.473C111.569 276.473 111.767 276.552 111.926 276.721C112.085 276.889 112.164 277.078 112.164 277.306V291.258C112.164 291.774 112.234 292.161 112.372 292.429C112.511 292.687 112.69 292.856 112.918 292.945C113.137 293.025 113.365 293.074 113.583 293.074C113.732 293.074 113.861 293.054 113.99 293.005C114.119 292.955 114.248 292.935 114.397 292.935C114.566 292.935 114.704 293.005 114.824 293.134C114.943 293.263 115.002 293.432 115.002 293.63C115.002 293.888 114.853 294.106 114.556 294.285C114.258 294.464 113.911 294.553 113.504 294.553C113.335 294.553 113.087 294.543 112.75 294.513C112.412 294.483 112.075 294.384 111.718 294.206C111.36 294.027 111.073 293.719 110.824 293.273C110.586 292.826 110.467 292.191 110.467 291.358V277.326C110.467 277.108 110.547 276.909 110.715 276.741C110.884 276.572 111.082 276.493 111.331 276.493V276.473Z" fill="#231F20"/>
<path d="M121.055 292.29C120.906 292.072 120.837 291.854 120.847 291.635C120.847 291.427 120.976 291.248 121.194 291.119C121.343 290.99 121.512 290.931 121.71 290.951C121.909 290.971 122.087 291.06 122.256 291.229C122.752 291.874 123.367 292.399 124.072 292.796C124.786 293.193 125.63 293.392 126.612 293.392C127.128 293.392 127.644 293.303 128.15 293.124C128.657 292.945 129.083 292.677 129.411 292.32C129.748 291.963 129.907 291.496 129.907 290.941C129.907 290.385 129.738 289.909 129.411 289.561C129.073 289.224 128.647 288.946 128.121 288.728C127.595 288.519 127.019 288.331 126.414 288.182C125.789 288.013 125.173 287.825 124.598 287.616C124.022 287.408 123.487 287.13 123.03 286.813C122.564 286.485 122.206 286.098 121.929 285.632C121.661 285.165 121.522 284.6 121.522 283.935C121.522 283.161 121.73 282.476 122.147 281.881C122.564 281.285 123.139 280.829 123.883 280.492C124.628 280.154 125.451 279.995 126.354 279.995C126.841 279.995 127.347 280.055 127.883 280.174C128.418 280.293 128.944 280.492 129.47 280.769C129.986 281.047 130.453 281.424 130.859 281.911C131.028 282.079 131.108 282.268 131.108 282.476C131.108 282.685 131.018 282.893 130.83 283.072C130.681 283.181 130.512 283.23 130.314 283.22C130.115 283.22 129.956 283.131 129.827 282.982C129.381 282.486 128.855 282.109 128.24 281.861C127.625 281.613 126.97 281.484 126.265 281.484C125.729 281.484 125.223 281.563 124.747 281.732C124.27 281.901 123.883 282.159 123.566 282.506C123.248 282.853 123.09 283.32 123.09 283.895C123.129 284.431 123.318 284.868 123.655 285.205C123.993 285.543 124.449 285.82 125.015 286.039C125.58 286.257 126.215 286.465 126.92 286.654C127.515 286.803 128.081 286.981 128.627 287.18C129.173 287.388 129.659 287.636 130.076 287.944C130.492 288.252 130.83 288.639 131.078 289.095C131.326 289.561 131.455 290.137 131.455 290.842C131.455 291.655 131.227 292.36 130.77 292.955C130.314 293.551 129.708 293.997 128.954 294.315C128.2 294.632 127.357 294.791 126.424 294.791C125.422 294.791 124.459 294.593 123.516 294.206C122.584 293.819 121.75 293.164 121.026 292.261L121.055 292.29Z" fill="#231F20"/>
<path d="M136.476 280.392H142.946C143.164 280.392 143.353 280.472 143.502 280.63C143.651 280.789 143.72 280.978 143.72 281.196C143.72 281.414 143.651 281.603 143.502 281.752C143.353 281.901 143.164 281.97 142.946 281.97H136.476C136.258 281.97 136.059 281.891 135.91 281.732C135.752 281.573 135.672 281.385 135.672 281.166C135.672 280.948 135.752 280.76 135.91 280.611C136.069 280.462 136.258 280.392 136.476 280.392ZM139.334 276.473C139.572 276.473 139.771 276.552 139.929 276.721C140.088 276.889 140.168 277.078 140.168 277.306V291.258C140.168 291.774 140.237 292.161 140.376 292.429C140.515 292.687 140.693 292.856 140.922 292.945C141.14 293.025 141.368 293.074 141.587 293.074C141.735 293.074 141.864 293.054 141.993 293.005C142.122 292.955 142.251 292.935 142.4 292.935C142.569 292.935 142.708 293.005 142.827 293.134C142.946 293.263 143.006 293.432 143.006 293.63C143.006 293.888 142.857 294.106 142.559 294.285C142.261 294.464 141.914 294.553 141.507 294.553C141.338 294.553 141.09 294.543 140.753 294.513C140.416 294.483 140.078 294.384 139.721 294.206C139.364 294.027 139.076 293.719 138.828 293.273C138.59 292.826 138.471 292.191 138.471 291.358V277.326C138.471 277.108 138.55 276.909 138.719 276.741C138.887 276.572 139.086 276.493 139.334 276.493V276.473Z" fill="#231F20"/>
<path d="M160.957 280.343C161.195 280.343 161.393 280.422 161.552 280.591C161.711 280.76 161.79 280.958 161.79 281.206V293.709C161.79 293.928 161.711 294.126 161.542 294.295C161.374 294.464 161.185 294.543 160.957 294.543C160.699 294.543 160.49 294.464 160.342 294.295C160.193 294.126 160.123 293.938 160.123 293.709V290.405L160.6 290.206C160.6 290.703 160.461 291.229 160.173 291.774C159.885 292.32 159.488 292.816 158.992 293.273C158.496 293.729 157.9 294.096 157.226 294.384C156.551 294.672 155.826 294.811 155.042 294.811C153.782 294.811 152.661 294.483 151.669 293.838C150.676 293.193 149.902 292.3 149.337 291.169C148.771 290.038 148.493 288.768 148.493 287.358C148.493 285.949 148.781 284.64 149.356 283.538C149.932 282.437 150.706 281.573 151.688 280.938C152.671 280.313 153.772 279.995 154.993 279.995C155.787 279.995 156.531 280.134 157.226 280.412C157.92 280.69 158.526 281.067 159.042 281.553C159.558 282.04 159.964 282.585 160.262 283.211C160.56 283.836 160.709 284.471 160.709 285.146L160.123 284.729V281.196C160.123 280.958 160.203 280.75 160.342 280.581C160.48 280.412 160.689 280.333 160.957 280.333V280.343ZM155.181 293.263C156.164 293.263 157.037 293.005 157.791 292.499C158.545 291.993 159.151 291.288 159.587 290.385C160.024 289.482 160.242 288.48 160.242 287.368C160.242 286.257 160.024 285.314 159.587 284.441C159.151 283.568 158.555 282.863 157.791 282.357C157.027 281.851 156.164 281.593 155.181 281.593C154.199 281.593 153.356 281.841 152.582 282.327C151.817 282.814 151.212 283.498 150.775 284.372C150.339 285.245 150.121 286.247 150.121 287.368C150.121 288.49 150.339 289.482 150.775 290.385C151.212 291.288 151.808 291.983 152.572 292.499C153.326 293.005 154.199 293.263 155.181 293.263Z" fill="#231F20"/>
<path d="M175.346 280.005C176.566 280.005 177.548 280.253 178.273 280.74C179.007 281.236 179.533 281.901 179.861 282.744C180.188 283.588 180.347 284.52 180.347 285.533V293.699C180.347 293.918 180.267 294.116 180.099 294.285C179.93 294.454 179.741 294.533 179.513 294.533C179.255 294.533 179.047 294.454 178.888 294.285C178.729 294.116 178.65 293.928 178.65 293.699V285.612C178.65 284.868 178.531 284.193 178.293 283.588C178.055 282.982 177.668 282.486 177.122 282.129C176.586 281.772 175.871 281.583 174.978 281.583C174.184 281.583 173.43 281.762 172.716 282.129C172.001 282.486 171.426 282.972 170.979 283.588C170.533 284.203 170.314 284.878 170.314 285.612V293.699C170.314 293.918 170.235 294.116 170.066 294.285C169.898 294.454 169.709 294.533 169.481 294.533C169.223 294.533 169.014 294.454 168.856 294.285C168.697 294.116 168.618 293.928 168.618 293.699V281.256C168.618 281.037 168.697 280.839 168.866 280.67C169.034 280.502 169.233 280.422 169.481 280.422C169.729 280.422 169.917 280.502 170.076 280.67C170.235 280.839 170.314 281.027 170.314 281.256V283.588L169.679 284.59C169.719 283.995 169.908 283.429 170.245 282.883C170.582 282.337 171.029 281.851 171.565 281.414C172.101 280.978 172.696 280.64 173.361 280.382C174.016 280.134 174.681 280.005 175.346 280.005Z" fill="#231F20"/>
<path d="M198.854 273.982C199.092 273.982 199.29 274.061 199.449 274.23C199.608 274.399 199.687 274.587 199.687 274.815V293.709C199.687 293.928 199.608 294.126 199.439 294.295C199.27 294.464 199.082 294.543 198.854 294.543C198.596 294.543 198.387 294.464 198.238 294.295C198.09 294.126 198.02 293.938 198.02 293.709V290.405L198.496 290.018C198.496 290.554 198.358 291.109 198.08 291.675C197.802 292.241 197.405 292.757 196.899 293.233C196.393 293.709 195.797 294.086 195.123 294.384C194.448 294.682 193.723 294.831 192.939 294.831C191.699 294.831 190.578 294.503 189.595 293.858C188.603 293.213 187.819 292.33 187.243 291.219C186.668 290.107 186.38 288.837 186.38 287.408C186.38 285.979 186.668 284.739 187.243 283.617C187.819 282.496 188.593 281.613 189.575 280.978C190.558 280.343 191.659 280.015 192.88 280.015C193.654 280.015 194.388 280.154 195.073 280.432C195.758 280.71 196.363 281.087 196.889 281.573C197.415 282.059 197.832 282.605 198.139 283.23C198.447 283.856 198.596 284.491 198.596 285.165L198.01 284.749V274.825C198.01 274.607 198.09 274.409 198.229 274.24C198.367 274.071 198.576 273.992 198.844 273.992L198.854 273.982ZM193.078 293.263C194.081 293.263 194.954 293.005 195.708 292.499C196.462 291.993 197.048 291.298 197.484 290.415C197.921 289.532 198.139 288.529 198.139 287.398C198.139 286.267 197.921 285.294 197.484 284.411C197.048 283.528 196.452 282.843 195.688 282.337C194.924 281.831 194.061 281.583 193.078 281.583C192.096 281.583 191.252 281.831 190.478 282.337C189.704 282.843 189.109 283.528 188.672 284.411C188.236 285.294 188.017 286.287 188.017 287.398C188.017 288.51 188.236 289.512 188.672 290.395C189.109 291.288 189.714 291.983 190.478 292.489C191.243 292.995 192.116 293.253 193.078 293.253V293.263Z" fill="#231F20"/>
<path d="M207.328 278.229C206.941 278.229 206.643 278.14 206.455 277.961C206.256 277.783 206.167 277.534 206.167 277.197V276.919C206.167 276.582 206.276 276.334 206.485 276.155C206.693 275.977 206.991 275.887 207.358 275.887C207.705 275.887 207.983 275.977 208.182 276.155C208.38 276.334 208.469 276.582 208.469 276.919V277.197C208.469 277.534 208.37 277.783 208.182 277.961C207.983 278.14 207.705 278.229 207.338 278.229H207.328ZM208.162 293.709C208.162 293.928 208.082 294.126 207.914 294.295C207.745 294.464 207.556 294.543 207.328 294.543C207.07 294.543 206.862 294.464 206.713 294.295C206.564 294.126 206.495 293.938 206.495 293.709V280.928C206.495 280.71 206.574 280.511 206.733 280.343C206.892 280.174 207.09 280.095 207.328 280.095C207.566 280.095 207.765 280.174 207.924 280.343C208.082 280.511 208.162 280.7 208.162 280.928V293.709Z" fill="#231F20"/>
<path d="M221.697 280.005C222.918 280.005 223.9 280.253 224.624 280.74C225.359 281.236 225.885 281.901 226.212 282.744C226.54 283.588 226.698 284.52 226.698 285.533V293.699C226.698 293.918 226.619 294.116 226.45 294.285C226.282 294.454 226.093 294.533 225.865 294.533C225.607 294.533 225.398 294.454 225.24 294.285C225.081 294.116 225.001 293.928 225.001 293.699V285.612C225.001 284.868 224.882 284.193 224.644 283.588C224.406 282.982 224.019 282.486 223.473 282.129C222.937 281.772 222.223 281.583 221.33 281.583C220.536 281.583 219.782 281.762 219.067 282.129C218.353 282.486 217.777 282.972 217.331 283.588C216.884 284.203 216.666 284.878 216.666 285.612V293.699C216.666 293.918 216.587 294.116 216.418 294.285C216.249 294.454 216.061 294.533 215.832 294.533C215.574 294.533 215.366 294.454 215.207 294.285C215.048 294.116 214.969 293.928 214.969 293.699V281.256C214.969 281.037 215.048 280.839 215.217 280.67C215.386 280.502 215.584 280.422 215.832 280.422C216.08 280.422 216.269 280.502 216.428 280.67C216.587 280.839 216.666 281.027 216.666 281.256V283.588L216.031 284.59C216.071 283.995 216.259 283.429 216.596 282.883C216.934 282.337 217.38 281.851 217.916 281.414C218.452 280.978 219.048 280.64 219.712 280.382C220.367 280.134 221.032 280.005 221.697 280.005Z" fill="#231F20"/>
<path d="M239.48 280.005C240.293 280.005 241.057 280.144 241.762 280.432C242.466 280.72 243.082 281.087 243.608 281.543C244.134 282 244.55 282.476 244.848 282.992C245.146 283.498 245.295 283.985 245.295 284.451L244.848 283.786V281.206C244.848 280.968 244.927 280.76 245.086 280.591C245.245 280.422 245.443 280.343 245.682 280.343C245.94 280.343 246.148 280.422 246.297 280.591C246.446 280.76 246.515 280.958 246.515 281.206V293.263C246.515 294.722 246.207 295.972 245.602 296.984C244.997 297.996 244.163 298.78 243.111 299.306C242.06 299.832 240.879 300.1 239.539 300.1C238.894 300.1 238.209 300.021 237.495 299.852C236.78 299.683 236.175 299.475 235.659 299.217C235.153 298.959 234.865 298.691 234.816 298.413C234.667 298.244 234.597 298.086 234.607 297.927C234.607 297.768 234.697 297.639 234.845 297.52C235.014 297.391 235.203 297.381 235.411 297.48C235.619 297.579 235.937 297.718 236.344 297.887C236.512 297.947 236.761 298.026 237.078 298.135C237.406 298.244 237.783 298.344 238.219 298.423C238.656 298.502 239.112 298.552 239.599 298.552C241.246 298.552 242.536 298.076 243.459 297.123C244.382 296.17 244.848 294.92 244.848 293.382V290.713L245.156 290.792C244.987 291.437 244.709 292.012 244.322 292.519C243.935 293.015 243.489 293.441 242.973 293.779C242.466 294.116 241.911 294.384 241.305 294.553C240.7 294.731 240.105 294.821 239.509 294.821C238.229 294.821 237.078 294.493 236.046 293.848C235.014 293.203 234.21 292.32 233.615 291.209C233.019 290.097 232.722 288.827 232.722 287.398C232.722 285.969 233.019 284.729 233.615 283.607C234.21 282.486 235.014 281.603 236.036 280.968C237.058 280.333 238.199 280.005 239.48 280.005ZM239.678 281.593C238.656 281.593 237.743 281.841 236.939 282.347C236.135 282.843 235.5 283.538 235.054 284.421C234.597 285.304 234.369 286.297 234.369 287.408C234.369 288.52 234.597 289.522 235.054 290.405C235.51 291.298 236.135 291.993 236.939 292.499C237.743 293.005 238.656 293.263 239.678 293.263C240.7 293.263 241.573 293.015 242.377 292.509C243.181 292.003 243.806 291.318 244.263 290.435C244.729 289.552 244.957 288.539 244.957 287.388C244.957 286.237 244.729 285.235 244.263 284.362C243.796 283.488 243.171 282.814 242.377 282.317C241.583 281.821 240.68 281.583 239.678 281.583V281.593Z" fill="#231F20"/>
<path d="M272.097 275.093C273.655 275.093 274.876 275.51 275.749 276.354C276.632 277.197 277.069 278.368 277.069 279.866C277.069 280.66 276.9 281.405 276.573 282.099C276.245 282.794 275.739 283.359 275.084 283.796C274.429 284.233 273.625 284.481 272.683 284.53L272.544 283.975C273.228 283.975 273.903 284.074 274.558 284.262C275.213 284.461 275.809 284.769 276.334 285.195C276.86 285.622 277.287 286.158 277.595 286.793C277.912 287.428 278.071 288.202 278.071 289.115C278.071 290.077 277.912 290.911 277.585 291.606C277.257 292.3 276.821 292.866 276.265 293.303C275.709 293.739 275.084 294.057 274.39 294.245C273.695 294.434 272.97 294.533 272.206 294.533H264.734C264.496 294.533 264.298 294.454 264.139 294.285C263.98 294.116 263.901 293.928 263.901 293.699V275.917C263.901 275.699 263.98 275.5 264.139 275.331C264.298 275.163 264.496 275.083 264.734 275.083H272.097V275.093ZM271.849 276.76H265.349L265.687 276.235V284.094L265.379 283.677H271.879C272.842 283.657 273.655 283.34 274.31 282.734C274.965 282.119 275.293 281.216 275.293 280.015C275.293 279.013 274.995 278.219 274.39 277.644C273.784 277.058 272.941 276.77 271.849 276.77V276.76ZM272.068 285.374H265.538L265.677 285.175V293.154L265.508 292.906H272.097C273.298 292.906 274.3 292.608 275.094 292.003C275.888 291.397 276.285 290.445 276.285 289.125C276.285 288.202 276.086 287.458 275.699 286.902C275.312 286.346 274.786 285.949 274.141 285.721C273.496 285.493 272.802 285.374 272.058 285.374H272.068Z" fill="#231F20"/>
<path d="M285.821 293.709C285.821 293.928 285.742 294.126 285.573 294.295C285.404 294.464 285.216 294.543 284.988 294.543C284.749 294.543 284.551 294.464 284.392 294.295C284.233 294.126 284.154 293.938 284.154 293.709V274.815C284.154 274.597 284.233 274.399 284.402 274.23C284.571 274.061 284.759 273.982 284.988 273.982C285.226 273.982 285.424 274.061 285.583 274.23C285.742 274.399 285.821 274.587 285.821 274.815V293.709Z" fill="#231F20"/>
<path d="M304.517 280.343C304.755 280.343 304.953 280.422 305.112 280.591C305.271 280.76 305.35 280.958 305.35 281.206V293.709C305.35 293.928 305.271 294.126 305.102 294.295C304.933 294.464 304.745 294.543 304.517 294.543C304.259 294.543 304.05 294.464 303.901 294.295C303.752 294.126 303.683 293.938 303.683 293.709V290.405L304.159 290.206C304.159 290.703 304.02 291.229 303.733 291.774C303.445 292.32 303.048 292.816 302.552 293.273C302.056 293.729 301.46 294.096 300.785 294.384C300.111 294.672 299.386 294.811 298.602 294.811C297.342 294.811 296.221 294.483 295.228 293.838C294.236 293.193 293.462 292.3 292.896 291.169C292.331 290.038 292.053 288.768 292.053 287.358C292.053 285.949 292.341 284.64 292.916 283.538C293.492 282.437 294.266 281.573 295.248 280.938C296.231 280.313 297.332 279.995 298.553 279.995C299.346 279.995 300.091 280.134 300.785 280.412C301.48 280.69 302.085 281.067 302.601 281.553C303.117 282.04 303.524 282.585 303.822 283.211C304.12 283.836 304.268 284.471 304.268 285.146L303.683 284.729V281.196C303.683 280.958 303.762 280.75 303.901 280.581C304.04 280.412 304.249 280.333 304.517 280.333V280.343ZM298.741 293.263C299.724 293.263 300.597 293.005 301.351 292.499C302.105 291.993 302.711 291.288 303.147 290.385C303.584 289.482 303.802 288.48 303.802 287.368C303.802 286.257 303.584 285.314 303.147 284.441C302.711 283.568 302.115 282.863 301.351 282.357C300.587 281.851 299.724 281.593 298.741 281.593C297.759 281.593 296.915 281.841 296.141 282.327C295.377 282.814 294.772 283.498 294.335 284.372C293.899 285.245 293.68 286.247 293.68 287.368C293.68 288.49 293.899 289.482 294.335 290.385C294.772 291.288 295.367 291.983 296.131 292.499C296.886 293.005 297.759 293.263 298.741 293.263Z" fill="#231F20"/>
<path d="M321.108 292.985C321.327 292.985 321.525 293.064 321.674 293.223C321.833 293.382 321.912 293.561 321.912 293.769C321.912 293.987 321.833 294.176 321.674 294.325C321.515 294.473 321.327 294.543 321.108 294.543H312.078C311.82 294.543 311.622 294.454 311.483 294.265C311.344 294.077 311.274 293.908 311.274 293.739C311.274 293.63 311.294 293.521 311.334 293.422C311.374 293.322 311.423 293.213 311.503 293.104L319.947 281.464L320.027 281.742H312.773C312.554 281.742 312.356 281.663 312.207 281.504C312.048 281.345 311.969 281.156 311.969 280.938C311.969 280.73 312.048 280.551 312.207 280.392C312.366 280.234 312.554 280.154 312.773 280.154H321.277C321.495 280.154 321.694 280.234 321.843 280.402C322.001 280.571 322.081 280.769 322.081 281.018C322.081 281.107 322.061 281.206 322.021 281.295C321.981 281.385 321.932 281.494 321.852 281.603L313.487 293.134L313.15 292.995H321.098L321.108 292.985Z" fill="#231F20"/>
<path d="M328.809 278.229C328.422 278.229 328.124 278.14 327.935 277.961C327.737 277.783 327.648 277.534 327.648 277.197V276.919C327.648 276.582 327.757 276.334 327.965 276.155C328.174 275.977 328.471 275.887 328.838 275.887C329.186 275.887 329.464 275.977 329.662 276.155C329.861 276.334 329.95 276.582 329.95 276.919V277.197C329.95 277.534 329.851 277.783 329.662 277.961C329.464 278.14 329.186 278.229 328.819 278.229H328.809ZM329.642 293.709C329.642 293.928 329.563 294.126 329.394 294.295C329.225 294.464 329.037 294.543 328.809 294.543C328.551 294.543 328.342 294.464 328.193 294.295C328.045 294.126 327.975 293.938 327.975 293.709V280.928C327.975 280.71 328.055 280.511 328.213 280.343C328.372 280.174 328.571 280.095 328.809 280.095C329.047 280.095 329.245 280.174 329.404 280.343C329.563 280.511 329.642 280.7 329.642 280.928V293.709Z" fill="#231F20"/>
<path d="M343.168 280.005C344.388 280.005 345.371 280.253 346.095 280.74C346.829 281.236 347.355 281.901 347.683 282.744C348.01 283.588 348.169 284.52 348.169 285.533V293.699C348.169 293.918 348.09 294.116 347.921 294.285C347.752 294.454 347.564 294.533 347.335 294.533C347.077 294.533 346.869 294.454 346.71 294.285C346.552 294.116 346.472 293.928 346.472 293.699V285.612C346.472 284.868 346.353 284.193 346.115 283.588C345.877 282.982 345.49 282.486 344.944 282.129C344.408 281.772 343.694 281.583 342.801 281.583C342.007 281.583 341.253 281.762 340.538 282.129C339.824 282.486 339.248 282.972 338.801 283.588C338.355 284.203 338.137 284.878 338.137 285.612V293.699C338.137 293.918 338.057 294.116 337.888 294.285C337.72 294.454 337.531 294.533 337.303 294.533C337.045 294.533 336.837 294.454 336.678 294.285C336.519 294.116 336.44 293.928 336.44 293.699V281.256C336.44 281.037 336.519 280.839 336.688 280.67C336.856 280.502 337.055 280.422 337.303 280.422C337.551 280.422 337.74 280.502 337.898 280.67C338.057 280.839 338.137 281.027 338.137 281.256V283.588L337.501 284.59C337.541 283.995 337.73 283.429 338.067 282.883C338.405 282.337 338.851 281.851 339.387 281.414C339.923 280.978 340.518 280.64 341.183 280.382C341.838 280.134 342.503 280.005 343.168 280.005Z" fill="#231F20"/>
<path d="M360.95 280.005C361.764 280.005 362.528 280.144 363.232 280.432C363.937 280.72 364.552 281.087 365.078 281.543C365.604 282 366.021 282.476 366.319 282.992C366.616 283.498 366.765 283.985 366.765 284.451L366.319 283.786V281.206C366.319 280.968 366.398 280.76 366.557 280.591C366.716 280.422 366.914 280.343 367.152 280.343C367.41 280.343 367.619 280.422 367.767 280.591C367.916 280.76 367.986 280.958 367.986 281.206V293.263C367.986 294.722 367.678 295.972 367.073 296.984C366.467 297.996 365.634 298.78 364.582 299.306C363.53 299.832 362.349 300.1 361.01 300.1C360.365 300.1 359.68 300.021 358.965 299.852C358.251 299.683 357.646 299.475 357.13 299.217C356.624 298.959 356.336 298.691 356.286 298.413C356.137 298.244 356.068 298.086 356.078 297.927C356.078 297.768 356.167 297.639 356.316 297.52C356.485 297.391 356.673 297.381 356.882 297.48C357.09 297.579 357.408 297.718 357.814 297.887C357.983 297.947 358.231 298.026 358.549 298.135C358.876 298.244 359.253 298.344 359.69 298.423C360.126 298.502 360.583 298.552 361.069 298.552C362.716 298.552 364.006 298.076 364.929 297.123C365.852 296.17 366.319 294.92 366.319 293.382V290.713L366.626 290.792C366.458 291.437 366.18 292.012 365.793 292.519C365.406 293.015 364.959 293.441 364.443 293.779C363.937 294.116 363.381 294.384 362.776 294.553C362.171 294.731 361.575 294.821 360.98 294.821C359.7 294.821 358.549 294.493 357.517 293.848C356.485 293.203 355.681 292.32 355.085 291.209C354.49 290.097 354.192 288.827 354.192 287.398C354.192 285.969 354.49 284.729 355.085 283.607C355.681 282.486 356.485 281.603 357.507 280.968C358.529 280.333 359.67 280.005 360.95 280.005ZM361.149 281.593C360.126 281.593 359.214 281.841 358.41 282.347C357.606 282.843 356.971 283.538 356.524 284.421C356.068 285.304 355.84 286.297 355.84 287.408C355.84 288.52 356.068 289.522 356.524 290.405C356.981 291.298 357.606 291.993 358.41 292.499C359.214 293.005 360.126 293.263 361.149 293.263C362.171 293.263 363.044 293.015 363.848 292.509C364.651 292.003 365.277 291.318 365.733 290.435C366.2 289.552 366.428 288.539 366.428 287.388C366.428 286.237 366.2 285.235 365.733 284.362C365.267 283.488 364.642 282.814 363.848 282.317C363.054 281.821 362.151 281.583 361.149 281.583V281.593Z" fill="#231F20"/>
<path d="M387.128 293.68C387.108 293.918 387.009 294.126 386.84 294.295C386.661 294.464 386.463 294.543 386.244 294.543C385.967 294.543 385.748 294.464 385.609 294.295C385.461 294.126 385.391 293.928 385.391 293.68V275.957C385.391 275.718 385.47 275.51 385.639 275.341C385.808 275.173 386.016 275.093 386.274 275.093C386.493 275.093 386.691 275.173 386.87 275.341C387.048 275.51 387.138 275.709 387.138 275.957V293.68H387.128Z" fill="#231F20"/>
<path d="M401.1 280.005C402.32 280.005 403.303 280.253 404.027 280.74C404.761 281.236 405.287 281.901 405.615 282.744C405.942 283.588 406.101 284.52 406.101 285.533V293.699C406.101 293.918 406.022 294.116 405.853 294.285C405.684 294.454 405.496 294.533 405.267 294.533C405.009 294.533 404.801 294.454 404.642 294.285C404.483 294.116 404.404 293.928 404.404 293.699V285.612C404.404 284.868 404.285 284.193 404.047 283.588C403.809 282.982 403.422 282.486 402.876 282.129C402.34 281.772 401.626 281.583 400.732 281.583C399.939 281.583 399.184 281.762 398.47 282.129C397.755 282.486 397.18 282.972 396.733 283.588C396.287 284.203 396.069 284.878 396.069 285.612V293.699C396.069 293.918 395.989 294.116 395.82 294.285C395.652 294.454 395.463 294.533 395.235 294.533C394.977 294.533 394.769 294.454 394.61 294.285C394.451 294.116 394.372 293.928 394.372 293.699V281.256C394.372 281.037 394.451 280.839 394.62 280.67C394.788 280.502 394.987 280.422 395.235 280.422C395.483 280.422 395.672 280.502 395.83 280.67C395.989 280.839 396.069 281.027 396.069 281.256V283.588L395.433 284.59C395.473 283.995 395.662 283.429 395.999 282.883C396.336 282.337 396.783 281.851 397.319 281.414C397.855 280.978 398.45 280.64 399.115 280.382C399.77 280.134 400.435 280.005 401.1 280.005Z" fill="#231F20"/>
<path d="M419.656 280.005C420.877 280.005 421.859 280.253 422.583 280.74C423.318 281.236 423.844 281.901 424.171 282.744C424.499 283.588 424.657 284.52 424.657 285.533V293.699C424.657 293.918 424.578 294.116 424.409 294.285C424.241 294.454 424.052 294.533 423.824 294.533C423.566 294.533 423.357 294.454 423.199 294.285C423.04 294.116 422.961 293.928 422.961 293.699V285.612C422.961 284.868 422.841 284.193 422.603 283.588C422.365 282.982 421.978 282.486 421.432 282.129C420.897 281.772 420.182 281.583 419.289 281.583C418.495 281.583 417.741 281.762 417.026 282.129C416.312 282.486 415.736 282.972 415.29 283.588C414.843 284.203 414.625 284.878 414.625 285.612V293.699C414.625 293.918 414.546 294.116 414.377 294.285C414.208 294.454 414.02 294.533 413.791 294.533C413.533 294.533 413.325 294.454 413.166 294.285C413.008 294.116 412.928 293.928 412.928 293.699V281.256C412.928 281.037 413.008 280.839 413.176 280.67C413.345 280.502 413.543 280.422 413.791 280.422C414.04 280.422 414.228 280.502 414.387 280.67C414.546 280.839 414.625 281.027 414.625 281.256V283.588L413.99 284.59C414.03 283.995 414.218 283.429 414.556 282.883C414.893 282.337 415.34 281.851 415.875 281.414C416.411 280.978 417.007 280.64 417.672 280.382C418.326 280.134 418.991 280.005 419.656 280.005Z" fill="#231F20"/>
<path d="M444.752 287.428C444.752 288.837 444.444 290.097 443.839 291.219C443.224 292.34 442.39 293.223 441.338 293.858C440.287 294.493 439.076 294.821 437.726 294.821C436.377 294.821 435.226 294.503 434.154 293.858C433.092 293.223 432.249 292.34 431.624 291.219C431.008 290.097 430.691 288.837 430.691 287.428C430.691 286.019 430.998 284.729 431.624 283.617C432.249 282.506 433.082 281.623 434.154 280.978C435.216 280.333 436.407 280.005 437.726 280.005C439.046 280.005 440.287 280.333 441.338 280.978C442.39 281.623 443.224 282.506 443.839 283.617C444.454 284.729 444.752 285.999 444.752 287.428ZM443.085 287.428C443.085 286.297 442.857 285.294 442.39 284.411C441.924 283.528 441.289 282.843 440.485 282.337C439.681 281.841 438.758 281.583 437.716 281.583C436.674 281.583 435.811 281.831 434.997 282.337C434.184 282.843 433.539 283.528 433.062 284.411C432.586 285.294 432.358 286.297 432.358 287.428C432.358 288.559 432.596 289.561 433.062 290.425C433.539 291.298 434.174 291.983 434.997 292.499C435.821 293.015 436.724 293.263 437.716 293.263C438.709 293.263 439.671 293.005 440.485 292.499C441.289 291.993 441.924 291.298 442.39 290.425C442.857 289.552 443.085 288.549 443.085 287.428Z" fill="#231F20"/>
<path d="M450.339 280.035C450.488 280.035 450.637 280.085 450.785 280.174C450.934 280.263 451.043 280.402 451.123 280.591L455.985 292.151L455.628 292.37L460.599 280.591C460.748 280.224 461.016 280.045 461.403 280.065C461.592 280.065 461.761 280.134 461.929 280.263C462.098 280.392 462.177 280.561 462.177 280.76C462.177 280.869 462.167 280.968 462.138 281.037C462.108 281.117 462.088 281.176 462.068 281.236L456.62 294.017C456.471 294.354 456.223 294.523 455.866 294.543C455.697 294.563 455.529 294.523 455.37 294.414C455.211 294.305 455.092 294.176 455.033 294.007L449.555 281.256C449.535 281.196 449.515 281.137 449.495 281.057C449.475 280.988 449.466 280.908 449.466 280.839C449.466 280.631 449.535 280.452 449.684 280.283C449.833 280.115 450.041 280.035 450.319 280.035H450.339Z" fill="#231F20"/>
<path d="M479.454 280.343C479.692 280.343 479.89 280.422 480.049 280.591C480.208 280.76 480.287 280.958 480.287 281.206V293.709C480.287 293.928 480.208 294.126 480.039 294.295C479.87 294.464 479.682 294.543 479.454 294.543C479.196 294.543 478.987 294.464 478.838 294.295C478.69 294.126 478.62 293.938 478.62 293.709V290.405L479.096 290.206C479.096 290.703 478.958 291.229 478.67 291.774C478.382 292.32 477.985 292.816 477.489 293.273C476.993 293.729 476.397 294.096 475.723 294.384C475.048 294.672 474.323 294.811 473.539 294.811C472.279 294.811 471.158 294.483 470.165 293.838C469.173 293.193 468.399 292.3 467.834 291.169C467.268 290.038 466.99 288.768 466.99 287.358C466.99 285.949 467.278 284.64 467.853 283.538C468.429 282.437 469.203 281.573 470.185 280.938C471.168 280.313 472.269 279.995 473.49 279.995C474.284 279.995 475.028 280.134 475.723 280.412C476.417 280.69 477.022 281.067 477.538 281.553C478.054 282.04 478.461 282.585 478.759 283.211C479.057 283.836 479.206 284.471 479.206 285.146L478.62 284.729V281.196C478.62 280.958 478.699 280.75 478.838 280.581C478.977 280.412 479.186 280.333 479.454 280.333V280.343ZM473.678 293.263C474.661 293.263 475.534 293.005 476.288 292.499C477.042 291.993 477.648 291.288 478.084 290.385C478.521 289.482 478.739 288.48 478.739 287.368C478.739 286.257 478.521 285.314 478.084 284.441C477.648 283.568 477.052 282.863 476.288 282.357C475.524 281.851 474.661 281.593 473.678 281.593C472.696 281.593 471.852 281.841 471.078 282.327C470.314 282.814 469.709 283.498 469.272 284.372C468.836 285.245 468.617 286.247 468.617 287.368C468.617 288.49 468.836 289.482 469.272 290.385C469.709 291.288 470.304 291.983 471.069 292.499C471.823 293.005 472.696 293.263 473.678 293.263Z" fill="#231F20"/>
<path d="M486.231 280.392H492.701C492.92 280.392 493.108 280.472 493.257 280.63C493.406 280.789 493.475 280.978 493.475 281.196C493.475 281.414 493.406 281.603 493.257 281.752C493.108 281.901 492.92 281.97 492.701 281.97H486.231C486.013 281.97 485.814 281.891 485.666 281.732C485.507 281.573 485.427 281.385 485.427 281.166C485.427 280.948 485.507 280.76 485.666 280.611C485.824 280.462 486.013 280.392 486.231 280.392ZM489.089 276.473C489.327 276.473 489.526 276.552 489.685 276.721C489.843 276.889 489.923 277.078 489.923 277.306V291.258C489.923 291.774 489.992 292.161 490.131 292.429C490.27 292.687 490.449 292.856 490.677 292.945C490.895 293.025 491.123 293.074 491.342 293.074C491.491 293.074 491.62 293.054 491.749 293.005C491.878 292.955 492.007 292.935 492.155 292.935C492.324 292.935 492.463 293.005 492.582 293.134C492.701 293.263 492.761 293.432 492.761 293.63C492.761 293.888 492.612 294.106 492.314 294.285C492.017 294.464 491.669 294.553 491.262 294.553C491.094 294.553 490.846 294.543 490.508 294.513C490.171 294.483 489.833 294.384 489.476 294.206C489.119 294.027 488.831 293.719 488.583 293.273C488.345 292.826 488.226 292.191 488.226 291.358V277.326C488.226 277.108 488.305 276.909 488.474 276.741C488.643 276.572 488.841 276.493 489.089 276.493V276.473Z" fill="#231F20"/>
<path d="M499.846 278.229C499.459 278.229 499.161 278.14 498.973 277.961C498.774 277.783 498.685 277.534 498.685 277.197V276.919C498.685 276.582 498.794 276.334 499.003 276.155C499.211 275.977 499.509 275.887 499.876 275.887C500.223 275.887 500.501 275.977 500.699 276.155C500.898 276.334 500.987 276.582 500.987 276.919V277.197C500.987 277.534 500.888 277.783 500.699 277.961C500.501 278.14 500.223 278.229 499.856 278.229H499.846ZM500.68 293.709C500.68 293.928 500.6 294.126 500.431 294.295C500.263 294.464 500.074 294.543 499.846 294.543C499.588 294.543 499.38 294.464 499.231 294.295C499.082 294.126 499.012 293.938 499.012 293.709V280.928C499.012 280.71 499.092 280.511 499.251 280.343C499.409 280.174 499.608 280.095 499.846 280.095C500.084 280.095 500.283 280.174 500.441 280.343C500.6 280.511 500.68 280.7 500.68 280.928V293.709Z" fill="#231F20"/>
<path d="M520.744 287.428C520.744 288.837 520.437 290.097 519.831 291.219C519.216 292.34 518.383 293.223 517.331 293.858C516.279 294.493 515.068 294.821 513.719 294.821C512.369 294.821 511.218 294.503 510.146 293.858C509.085 293.223 508.241 292.34 507.616 291.219C507.001 290.097 506.683 288.837 506.683 287.428C506.683 286.019 506.991 284.729 507.616 283.617C508.241 282.506 509.075 281.623 510.146 280.978C511.208 280.333 512.399 280.005 513.719 280.005C515.039 280.005 516.279 280.333 517.331 280.978C518.383 281.623 519.216 282.506 519.831 283.617C520.447 284.729 520.744 285.999 520.744 287.428ZM519.077 287.428C519.077 286.297 518.849 285.294 518.383 284.411C517.916 283.528 517.281 282.843 516.477 282.337C515.674 281.841 514.751 281.583 513.709 281.583C512.667 281.583 511.804 281.831 510.99 282.337C510.176 282.843 509.531 283.528 509.055 284.411C508.578 285.294 508.35 286.297 508.35 287.428C508.35 288.559 508.588 289.561 509.055 290.425C509.531 291.298 510.166 291.983 510.99 292.499C511.813 293.015 512.716 293.263 513.709 293.263C514.701 293.263 515.664 293.005 516.477 292.499C517.281 291.993 517.916 291.298 518.383 290.425C518.849 289.552 519.077 288.549 519.077 287.428Z" fill="#231F20"/>
<path d="M533.496 280.005C534.716 280.005 535.699 280.253 536.423 280.74C537.157 281.236 537.683 281.901 538.011 282.744C538.338 283.588 538.497 284.52 538.497 285.533V293.699C538.497 293.918 538.418 294.116 538.249 294.285C538.08 294.454 537.892 294.533 537.664 294.533C537.406 294.533 537.197 294.454 537.038 294.285C536.88 294.116 536.8 293.928 536.8 293.699V285.612C536.8 284.868 536.681 284.193 536.443 283.588C536.205 282.982 535.818 282.486 535.272 282.129C534.736 281.772 534.022 281.583 533.129 281.583C532.335 281.583 531.581 281.762 530.866 282.129C530.152 282.486 529.576 282.972 529.13 283.588C528.683 284.203 528.465 284.878 528.465 285.612V293.699C528.465 293.918 528.385 294.116 528.217 294.285C528.048 294.454 527.859 294.533 527.631 294.533C527.373 294.533 527.165 294.454 527.006 294.285C526.847 294.116 526.768 293.928 526.768 293.699V281.256C526.768 281.037 526.847 280.839 527.016 280.67C527.185 280.502 527.383 280.422 527.631 280.422C527.879 280.422 528.068 280.502 528.227 280.67C528.385 280.839 528.465 281.027 528.465 281.256V283.588L527.83 284.59C527.869 283.995 528.058 283.429 528.395 282.883C528.733 282.337 529.179 281.851 529.715 281.414C530.251 280.978 530.846 280.64 531.511 280.382C532.166 280.134 532.831 280.005 533.496 280.005Z" fill="#231F20"/>
<path d="M570.063 276.532C570.281 276.681 570.41 276.87 570.45 277.098C570.49 277.326 570.42 277.554 570.251 277.783C570.122 277.971 569.964 278.06 569.765 278.07C569.567 278.07 569.368 278.041 569.17 277.941C568.485 277.475 567.731 277.118 566.917 276.86C566.104 276.602 565.24 276.473 564.337 276.473C563.206 276.473 562.154 276.681 561.182 277.088C560.209 277.495 559.366 278.07 558.641 278.815C557.917 279.559 557.361 280.432 556.964 281.454C556.567 282.476 556.369 283.598 556.369 284.818C556.369 286.039 556.577 287.22 556.984 288.252C557.391 289.284 557.957 290.167 558.691 290.901C559.425 291.645 560.269 292.211 561.231 292.598C562.194 292.985 563.236 293.183 564.347 293.183C565.25 293.183 566.114 293.054 566.917 292.796C567.721 292.538 568.475 292.181 569.18 291.745C569.368 291.635 569.557 291.596 569.765 291.616C569.974 291.635 570.142 291.754 570.291 291.933C570.44 292.141 570.5 292.36 570.46 292.598C570.42 292.836 570.301 293.015 570.103 293.124C569.636 293.422 569.09 293.699 568.465 293.967C567.84 294.235 567.165 294.444 566.461 294.593C565.756 294.741 565.052 294.811 564.347 294.811C563.017 294.811 561.757 294.573 560.586 294.086C559.415 293.6 558.373 292.925 557.47 292.042C556.567 291.159 555.863 290.107 555.347 288.887C554.831 287.666 554.573 286.307 554.573 284.798C554.573 283.29 554.831 282.03 555.337 280.829C555.843 279.628 556.547 278.576 557.431 277.673C558.324 276.78 559.356 276.076 560.547 275.58C561.737 275.083 562.998 274.825 564.357 274.825C565.409 274.825 566.431 274.974 567.413 275.272C568.396 275.57 569.279 275.986 570.083 276.522L570.063 276.532Z" fill="#231F20"/>
<path d="M577.337 275.093C577.466 275.093 577.605 275.123 577.744 275.193C577.883 275.262 578.002 275.341 578.091 275.46L585.762 286.962L585.007 286.932L592.708 275.46C592.916 275.183 593.164 275.064 593.462 275.103C593.68 275.103 593.879 275.183 594.028 275.341C594.186 275.5 594.266 275.699 594.266 275.937V293.719C594.266 293.938 594.177 294.136 593.998 294.305C593.819 294.473 593.611 294.553 593.373 294.553C593.135 294.553 592.926 294.473 592.758 294.305C592.589 294.136 592.509 293.948 592.509 293.719V277.634L593.006 277.693L585.98 288.331C585.92 288.44 585.841 288.529 585.712 288.599C585.593 288.668 585.464 288.698 585.335 288.698C585.206 288.698 585.077 288.668 584.958 288.599C584.839 288.529 584.74 288.45 584.67 288.331L577.615 277.574L578.141 277.217V293.719C578.141 293.938 578.061 294.136 577.902 294.305C577.744 294.473 577.545 294.553 577.307 294.553C577.069 294.553 576.87 294.473 576.721 294.305C576.573 294.136 576.503 293.948 576.503 293.719V275.937C576.503 275.728 576.583 275.54 576.741 275.371C576.9 275.193 577.099 275.103 577.337 275.103V275.093Z" fill="#231F20"/>
<path d="M607.315 294.821C605.906 294.841 604.685 294.622 603.643 294.166C602.601 293.709 601.619 293.025 600.666 292.092C600.577 292.003 600.498 291.893 600.428 291.784C600.359 291.675 600.329 291.546 600.329 291.397C600.329 291.179 600.418 290.971 600.597 290.782C600.775 290.593 600.974 290.504 601.192 290.504C601.411 290.504 601.619 290.593 601.807 290.782C602.532 291.556 603.346 292.151 604.268 292.558C605.181 292.965 606.174 293.174 607.226 293.174C608.119 293.174 608.903 293.035 609.597 292.757C610.292 292.479 610.848 292.082 611.254 291.566C611.661 291.05 611.87 290.445 611.87 289.76C611.85 288.907 611.612 288.222 611.165 287.706C610.709 287.19 610.103 286.753 609.349 286.396C608.585 286.049 607.742 285.741 606.819 285.483C606.055 285.245 605.33 284.977 604.636 284.689C603.941 284.401 603.326 284.054 602.8 283.637C602.274 283.22 601.857 282.704 601.559 282.099C601.262 281.484 601.113 280.76 601.113 279.906C601.113 278.924 601.371 278.05 601.887 277.276C602.403 276.512 603.137 275.907 604.1 275.47C605.052 275.034 606.164 274.815 607.424 274.815C608.516 274.815 609.567 275.004 610.58 275.371C611.592 275.738 612.386 276.284 612.981 277.009C613.259 277.306 613.398 277.574 613.398 277.812C613.398 278.021 613.309 278.209 613.12 278.378C612.931 278.557 612.733 278.646 612.505 278.646C612.316 278.646 612.157 278.576 612.028 278.447C611.711 278.06 611.314 277.713 610.838 277.405C610.351 277.098 609.826 276.86 609.24 276.701C608.655 276.532 608.049 276.453 607.424 276.453C606.551 276.453 605.767 276.582 605.072 276.86C604.378 277.128 603.832 277.515 603.435 278.011C603.038 278.507 602.839 279.122 602.839 279.847C602.839 280.621 603.058 281.256 603.504 281.752C603.951 282.238 604.536 282.655 605.251 282.972C605.975 283.3 606.739 283.598 607.553 283.875C608.347 284.094 609.111 284.352 609.845 284.64C610.58 284.927 611.225 285.285 611.79 285.711C612.356 286.138 612.802 286.674 613.12 287.319C613.447 287.964 613.606 288.778 613.606 289.76C613.606 290.742 613.338 291.556 612.802 292.32C612.267 293.084 611.532 293.68 610.59 294.126C609.647 294.573 608.555 294.801 607.295 294.821H607.315Z" fill="#231F20"/>
<path d="M80.6181 0.0999756L33.5918 0.100036C17.1589 0.100036 3.82202 13.4369 3.82202 29.8698V38.2351H65.6836V220.684C65.6836 237.117 79.0204 250.454 95.4534 250.454H110.388V38.2351H142.47C158.903 38.2351 172.24 24.8983 172.24 8.46534V0.100036H80.6787C80.6585 0.0999983 80.6383 0.0999756 80.6181 0.0999756Z" fill="#231F20"/>
<path d="M267.334 0.0999756L156.194 111.24C148.444 118.991 148.444 131.553 156.194 139.303L267.334 250.444L378.475 139.303C386.225 131.553 386.225 118.991 378.475 111.24L267.334 0.0999756ZM213.491 111.24L267.334 57.3969L321.178 111.24C328.928 118.991 328.928 131.553 321.178 139.303L267.334 193.147L213.491 139.303C205.741 131.553 205.741 118.991 213.491 111.24Z" fill="#FF0A6C"/>
<path d="M502.565 125.56C518.373 108.631 545.106 88.7345 544.471 61.1776C544.937 48.8926 541.107 36.816 534.3 26.7241C532.255 23.628 529.914 20.7106 527.274 18.0412C516.378 6.61956 501.563 0.209133 485.765 0.62591H376.093V49.7163C376.093 54.9756 378.187 60.0266 381.908 63.7478L429.689 111.528C437.439 119.278 437.439 131.841 429.689 139.591L381.908 187.372C378.187 191.093 376.093 196.144 376.093 201.403V250.494H485.765C501.563 250.91 516.378 244.5 527.274 233.078C529.914 230.419 532.255 227.501 534.3 224.395C541.107 214.313 544.927 202.237 544.471 189.942C545.116 162.385 518.373 142.479 502.565 125.56ZM483.463 38.2152C488.524 38.1755 493.148 39.0289 497.038 41.4502C498.953 42.7402 500.65 44.3081 502.079 46.0943C502.188 46.2431 502.307 46.3721 502.416 46.5309C502.416 46.5309 502.416 46.5408 502.426 46.5508C506.167 51.4925 507.814 57.9724 505.889 64.6012C502.118 74.9908 483.562 90.5009 475.227 99.7593L430.731 55.2634C424.489 49.0217 428.895 38.3442 437.726 38.3244L483.473 38.2152H483.463ZM502.426 204.569C502.426 204.569 502.426 204.579 502.416 204.589C502.307 204.737 502.198 204.876 502.079 205.025C500.65 206.811 498.943 208.389 497.038 209.669C493.148 212.091 488.524 212.944 483.463 212.904L437.717 212.795C428.885 212.775 424.479 202.098 430.721 195.856L475.217 151.36C483.552 160.619 502.118 176.129 505.879 186.518C507.805 193.147 506.157 199.627 502.416 204.569H502.426Z" fill="#FF0A6C"/>
<path opacity="0.7" d="M527.274 233.068C529.913 230.409 532.255 227.492 534.3 224.386C541.107 214.303 544.927 202.227 544.471 189.932C545.116 162.375 518.373 142.469 502.565 125.55L475.226 151.35C483.562 160.609 502.128 176.119 505.889 186.508C507.814 193.137 506.167 199.617 502.426 204.559C502.426 204.559 502.426 204.569 502.416 204.579C502.307 204.728 502.198 204.866 502.079 205.015C500.65 206.802 498.943 208.379 497.038 209.659C493.148 212.081 488.524 212.934 483.463 212.894L413.841 212.726L376.083 250.484H485.755C501.553 250.9 516.368 244.49 527.264 233.068H527.274Z" fill="url(#paint0_linear_1302_17086)"/>
<path d="M571.859 0.377869H580.224C596.657 0.377869 609.994 13.7147 609.994 30.1477V250.732H601.629C585.196 250.732 571.859 237.395 571.859 220.962V0.377869Z" fill="#231F20"/>
<path d="M581.127 174.749C581.415 174.184 581.852 173.856 582.467 173.757C583.082 173.658 583.628 173.817 584.134 174.233C584.521 174.521 584.74 174.878 584.789 175.325C584.829 175.772 584.749 176.218 584.531 176.684C584.293 177.21 584.104 177.756 583.975 178.332C583.846 178.907 583.777 179.513 583.777 180.148C583.777 181.319 583.965 182.37 584.333 183.303C584.7 184.226 585.236 185.02 585.92 185.665C586.605 186.32 587.419 186.816 588.352 187.154C589.284 187.491 590.326 187.66 591.458 187.66C592.787 187.66 593.938 187.471 594.921 187.084C595.903 186.707 596.717 186.171 597.372 185.496C598.027 184.822 598.513 184.028 598.821 183.115C599.138 182.202 599.297 181.209 599.297 180.148C599.297 179.562 599.247 178.977 599.128 178.381C599.019 177.796 598.821 177.23 598.543 176.684C598.324 176.228 598.245 175.772 598.315 175.325C598.384 174.878 598.612 174.501 598.999 174.204C599.545 173.767 600.101 173.608 600.676 173.727C601.252 173.846 601.669 174.184 601.937 174.72C602.224 175.285 602.453 175.871 602.641 176.466C602.83 177.062 602.969 177.667 603.068 178.282C603.167 178.897 603.217 179.513 603.217 180.148C603.217 181.716 602.969 183.204 602.462 184.603C601.966 186.012 601.222 187.263 600.24 188.354C599.257 189.446 598.037 190.319 596.568 190.954C595.099 191.589 593.393 191.897 591.458 191.897C589.781 191.897 588.232 191.609 586.823 191.033C585.414 190.458 584.184 189.644 583.152 188.582C582.12 187.531 581.316 186.28 580.73 184.841C580.155 183.402 579.867 181.835 579.867 180.138C579.867 179.185 579.976 178.242 580.195 177.329C580.413 176.417 580.731 175.553 581.137 174.749H581.127Z" fill="white"/>
<path d="M579.986 131.98C579.986 131.673 580.066 131.355 580.234 131.018C580.403 130.68 580.611 130.422 580.869 130.254L593.085 122.315L593.015 123.952L580.869 115.825C580.284 115.408 579.986 114.882 579.986 114.227C579.986 113.702 580.175 113.235 580.542 112.828C580.909 112.421 581.395 112.213 581.981 112.213H600.885C601.45 112.213 601.927 112.402 602.304 112.769C602.681 113.136 602.879 113.632 602.879 114.237C602.879 114.843 602.691 115.339 602.304 115.726C601.927 116.103 601.45 116.301 600.885 116.301H585.504L585.801 115.031L595.953 121.69C596.191 121.888 596.399 122.126 596.578 122.424C596.757 122.722 596.826 123.019 596.806 123.327C596.826 123.615 596.757 123.903 596.578 124.19C596.399 124.488 596.201 124.726 595.953 124.925L586.089 131.157L584.362 130.303H600.885C601.45 130.303 601.927 130.482 602.304 130.829C602.681 131.176 602.879 131.633 602.879 132.198C602.879 132.764 602.691 133.191 602.304 133.538C601.927 133.885 601.45 134.064 600.885 134.064H581.981C581.435 134.064 580.969 133.866 580.572 133.459C580.185 133.052 579.986 132.576 579.986 132.01V131.98Z" fill="white"/>
<path d="M603.197 63.7081C603.197 65.2363 603.008 66.6057 602.621 67.8263C602.244 69.0469 601.569 70.2079 600.617 71.3193C600.379 71.607 600.111 71.8154 599.803 71.9742C599.495 72.1231 599.198 72.2024 598.89 72.2024C598.394 72.2024 597.947 72.0238 597.57 71.6666C597.193 71.3094 596.995 70.8529 596.995 70.3071C596.995 69.8903 597.124 69.5232 597.382 69.1957C598.057 68.3721 598.573 67.5484 598.92 66.7347C599.267 65.921 599.446 64.9089 599.446 63.7181C599.446 62.9143 599.317 62.17 599.069 61.4953C598.821 60.8205 598.483 60.2747 598.057 59.8579C597.63 59.4411 597.144 59.2427 596.608 59.2427C595.953 59.2427 595.397 59.4411 594.941 59.8281C594.484 60.2251 594.097 60.8205 593.78 61.6243C593.462 62.428 593.224 63.4501 593.045 64.6905C592.867 65.8615 592.609 66.9034 592.242 67.7965C591.884 68.6896 591.428 69.4339 590.872 70.0293C590.316 70.6247 589.661 71.0811 588.917 71.3887C588.163 71.6964 587.32 71.8452 586.387 71.8452C584.968 71.8452 583.767 71.4781 582.765 70.7537C581.763 70.0293 580.998 69.0369 580.482 67.7965C579.966 66.5561 579.698 65.1867 579.698 63.6784C579.698 62.2593 579.907 60.9495 580.334 59.7488C580.76 58.5381 581.296 57.5557 581.951 56.7916C582.447 56.1565 583.033 55.8489 583.678 55.8489C584.154 55.8489 584.591 56.0375 584.988 56.4046C585.385 56.7718 585.573 57.2084 585.573 57.7145C585.573 58.042 585.474 58.3397 585.275 58.5977C584.968 58.945 584.68 59.4114 584.412 60.0068C584.144 60.5922 583.916 61.2174 583.727 61.8723C583.539 62.5273 583.45 63.1326 583.45 63.6982C583.45 64.631 583.569 65.4249 583.807 66.0699C584.045 66.7149 584.372 67.1912 584.789 67.5187C585.206 67.8461 585.682 68.0049 586.228 68.0049C586.883 68.0049 587.419 67.8164 587.846 67.4294C588.272 67.0424 588.61 66.4966 588.858 65.7821C589.106 65.0676 589.334 64.2043 589.523 63.2021C589.761 61.8922 590.048 60.751 590.376 59.7587C590.703 58.7664 591.12 57.9427 591.636 57.2977C592.152 56.6428 592.787 56.1565 593.561 55.8291C594.335 55.5016 595.278 55.3428 596.389 55.3428C597.808 55.3428 599.019 55.7298 600.051 56.5138C601.073 57.2977 601.857 58.3297 602.403 59.5999C602.949 60.8701 603.217 62.2494 603.217 63.728L603.197 63.7081Z" fill="white"/>
<path d="M295.983 28.7484L267.334 57.3969L321.039 111.657C328.729 119.427 328.69 131.95 320.95 139.671L267.334 193.157L295.983 222.053L378.405 139.423C386.136 131.672 386.136 119.139 378.405 111.389L295.983 28.7583V28.7484Z" fill="url(#paint1_linear_1302_17086)"/>
<path d="M381.908 63.7478L429.689 111.528C437.359 119.199 437.429 131.593 429.907 139.353L475.236 99.7593L434.869 59.3915L430.74 55.2634L376.103 0.625916V49.7163C376.103 54.9756 378.197 60.0266 381.918 63.7478H381.908Z" fill="url(#paint2_linear_1302_17086)"/>
<path d="M544.471 189.942C545.116 162.385 518.373 142.479 502.565 125.56L475.226 151.36C483.621 160.639 502.148 176.188 505.889 186.518C507.814 193.147 506.167 199.627 502.426 204.569C502.426 204.569 502.426 204.579 502.416 204.589C502.307 204.738 502.198 204.876 502.079 205.025C500.65 206.811 498.943 208.389 497.038 209.669C493.148 212.091 488.524 212.944 483.463 212.904L437.716 212.795C429.45 212.775 425.054 203.408 429.669 197.087L376.51 250.494C383.813 250.494 485.755 250.494 485.755 250.494C501.553 250.91 516.368 244.5 527.264 233.078C529.904 230.419 532.245 227.501 534.29 224.395C541.097 214.313 544.917 202.237 544.461 189.942H544.471Z" fill="url(#paint3_linear_1302_17086)"/>
<defs>
<linearGradient id="paint0_linear_1302_17086" x1="426.245" y1="178.868" x2="520.159" y2="244.619" gradientUnits="userSpaceOnUse">
<stop stop-color="#00C7FF"/>
<stop offset="1" stop-color="#1B29FF"/>
</linearGradient>
<linearGradient id="paint1_linear_1302_17086" x1="325.772" y1="28.7484" x2="325.772" y2="222.044" gradientUnits="userSpaceOnUse">
<stop stop-color="#2D27FF"/>
<stop offset="1" stop-color="#FF0A6C"/>
</linearGradient>
<linearGradient id="paint2_linear_1302_17086" x1="354.867" y1="21.8518" x2="454.001" y2="120.995" gradientUnits="userSpaceOnUse">
<stop stop-color="#FF0A6C"/>
<stop offset="1" stop-color="#2D27FF"/>
</linearGradient>
<linearGradient id="paint3_linear_1302_17086" x1="426.602" y1="178.967" x2="520.228" y2="244.52" gradientUnits="userSpaceOnUse">
<stop stop-color="#2D27FF"/>
<stop offset="1" stop-color="#FF0A6C"/>
</linearGradient>
</defs>
</svg>
